<?xml version="1.0" encoding="utf-8"?>
<!-- Generator: Adobe Illustrator 25.2.3, SVG Export Plug-In . SVG Version: 6.00 Build 0)  -->
<svg version="1.1" baseProfile="basic" id="Layer_1"
	 xmlns="http://www.w3.org/2000/svg" xmlns:xlink="http://www.w3.org/1999/xlink" x="0px" y="0px" viewBox="0 0 68 68"
	 xml:space="preserve">
<rect x="-372" y="-22" display="none" fill="#2B2B60" width="762" height="265"/>
<g>
	<path d="M15.2,28.3c1.6-0.9,2.7-2.4,2.7-4.4c0-3.1-2.6-5.2-7.6-5.2H0.3v20.2h10.5c5.3,0,8.1-2,8.1-5.5
		C18.8,30.8,17.4,29.1,15.2,28.3z M5,22.2h4.6c2.3,0,3.5,0.8,3.5,2.4c0,1.6-1.2,2.4-3.5,2.4H5V22.2z M10.4,35.3H5v-5h5.5
		c2.4,0,3.7,0.8,3.7,2.5C14.2,34.6,12.8,35.3,10.4,35.3z"/>
	<path d="M28.8,35.1v-4.7h9.4v-3.6h-9.4v-4.4h10.6v-3.8H24.1v20.2h15.6v-3.8H28.8z"/>
	<path d="M67.9,18.6h-3.8l-7.5,12.6l-7.5-12.6h-3.9v20.2h4.4V27l5.9,9.7h2.1l6-10l0,12.1H68L67.9,18.6z"/>
	<path d="M0,46.8v2.6h14.4v-2.6H0z"/>
	<path d="M14.4,46.8v2.6h14.4v-2.6H14.4z"/>
</g>
</svg>
