<?xml version="1.0" encoding="utf-8"?>
<!-- Generator: Adobe Illustrator 25.2.3, SVG Export Plug-In . SVG Version: 6.00 Build 0)  -->
<svg version="1.1" baseProfile="basic" id="Layer_1"
	 xmlns="http://www.w3.org/2000/svg" xmlns:xlink="http://www.w3.org/1999/xlink" x="0px" y="0px" viewBox="0 0 68 68"
	 xml:space="preserve">
<rect x="-457" y="-22" display="none" fill="#2B2B60" width="762" height="265"/>
<g>
	<path fill-rule="evenodd" clip-rule="evenodd" fill="#FFFFFF" d="M35.4,23H29v9h5.4c4.2,0,6.4-1.7,6.4-4.7
		C40.8,24.5,38.8,23,35.4,23z M34.7,36H29v9h6c3.9,0,6-1.6,6-4.5C41,37.5,38.9,36,34.7,36z M34.7,36H29v9h6c3.9,0,6-1.6,6-4.5
		C41,37.5,38.9,36,34.7,36z M35.4,23H29v9h5.4c4.2,0,6.4-1.7,6.4-4.7C40.8,24.5,38.8,23,35.4,23z M35.4,23H29v9h5.4
		c4.2,0,6.4-1.7,6.4-4.7C40.8,24.5,38.8,23,35.4,23z M34.7,36H29v9h6c3.9,0,6-1.6,6-4.5C41,37.5,38.9,36,34.7,36z M34.7,36H29v9h6
		c3.9,0,6-1.6,6-4.5C41,37.5,38.9,36,34.7,36z M35.4,23H29v9h5.4c4.2,0,6.4-1.7,6.4-4.7C40.8,24.5,38.8,23,35.4,23z M35.4,23H29v9
		h5.4c4.2,0,6.4-1.7,6.4-4.7C40.8,24.5,38.8,23,35.4,23z M34.7,36H29v9h6c3.9,0,6-1.6,6-4.5C41,37.5,38.9,36,34.7,36z M34.7,36H29v9
		h6c3.9,0,6-1.6,6-4.5C41,37.5,38.9,36,34.7,36z M35.4,23H29v9h5.4c4.2,0,6.4-1.7,6.4-4.7C40.8,24.5,38.8,23,35.4,23z M35.4,23H29v9
		h5.4c4.2,0,6.4-1.7,6.4-4.7C40.8,24.5,38.8,23,35.4,23z M34.7,36H29v9h6c3.9,0,6-1.6,6-4.5C41,37.5,38.9,36,34.7,36z M34.7,36H29v9
		h6c3.9,0,6-1.6,6-4.5C41,37.5,38.9,36,34.7,36z M35.4,23H29v9h5.4c4.2,0,6.4-1.7,6.4-4.7C40.8,24.5,38.8,23,35.4,23z M35.4,23H29v9
		h5.4c4.2,0,6.4-1.7,6.4-4.7C40.8,24.5,38.8,23,35.4,23z M34.7,36H29v9h6c3.9,0,6-1.6,6-4.5C41,37.5,38.9,36,34.7,36z M34.7,36H29v9
		h6c3.9,0,6-1.6,6-4.5C41,37.5,38.9,36,34.7,36z M35.4,23H29v9h5.4c4.2,0,6.4-1.7,6.4-4.7C40.8,24.5,38.8,23,35.4,23z M35.4,23H29v9
		h5.4c4.2,0,6.4-1.7,6.4-4.7C40.8,24.5,38.8,23,35.4,23z M34.7,36H29v9h6c3.9,0,6-1.6,6-4.5C41,37.5,38.9,36,34.7,36z M34.7,36H29v9
		h6c3.9,0,6-1.6,6-4.5C41,37.5,38.9,36,34.7,36z M35.4,23H29v9h5.4c4.2,0,6.4-1.7,6.4-4.7C40.8,24.5,38.8,23,35.4,23z M35.4,23H29v9
		h5.4c4.2,0,6.4-1.7,6.4-4.7C40.8,24.5,38.8,23,35.4,23z M34.7,36H29v9h6c3.9,0,6-1.6,6-4.5C41,37.5,38.9,36,34.7,36z M34.7,36H29v9
		h6c3.9,0,6-1.6,6-4.5C41,37.5,38.9,36,34.7,36z M35.4,23H29v9h5.4c4.2,0,6.4-1.7,6.4-4.7C40.8,24.5,38.8,23,35.4,23z M35.4,23H29v9
		h5.4c4.2,0,6.4-1.7,6.4-4.7C40.8,24.5,38.8,23,35.4,23z M34.7,36H29v9h6c3.9,0,6-1.6,6-4.5C41,37.5,38.9,36,34.7,36z M34.7,36H29v9
		h6c3.9,0,6-1.6,6-4.5C41,37.5,38.9,36,34.7,36z M35.4,23H29v9h5.4c4.2,0,6.4-1.7,6.4-4.7C40.8,24.5,38.8,23,35.4,23z M35.4,23H29v9
		h5.4c4.2,0,6.4-1.7,6.4-4.7C40.8,24.5,38.8,23,35.4,23z M34.7,36H29v9h6c3.9,0,6-1.6,6-4.5C41,37.5,38.9,36,34.7,36z M34.7,36H29v9
		h6c3.9,0,6-1.6,6-4.5C41,37.5,38.9,36,34.7,36z M35.4,23H29v9h5.4c4.2,0,6.4-1.7,6.4-4.7C40.8,24.5,38.8,23,35.4,23z M35.4,23H29v9
		h5.4c4.2,0,6.4-1.7,6.4-4.7C40.8,24.5,38.8,23,35.4,23z M34.7,36H29v9h6c3.9,0,6-1.6,6-4.5C41,37.5,38.9,36,34.7,36z M34.7,36H29v9
		h6c3.9,0,6-1.6,6-4.5C41,37.5,38.9,36,34.7,36z M40.8,27.3c0-2.8-2-4.3-5.4-4.3H29v9h5.4C38.5,32,40.8,30.3,40.8,27.3z M61.7,25.9
		c-1.1-3.7-1.3-8.3-1.2-11.8c0.1-3.7-2.7-7.1-6.6-7.1H14.1c-3.9,0-6.8,3.4-6.6,7.1c0.1,3.5,0,8.1-1.2,11.8C5.2,29.6,3.2,32,0,32.3
		v3.4c3.2,0.3,5.2,2.7,6.3,6.4c1.1,3.7,1.3,8.3,1.2,11.8c-0.1,3.7,2.7,7.1,6.6,7.1h39.8c3.9,0,6.8-3.4,6.6-7.1
		c-0.1-3.5,0-8.1,1.2-11.8c1.2-3.7,3.1-6.1,6.3-6.4v-3.4C64.8,32,62.8,29.6,61.7,25.9z M35.7,49H25.1c-0.6,0-1.1-0.5-1.1-1.2V21.1
		c0-0.6,0.5-1.1,1.2-1.1h10.5c5.2,0,8.6,2.8,8.6,7.2c0,3.1-2.3,5.8-5.2,6.3v0.2c4,0.4,6.6,3.2,6.6,7.1C45.6,45.9,41.9,49,35.7,49z
		 M34.7,36H29v9h6c3.9,0,6-1.6,6-4.5C41,37.5,38.9,36,34.7,36z M40.8,27.3c0-2.8-2-4.3-5.4-4.3H29v9h5.4
		C38.5,32,40.8,30.3,40.8,27.3z M35.4,23H29v9h5.4c4.2,0,6.4-1.7,6.4-4.7C40.8,24.5,38.8,23,35.4,23z M34.7,36H29v9h6
		c3.9,0,6-1.6,6-4.5C41,37.5,38.9,36,34.7,36z M34.7,36H29v9h6c3.9,0,6-1.6,6-4.5C41,37.5,38.9,36,34.7,36z M35.4,23H29v9h5.4
		c4.2,0,6.4-1.7,6.4-4.7C40.8,24.5,38.8,23,35.4,23z M35.4,23H29v9h5.4c4.2,0,6.4-1.7,6.4-4.7C40.8,24.5,38.8,23,35.4,23z M34.7,36
		H29v9h6c3.9,0,6-1.6,6-4.5C41,37.5,38.9,36,34.7,36z M34.7,36H29v9h6c3.9,0,6-1.6,6-4.5C41,37.5,38.9,36,34.7,36z M35.4,23H29v9
		h5.4c4.2,0,6.4-1.7,6.4-4.7C40.8,24.5,38.8,23,35.4,23z M35.4,23H29v9h5.4c4.2,0,6.4-1.7,6.4-4.7C40.8,24.5,38.8,23,35.4,23z
		 M34.7,36H29v9h6c3.9,0,6-1.6,6-4.5C41,37.5,38.9,36,34.7,36z M34.7,36H29v9h6c3.9,0,6-1.6,6-4.5C41,37.5,38.9,36,34.7,36z
		 M35.4,23H29v9h5.4c4.2,0,6.4-1.7,6.4-4.7C40.8,24.5,38.8,23,35.4,23z M35.4,23H29v9h5.4c4.2,0,6.4-1.7,6.4-4.7
		C40.8,24.5,38.8,23,35.4,23z M34.7,36H29v9h6c3.9,0,6-1.6,6-4.5C41,37.5,38.9,36,34.7,36z M34.7,36H29v9h6c3.9,0,6-1.6,6-4.5
		C41,37.5,38.9,36,34.7,36z M35.4,23H29v9h5.4c4.2,0,6.4-1.7,6.4-4.7C40.8,24.5,38.8,23,35.4,23z M35.4,23H29v9h5.4
		c4.2,0,6.4-1.7,6.4-4.7C40.8,24.5,38.8,23,35.4,23z M34.7,36H29v9h6c3.9,0,6-1.6,6-4.5C41,37.5,38.9,36,34.7,36z M34.7,36H29v9h6
		c3.9,0,6-1.6,6-4.5C41,37.5,38.9,36,34.7,36z M35.4,23H29v9h5.4c4.2,0,6.4-1.7,6.4-4.7C40.8,24.5,38.8,23,35.4,23z M35.4,23H29v9
		h5.4c4.2,0,6.4-1.7,6.4-4.7C40.8,24.5,38.8,23,35.4,23z M34.7,36H29v9h6c3.9,0,6-1.6,6-4.5C41,37.5,38.9,36,34.7,36z M34.7,36H29v9
		h6c3.9,0,6-1.6,6-4.5C41,37.5,38.9,36,34.7,36z M35.4,23H29v9h5.4c4.2,0,6.4-1.7,6.4-4.7C40.8,24.5,38.8,23,35.4,23z M35.4,23H29v9
		h5.4c4.2,0,6.4-1.7,6.4-4.7C40.8,24.5,38.8,23,35.4,23z M34.7,36H29v9h6c3.9,0,6-1.6,6-4.5C41,37.5,38.9,36,34.7,36z M34.7,36H29v9
		h6c3.9,0,6-1.6,6-4.5C41,37.5,38.9,36,34.7,36z M35.4,23H29v9h5.4c4.2,0,6.4-1.7,6.4-4.7C40.8,24.5,38.8,23,35.4,23z M35.4,23H29v9
		h5.4c4.2,0,6.4-1.7,6.4-4.7C40.8,24.5,38.8,23,35.4,23z M34.7,36H29v9h6c3.9,0,6-1.6,6-4.5C41,37.5,38.9,36,34.7,36z M34.7,36H29v9
		h6c3.9,0,6-1.6,6-4.5C41,37.5,38.9,36,34.7,36z M35.4,23H29v9h5.4c4.2,0,6.4-1.7,6.4-4.7C40.8,24.5,38.8,23,35.4,23z M35.4,23H29v9
		h5.4c4.2,0,6.4-1.7,6.4-4.7C40.8,24.5,38.8,23,35.4,23z M34.7,36H29v9h6c3.9,0,6-1.6,6-4.5C41,37.5,38.9,36,34.7,36z M34.7,36H29v9
		h6c3.9,0,6-1.6,6-4.5C41,37.5,38.9,36,34.7,36z M35.4,23H29v9h5.4c4.2,0,6.4-1.7,6.4-4.7C40.8,24.5,38.8,23,35.4,23z M35.4,23H29v9
		h5.4c4.2,0,6.4-1.7,6.4-4.7C40.8,24.5,38.8,23,35.4,23z M34.7,36H29v9h6c3.9,0,6-1.6,6-4.5C41,37.5,38.9,36,34.7,36z M35.4,23H29v9
		h5.4c4.2,0,6.4-1.7,6.4-4.7C40.8,24.5,38.8,23,35.4,23z M34.7,36H29v9h6c3.9,0,6-1.6,6-4.5C41,37.5,38.9,36,34.7,36z"/>
</g>
</svg>
