<?xml version="1.0" encoding="utf-8"?>
<!-- Generator: Adobe Illustrator 25.2.3, SVG Export Plug-In . SVG Version: 6.00 Build 0)  -->
<svg version="1.1" baseProfile="basic" id="Layer_1"
	 xmlns="http://www.w3.org/2000/svg" xmlns:xlink="http://www.w3.org/1999/xlink" x="0px" y="0px" viewBox="0 0 68 68"
	 xml:space="preserve">
<rect x="-107" y="-113" display="none" fill="#2B2B60" width="762" height="265"/>
<g>
	<path fill="#FFFFFF" d="M22.4,24.1c-0.6,0.3-1.3,0.6-1.9,0.9c0,0,0,0,0,0c0.2-0.1,0.3-0.2,0.5-0.3c0.8-0.4,1.5-0.7,2.4-1.1
		c0.2-0.1,0.3-0.2,0.5-0.3C23.4,23.6,22.9,23.9,22.4,24.1z M19,25.8c-0.3,0.2-0.6,0.3-0.9,0.5c-0.2,0.1-0.3,0.2-0.5,0.3
		c-0.2,0.1-0.3,0.2-0.5,0.2c-0.1,0-0.2,0.1-0.2,0.1c-0.1,0-0.2,0.1-0.2,0.1c0,0,0,0,0,0c-0.1,0-0.2,0.1-0.3,0.1
		c-0.1,0-0.1,0.1-0.2,0.1c-0.2,0.1-0.3,0.2-0.5,0.2c0,0,0,0,0,0h0v0h0c-0.3,0.2-0.7,0.4-1,0.6c-0.3,0.2-0.7,0.4-1,0.6
		c0.6-0.4,1.3-0.8,2-1.2c0,0,0,0,0,0c1-0.6,2.1-1.1,3.1-1.7c0,0,0,0,0,0c0.1,0,0.2-0.1,0.2-0.1C19.1,25.8,19.1,25.8,19,25.8z
		 M41.3,61.3c0-0.1,0-0.2,0-0.3C41.3,61.1,41.3,61.2,41.3,61.3z M43.6,52.6c-0.1,0.5-0.3,1-0.4,1.4c0.1-0.2,0.2-0.5,0.3-0.7
		C43.5,53,43.6,52.8,43.6,52.6C43.6,52.6,43.6,52.6,43.6,52.6z M52.5,1.1c-1.1-1.6-6.3-1.4-7.3-0.1C45.1,1.2,45,1.6,45,2.1
		c0,0.1,0,0.2,0,0.3c-0.1,0.6-0.1,1.3-0.1,2c0,0.6,0,1.1,0.1,1.5c0,0,0.1,1,0.2,1.8l0,0c0.1,0.4,0.2,0.7,0.3,0.8
		c0,0,0.1,0.1,0.1,0.1c0,0,0,0,0,0c0.2,0.2,0.6,0.4,1,0.5h0c0,0,0,0,0.1,0c0,0,0,0,0,0h0c1.2,0.3,2.9,0.2,4.2,0h0c0,0,0.1,0,0.2,0h0
		c0.3-0.1,0.6-0.1,0.8-0.2h0c0.1,0,0.2-0.1,0.3-0.1c0.2-0.1,0.3-0.2,0.3-0.2c0-0.1,0-0.2,0-0.4c0-0.5,0.1-1.2,0.2-1.9
		c0.1-0.7,0.1-1.4,0.2-1.8C53,3.5,53,1.8,52.5,1.1z M61.9,66.2L61.9,66.2C61.9,66.2,61.9,66.2,61.9,66.2L61.9,66.2
		C61.9,66.3,61.9,66.3,61.9,66.2L61.9,66.2C61.9,66.3,61.9,66.3,61.9,66.2C61.9,66.3,61.9,66.3,61.9,66.2
		C61.9,66.3,61.9,66.3,61.9,66.2C61.9,66.3,61.9,66.3,61.9,66.2C61.9,66.3,61.9,66.2,61.9,66.2L61.9,66.2L61.9,66.2z M60.6,66.8
		c-0.1,0-0.1,0-0.2,0C60.5,66.8,60.5,66.8,60.6,66.8c0.1,0,0.2,0,0.3,0c0.2,0,0.3-0.1,0.4-0.1c0.1,0,0.1,0,0.2-0.1
		C61.3,66.7,61,66.7,60.6,66.8z M60.7,65.9l-0.9-0.1c0,0.1,0,0.1,0,0.2c0,0.1,0,0.2-0.1,0.4c0.3,0,0.6,0,0.9,0h0
		c0.1-0.1,0.1-0.2,0.1-0.3C60.7,66,60.7,66,60.7,65.9z M59.7,66.9C59.7,66.9,59.7,66.9,59.7,66.9c0,0,0.1,0,0.2,0H59.7z M59.3,66.4
		c-2.7-0.1-5.2-0.5-7-0.5h-0.2c0.1,0,0.2,0,0.2,0H51c0-0.2-0.1-0.3-0.1-0.5v-0.2c0-0.5,0.1-1,0.1-1c-0.7,0-1.7-0.2-2.3-0.5v0
		c0,0,0,0,0-0.1c0.1-0.2,0.2-0.4,0.2-0.5c0.2-0.2,0.3-0.5,0.3-0.7c0-0.1,0-0.2,0.1-0.3c0-0.1,0-0.2,0-0.4v-0.1c0-0.1,0-0.2,0-0.3
		c0-0.2,0-0.4,0-0.6c0-0.1,0-0.3,0-0.4c0-0.2,0-0.3,0-0.5c0-0.2,0-0.3-0.1-0.5c0-0.3-0.1-0.6-0.2-0.8c0,0.1,0,0.2,0,0.3
		c0,0.2,0.1,0.5,0.1,0.7c0,0.5,0.1,0.8,0.1,1.2c0,0.5,0.1,0.9,0,1.2c0,0.1,0,0.2,0,0.4c0,0.1,0,0.2-0.1,0.3c0,0.1-0.1,0.2-0.1,0.4
		c0,0,0,0,0,0s0,0,0,0c0,0,0,0,0,0c0,0,0,0,0,0c0,0,0,0,0,0.1c-0.1,0.1-0.1,0.2-0.2,0.3c0,0,0,0.1-0.1,0.1c0,0,0,0,0,0.1
		c0,0,0,0,0,0.1c0,0,0,0,0,0c0,0,0,0,0,0c0,0,0,0,0,0c0,0.1-0.1,0.2-0.1,0.3c0,0,0,0,0,0.1c0,0,0,0,0,0v0c0,0,0,0.1,0,0.1
		c0,0,0,0,0,0c0,0,0,0,0,0v0c0,0,0,0,0,0v0c0,0.1,0,0.2,0,0.2c0,0.1,0,0.2,0,0.2c0,0,0,0.1,0,0.1c0,0,0,0.1,0,0.1c0,0,0,0,0,0l0,0
		c0,0,0,0,0,0c0,0,0,0,0,0s0,0,0,0v0c0,0,0,0,0,0c0,0,0,0,0,0v0c0,0,0,0.1,0.1,0.2v0c0,0,0,0.1,0.1,0.1c0,0,0,0,0,0
		c0,0,0.1,0.1,0.1,0.2c0.1,0.1,0.2,0.1,0.3,0.2c0,0,0,0,0,0v0c0.1,0.1,0.3,0.1,0.4,0.1c0.1,0,0.2,0,0.3,0c0.2,0,0.4,0,0.6,0
		c0.2,0,0.4,0,0.5,0c0.2,0,0.3,0,0.5,0c0.5,0,0.9,0,1.4,0c0.5,0,1,0,1.5,0.1c0.1,0,0.3,0,0.4,0c0.3,0,0.6,0.1,1,0.1
		c0.2,0,0.5,0.1,0.7,0.1c1.5,0.2,2.3,0.4,3.1,0.4c0,0,0,0,0,0c0.2-0.1,0.4-0.3,0.5-0.5C59.6,66.4,59.5,66.4,59.3,66.4z M54.1,57.1
		C54.1,57.1,54.1,57.1,54.1,57.1L54.1,57.1C54.1,57.1,54.1,57.1,54.1,57.1z M54,58.9c0-0.6,0-1.1,0-1.6c0,0.2,0,0.3,0,0.5v0
		c0,0.1,0,0.2,0,0.3c0,0,0,0,0,0c0,0.1,0,0.2,0,0.3v0.2C54,58.8,54,58.8,54,58.9C54,59.3,54,59.7,54,60.1c0,0.4,0,0.7,0.1,1.1
		c0,0.2,0,0.4,0.1,0.6v-0.1C54.1,61,54,59.9,54,58.9z M54.9,51.5L54.9,51.5C54.9,51.4,54.9,51.4,54.9,51.5c-0.1-0.1-0.1-0.1-0.1-0.1
		c0,0.1-0.1,0.3-0.1,0.4c0,0.3-0.1,0.6-0.2,0.9c-0.1,0.4-0.2,0.8-0.2,1.1c-0.1,0.4-0.2,0.7-0.3,1.1c-0.1,0.3-0.1,0.6-0.2,0.9
		c0.1,0,0.2-0.1,0.3-0.1c0,0.3-0.1,0.7-0.1,1.1c0,0.1,0,0.1,0,0.2v0c0,0,0,0,0,0c0,0,0,0,0-0.1c0-0.2,0-0.3,0.1-0.5
		c0-0.3,0-0.5,0.1-0.8c0-0.2,0-0.3,0.1-0.5l0.1-0.4c0-0.1,0-0.2,0-0.3c0-0.1,0-0.2,0-0.2c0-0.1,0-0.2,0.1-0.3c0-0.1,0-0.1,0-0.2v0
		c0-0.1,0-0.2,0-0.3c0-0.1,0-0.1,0-0.2c0,0,0-0.1,0-0.1c0,0,0-0.1,0-0.2c0,0,0,0,0,0c0-0.1,0-0.1,0-0.2c0-0.2,0.1-0.4,0.1-0.6v0
		c0,0,0,0,0-0.1c0,0,0,0,0,0C54.9,51.8,54.9,51.6,54.9,51.5C54.9,51.5,54.9,51.5,54.9,51.5z M55,51.1C55,51.1,55,51.1,55,51.1
		L55,51.1L55,51.1z M52.3,65.8c1.8,0,4.2,0.5,6.9,0.5C56.6,66.3,54,65.5,52.3,65.8z M52.4,51.7c0,0-0.1,0-0.1,0c0.1,0,0.2,0,0.4,0
		C52.5,51.7,52.5,51.7,52.4,51.7z M48.5,56.8c-0.1-0.2-0.2-0.5-0.2-0.7c-0.1-0.3-0.2-0.7-0.3-1c-0.1-0.4-0.2-0.7-0.3-1
		c0-0.2-0.1-0.3-0.1-0.5c0,0,0,0,0-0.1c0-0.1,0-0.1,0-0.2c0-0.1,0-0.2,0-0.2c0.1,0,0.2,0.1,0.3,0.1c-0.2-0.3-0.3-0.7-0.4-1.1
		c0-0.2,0-0.4,0.1-0.6c0,0,0,0-0.1,0c-0.1,0-0.1,0-0.1,0c-0.2,0.2-0.1,0.8,0,1.6v0c0.1,0.3,0.1,0.7,0.2,1c0.1,0.2,0.1,0.5,0.2,0.7
		c0,0.1,0.1,0.2,0.1,0.3c0.1,0.3,0.3,0.7,0.4,1c0.2,0.4,0.4,0.8,0.5,1.3c0,0,0,0.1,0,0.1c0,0,0,0,0,0.1C48.7,57.3,48.6,57,48.5,56.8
		z M49.3,55.2c-0.2-0.3-0.4-0.7-0.6-1.1c-0.1,0-0.1,0-0.2,0C48.7,54.5,49,54.9,49.3,55.2c0,0.1,0.1,0.2,0.1,0.2
		C49.4,55.4,49.3,55.3,49.3,55.2z M49.7,56.1c0-0.1-0.1-0.2-0.1-0.3c0-0.1-0.1-0.3-0.2-0.4c0.1,0.1,0.1,0.3,0.2,0.4
		C49.6,56,49.7,56.1,49.7,56.1c0.2,0.6,0.4,1.4,0.6,2.2C50.1,57.6,50,56.8,49.7,56.1z M53.8,51c0.1,0,0.2,0,0.4,0v0
		C54.1,51,54,51,53.8,51z M49.7,51.2 M48.7,51L48.7,51C48.7,51,48.8,51,48.7,51c0.1,0,0.1,0,0.2,0c0,0,0,0,0,0c0,0,0.1,0,0.1,0h0
		C49,51,48.9,51,48.7,51C48.8,51,48.7,51,48.7,51z M48.3,50.9c0,0,0.1,0,0.1,0c0,0,0,0,0.1,0c0,0,0.1,0,0.1,0c-0.1,0-0.1,0-0.2,0
		C48.4,50.9,48.3,50.9,48.3,50.9"/>
	<path fill="#FFFFFF" d="M37.7,47.2c-0.6-0.9-1.3-1.6-2.2-2.3C36.4,45.6,37.1,46.3,37.7,47.2z"/>
	<path fill="#FFFFFF" d="M35.8,13.6C35.8,13.6,35.8,13.6,35.8,13.6C35.8,13.6,35.8,13.6,35.8,13.6L35.8,13.6z"/>
	<path fill="#FFFFFF" d="M58.3,18.3c-0.2,1.3-1.1,0.6-1.7,0.4c0,0,0,0-0.1,0c-0.2-0.1-0.4-0.2-0.6-0.3c-0.1,0-0.2-0.1-0.4-0.1
		c-0.9-0.3-1.7-0.5-2.7-0.5c-1.4,0-3.2,0.1-4.7,0.5c-2.1,0.6-2.8,0.6-3.7,0.1c-0.5-0.3-1.2-0.8-1.8-1.2c-0.1-0.1-0.1-0.1-0.2-0.2
		c0,0-0.1,0-0.1-0.1c-0.3-0.2-0.5-0.4-0.5-0.4s0,0,0,0c0,0,0,0,0,0h0c-0.1,0.2-0.4,0.7-0.5,0.9c0,0,0,0.1,0,0.1
		c-0.1,1.2-0.7,2.9-1.8,3.8c-0.1,0.1-0.3,0.2-0.5,0.3c-0.1,0.1-0.3,0.2-0.4,0.2c-0.5,0.2-1,0.1-1.3-0.1c-0.3-0.2-0.9-0.5-1.6-0.8
		c1.4,1.1,2.1,1.9,2.7,3.4c0.5,1.2,1.1,2.8,2.7,4.5c-0.5,0.4-1.3,0.9-1.6,1.2c-2.7-2.1-7-3.4-8-5.8c-0.6-1.6-0.7-2.4-0.1-3
		c0.3-0.3,0.5-0.7,0.7-1c0.9-1.6,0.6-3,1.7-3.7c1.2-0.8,2.2,0.1,2.8,1c-0.4-1.5-1.6-1.8-1.6-1.9c0-0.2,0-0.3,0-0.4
		c0-0.3,0.1-0.6,0.3-0.8c0.1-0.2,0.2-0.4,0.3-0.5c0,0,0,0,0,0v0c0,0,0,0,0-0.1c0,0,0.1-0.2,0.1-0.2c0,0,0-0.1,0-0.1c0,0,0,0,0.1-0.1
		c0,0,0,0,0-0.1c0,0,0,0,0.1-0.1c0.7-0.8,1.5-1.1,2-1.3c0.7-0.3,1.1-0.2,1.6,0.1c0,0,0.1,0.1,0.1,0.1c0,0,0-0.1-0.1-0.1
		c0.1,0,0.2,0,0.4,0c0.1,0,0.2,0,0.3,0c0.2,0,0.4,0.1,0.7,0.1c0,0,0,0,0,0c0.1,0,0.1,0,0.2,0.1c0.1,0,0.1,0.1,0.2,0.1
		c0.2,0.1,0.5,0.2,0.9,0.3c0.1,0,0.3,0,0.4,0.1c0,0,0,0,0,0c0.6,0.1,1.3,0.1,1.9,0.1c0,0,0.1,0,0.1,0h0c0.1,0,0.1,0,0.2,0
		c0.9-0.1,1.5-0.2,1.8-0.3c0.1,0,0.2,0.1,0.3,0.1c0,0,0,0,0,0c0,0,0,0,0,0c0-0.1,0-0.1-0.1-0.2c0.5,0,0.8,0.2,1.3,0.3
		c0.1,0,0.2,0.1,0.3,0.1c0.2,0.1,0.5,0.1,0.9,0.2c0.7,0.1,1.1,0.1,1.5,0.1c0.2,0,0.4-0.1,0.7-0.2c0.1,0.1,0.3,0.1,0.4,0.2
		c0,0,0.8-0.2,1.7-0.2c0.1,0,0.2,0,0.3,0c0.1,0,0.3,0.1,0.4,0.1c0,0,0,0,0,0c0,0,0,0,0,0c0.1,0.1,0.2,0.1,0.3,0.2c0,0,0,0,0.1,0
		c0.1,0.1,0.2,0.1,0.3,0.1c0,0,0,0,0,0c0.2,0.1,0.7,0.4,1.1,0.6c0.1,0.1,0.2,0.1,0.3,0.2c0.1,0,0.1,0.1,0.2,0.1
		c0.1,0.1,0.2,0.2,0.3,0.2c0,0,0,0,0,0s0,0,0,0c0,0,0.1,0.1,0.1,0.1C57.9,15.8,58.4,17,58.3,18.3z"/>
	<polygon fill="#FFFFFF" points="47,12.9 47,12.9 47,12.9 	"/>
	<path fill="#FFFFFF" d="M44.7,13c0,0-0.1,0-0.1,0c0,0,0,0,0,0H44.7z"/>
	<path fill="#FFFFFF" d="M53.4,12.7c-0.8,0.1-1.3,0.3-1.8,0.4c-0.2,0.1-0.4,0.1-0.7,0.2c-0.4,0.1-0.9,0.1-1.5-0.1
		c-0.3-0.1-0.6-0.1-0.9-0.2c-0.1,0-0.2-0.1-0.3-0.1c-0.5-0.1-0.9-0.2-1.3-0.3c0,0.1,0,0.1,0.1,0.2c0,0,0,0,0,0c0,0,0,0,0,0
		c-0.1,0-0.2-0.1-0.3-0.1c0,0-0.1-0.1-0.1-0.1h0c-0.3,0-0.6,0-0.9,0.1c-0.2,0-0.4,0-0.7,0h-0.1c-0.1,0-0.2,0-0.3,0
		c-0.1,0-0.2,0-0.4,0c-0.3,0-0.6,0-1,0c0,0,0,0,0,0c0.2-0.1,0.4-0.2,0.6-0.3c0.6-0.2,1.1-0.5,1.6-0.8c0,0,0.1,0,0.1-0.1c0,0,0,0,0,0
		c0,0,0,0,0.1,0c0,0,0.1,0,0.1-0.1c0,0,0.1,0,0.1-0.1c0.1,0,0.2-0.1,0.3-0.2c0.4-0.2,0.8-0.5,1.1-0.7c0.2-0.1,0.3-0.2,0.5-0.4
		c0.1-0.1,0.2-0.2,0.3-0.3c0.1,0,0.1,0,0.2-0.1c0.1,0,0.2,0,0.3,0c0.1,0,0.2,0,0.3,0c0.4,0,0.8,0.1,1.2,0.3c0.1,0,0.2,0.1,0.2,0.1
		c0.3,0.2,0.6,0.3,1,0.6c0.3,0.2,0.5,0.4,0.8,0.6c0.2,0.2,0.4,0.3,0.6,0.5c0.2,0.2,0.4,0.4,0.6,0.6C53.2,12.5,53.3,12.6,53.4,12.7
		C53.3,12.6,53.4,12.6,53.4,12.7z"/>
	<path fill="#FFFFFF" d="M16.6,28.3c1.5,1.6,2.3,4.3,2.5,7.1C18.9,32.6,18.1,29.9,16.6,28.3C16.6,28.3,16.6,28.3,16.6,28.3
		C16.6,28.2,16.6,28.2,16.6,28.3C16.6,28.2,16.6,28.3,16.6,28.3z"/>
	<path fill="#FFFFFF" d="M23.9,23.4c0.3-0.2,0.7-0.3,1-0.5C24.5,23.1,24.2,23.3,23.9,23.4C23.8,23.4,23.8,23.4,23.9,23.4
		c-0.2,0.1-0.4,0.3-0.5,0.4c-0.8,0.3-1.6,0.7-2.3,1.1c0,0,0,0,0,0c-0.7,0.4-1.4,0.7-2.1,1.1c0,0,0,0,0,0c-1.1,0.5-2.1,1.1-3.1,1.7
		c0,0,0,0,0,0c0,0,0,0,0,0c0,0,0,0,0,0c0,0,0,0,0,0c0.2-0.1,0.6-0.3,0.9-0.5c0,0,0,0,0,0c1.2-0.7,2.5-1.3,3.8-2c0,0,0,0,0,0
		C21.6,24.5,22.8,23.9,23.9,23.4L23.9,23.4z"/>
	<path fill="#FFFFFF" d="M30.7,20.3c-0.5,0.2-2.8,1.2-5.9,2.7C27.2,21.8,29.4,20.8,30.7,20.3C30.8,20.2,30.8,20.2,30.7,20.3
		C30.8,20.2,30.8,20.2,30.7,20.3z"/>
	<path fill="#FFFFFF" d="M30.9,20.9C30.9,20.9,30.9,20.9,30.9,20.9C30.9,20.9,30.9,20.9,30.9,20.9C30.9,20.9,30.9,20.9,30.9,20.9z"
		/>
	<path fill="#FFFFFF" d="M50.1,30c0,0-0.1,0.1-0.2,0.1v0h0c-0.6,0.6-1.2,1.2-1.8,1.9c-0.1,0.1-0.1,0.2-0.2,0.2
		c-0.7,0.8-1.4,1.8-2,2.9c0,0.1-0.1,0.1-0.1,0.2v0c-1.5,2.5-2.9,5.7-4.2,10.1c-0.5-1.8-0.9-5,1-11.2c0.1,0,0.2-0.1,0.3-0.1l0.6-0.4
		c0.1,0,0.1-0.1,0.2-0.1c0.1-0.1,0.1-0.1,0.2-0.1c0,0,0.1-0.1,0.2-0.1c0.1-0.1,0.1-0.1,0.2-0.2c0,0,0.1-0.1,0.1-0.1
		c0.1,0,0.1-0.1,0.1-0.1c0.2-0.3,0.5-0.5,0.6-0.6c0.3-0.3,0.5-0.3,0.5-0.6v0c0,0,0,0,0,0c0,0,0-0.1,0-0.1c0-0.1,0-0.2-0.1-0.4
		c-0.2-0.4-0.7-0.8-1-1c0,0-0.1-0.1-0.1-0.1c0-0.1,0.1-0.2,0.1-0.3c0,0,0,0,0,0c0-0.2,0-0.4,0.1-0.5c0-0.2,0-0.4,0.1-0.5
		c0,0,0,0,0,0c0,0,0.1,0.1,0.1,0.1c0.1,0,0.2,0.1,0.4,0.2c0.1,0,0.2,0.1,0.3,0.1s0.2,0.1,0.4,0.1h0c0,0,0,0,0,0
		c0.1,0,0.2,0.1,0.3,0.1c0.1,0,0.2,0.1,0.3,0.1c0.1,0,0.3,0.1,0.5,0.1c0.2,0,0.3,0.1,0.5,0.1c0.4,0.1,0.8,0.2,1.2,0.3
		C49.3,29.9,49.7,29.9,50.1,30z"/>
	<path fill="#FFFFFF" d="M41.8,16.7C41.8,16.7,41.8,16.7,41.8,16.7L41.8,16.7C41.8,16.6,41.8,16.6,41.8,16.7z"/>
	<path fill="#FFFFFF" d="M41.5,28.8c-2.6-3-2-4.2-3-5.8c0.3-0.1,0.6-0.3,1-0.5c1.1,1.3,2.3,2.1,3.4,2.8c0.2,1,0.3,1.7,0.6,3h-0.1
		c0,0.3-0.1,0.6-0.1,0.9C42.6,28.9,41.8,28.9,41.5,28.8C41.5,28.8,41.5,28.8,41.5,28.8z"/>
	<path fill="#FFFFFF" d="M44.9,31.5C44.9,31.5,44.9,31.5,44.9,31.5c0,0.1,0,0.1-0.1,0.2c-0.1,0.1-0.2,0.3-0.4,0.5
		c-0.1,0.1-0.3,0.3-0.5,0.5c-0.1,0.1-0.1,0.1-0.1,0.1c-0.1,0.1-0.3,0.3-0.6,0.4c-0.1,0.1-0.2,0.2-0.3,0.2c0,0-0.1,0.1-0.1,0.1
		c-0.1,0.1-0.2,0.2-0.3,0.2c-0.2,0.1-0.4,0.1-0.6,0.1c-0.2,0-0.4-0.1-0.6-0.2c-0.4-0.2,0.1-0.2-0.4-0.6c-1-0.7-1.5-1.2-1.3-2.3
		c0,0,0-0.1,0-0.1c0-0.1,0-0.2,0.1-0.3c0-0.3,0.5-0.6,1-1c0.1,0,0.2,0,0.3,0c0,0,0.1,0,0.1,0c0.7,0,1.4,0.1,2,0.5
		c0.3,0.1,0.5,0.3,0.7,0.5c0.1,0.1,0.2,0.2,0.4,0.3C44.7,30.9,45,31.2,44.9,31.5z"/>
	<path fill="#FFFFFF" d="M45.7,24c-1.2,0.2-1.7,0.1-2.4-0.3c-0.7-0.4-1.8-1.5-2.5-2.3c0.7-0.8,1.1-2,1-3.5c0.1-0.1,0.2-0.3,0.3-0.4
		h0c0,0,0.1,0.1,0.1,0.1c0.5,0.6,1.6,1.4,3.1,1.9c-0.9-0.3-1.5,0.8-1.3,1.8C44.1,21.9,45,22.6,45.7,24z"/>
	<path fill="#FFFFFF" d="M45.7,24C45.7,24,45.7,24,45.7,24C45.7,24,45.7,24,45.7,24L45.7,24z"/>
	<path fill="#FFFFFF" d="M46.2,27.1c0,0.4,0,0.8-0.1,1.1c-0.7-0.3-1.2-0.6-1.4-0.8c-0.2-1-0.3-1.9-0.4-2.4c0.6-0.3,0.9-0.5,1.3-1
		C46,24.8,46.3,25.8,46.2,27.1z"/>
	<path fill="#FFFFFF" d="M46.3,28.3h-0.2v-0.1C46.2,28.2,46.3,28.3,46.3,28.3z"/>
	<path fill="#FFFFFF" d="M51.8,28.5c-0.2,0.2-0.4,0.4-0.7,0.6c-0.2,0.1-0.3,0.3-0.5,0.4c0,0,0,0,0,0c-0.5,0-0.9-0.1-1.3-0.1
		c-0.1,0-0.1,0-0.2,0c-0.5-0.1-1.1-0.3-1.7-0.6c-0.4-0.2-0.8-0.3-1.1-0.5C48.5,28.3,50.3,28.4,51.8,28.5z"/>
	<path fill="#FFFFFF" d="M34.7,13.8C34.3,14.3,34,15,34,15.7c0,0.1,0,0.1,0,0.2c-0.5,0.1-1.7,0.1-2.4,2c-0.1,0.2-0.1,0.4-0.2,0.6
		c-0.2,0.8-0.4,1.4-0.6,1.8c-1.4,0.6-3.6,1.6-5.9,2.7c0,0,0,0,0,0c-0.3,0.2-0.7,0.3-1,0.5h0c-1.1,0.5-2.2,1.1-3.4,1.7c0,0,0,0,0,0
		c-1.3,0.6-2.6,1.3-3.8,2c0,0,0,0,0,0c-0.4,0.2-0.7,0.3-0.9,0.5c0,0,0,0,0,0c0,0,0,0,0,0c-0.9,0.5-1.8,1-2.6,1.6c0,0,0,0,0,0
		c-0.1,0.1-0.2,0.1-0.4,0.2l0,0c-3.3,2.1-5.9,4.2-7.6,6.1c1.2-7.7,7.3-11.7,10.1-13.5C22.2,17.6,28.5,15.5,34.7,13.8z"/>
	<path fill="#FFFFFF" d="M13,29.1c-0.1,0.1-0.2,0.1-0.4,0.2l0,0C12.8,29.3,12.9,29.2,13,29.1z"/>
	<path fill="#FFFFFF" d="M15.7,27.5c0.2-0.1,0.6-0.3,0.9-0.5C16.3,27.2,16,27.4,15.7,27.5C15.7,27.5,15.7,27.5,15.7,27.5z"/>
	<path fill="#FFFFFF" d="M23.9,23.4c0.3-0.2,0.7-0.3,1-0.5C24.5,23.1,24.2,23.3,23.9,23.4C23.8,23.4,23.8,23.4,23.9,23.4
		c-0.2,0.1-0.4,0.3-0.5,0.4c-0.8,0.3-1.6,0.7-2.3,1.1c0,0,0,0,0,0c-0.2,0.1-0.4,0.2-0.5,0.2C21.6,24.5,22.8,23.9,23.9,23.4
		L23.9,23.4z"/>
	<path fill="#FFFFFF" d="M30.7,20.3C30.8,20.2,30.8,20.2,30.7,20.3C30.8,20.2,30.8,20.2,30.7,20.3c-0.5,0.2-2.8,1.2-5.9,2.7
		C27.2,21.8,29.4,20.8,30.7,20.3z"/>
	<path fill="#FFFFFF" d="M35.6,14L35.6,14C35.6,14,35.6,14,35.6,14C35.6,14,35.6,14,35.6,14z"/>
	<path fill="#FFFFFF" d="M35.9,13.5C35.9,13.5,35.9,13.6,35.9,13.5c-0.1,0.1-0.1,0.1-0.1,0.1C35.8,13.6,35.8,13.6,35.9,13.5
		C35.8,13.6,35.9,13.5,35.9,13.5z"/>
	<path fill="#FFFFFF" d="M41.8,16.7C41.8,16.7,41.8,16.7,41.8,16.7L41.8,16.7C41.8,16.6,41.8,16.6,41.8,16.7z"/>
	<polygon fill="#FFFFFF" points="42.1,17.4 42.1,17.4 42.1,17.4 	"/>
	<polygon fill="#FFFFFF" points="47,12.9 47,12.9 47,12.9 	"/>
	<path fill="#FFFFFF" d="M44.7,13c0,0-0.1,0-0.1,0c0,0,0,0,0,0H44.7z"/>
	<path fill="#FFFFFF" d="M48.2,12.9c-0.5-0.1-0.9-0.2-1.3-0.3c0,0.1,0,0.1,0.1,0.2c0,0,0,0,0,0c0,0,0,0,0,0c-0.1,0-0.2-0.1-0.3-0.1
		c0,0-0.1-0.1-0.1-0.1h0c-0.3,0-0.6,0-0.9,0.1c-0.2,0-0.4,0-0.7,0h-0.1c-0.1,0-0.2,0-0.3,0c-0.1,0-0.2,0-0.4,0c-0.3,0-0.6,0-1,0
		c-0.1,0-0.3,0-0.4,0c0,0,0,0-0.1,0c-0.1,0-0.2,0-0.2,0c-0.1,0-0.2,0-0.3,0c-0.1,0-0.2,0-0.4-0.1c-0.1,0-0.1-0.1-0.2-0.2
		c-0.2-0.1-0.4-0.2-0.6-0.3c0.3-0.1,0.7-0.2,1-0.3c0.2,0.1,0.3,0.3,0.4,0.4c-0.1-0.2-0.1-0.3-0.2-0.5c0.3-0.1,0.6-0.2,0.9-0.3
		c0.5-0.1,1.1-0.3,1.6-0.5c0,0,0.1,0,0.2,0c0.3-0.1,0.6-0.2,0.9-0.3c0.4-0.1,0.8-0.2,1.2-0.4c0.2,0,0.3-0.1,0.5-0.2
		c0.2-0.1,0.4-0.2,0.7-0.2c0,0.1,0,0.2,0.1,0.3c0,0.2,0.1,0.5,0.1,0.7c0.1,0.5,0.1,1,0.2,1.5c0,0,0,0,0,0c0,0,0,0,0,0.1
		c0,0.1,0,0.2,0,0.4v0c0,0,0,0,0,0C48.4,12.9,48.3,12.9,48.2,12.9z"/>
	<path fill="#FFFFFF" d="M55.5,33.7c0-0.1-0.1-0.3-0.1-0.4c0-0.1-0.1-0.2-0.1-0.4c0,0,0,0,0,0c0-0.1-0.1-0.3-0.1-0.4c0,0,0,0,0,0
		c0-0.2-0.1-0.3-0.1-0.5c0-0.2-0.1-0.4-0.1-0.7c-0.1,0.1-0.1,0.3-0.2,0.5c0,0.1-0.1,0.3-0.1,0.4c0,0.2,0.1,0.7,0.4,1.2
		C55.2,33.5,55.3,33.6,55.5,33.7c0,0.1,0,0.1,0,0.2C55.5,33.8,55.5,33.8,55.5,33.7z M55.2,12.8C55.2,12.8,55.2,12.8,55.2,12.8
		C55.2,12.8,55.2,12.8,55.2,12.8c-0.4-0.2-0.8-0.4-1.1-0.6h0c-0.4-0.2-0.7-0.4-0.9-0.4c-0.1,0-0.1-0.1-0.2-0.1c0,0,0,0,0,0
		c-0.4-0.2-0.3-0.3-0.4-1.2c0-0.6,0-1.4-0.1-2.2c0-0.7-0.1-1.3-0.1-1.5c0,0,0-0.1-0.1-0.1c0,0-0.1,0-0.1,0c0,0-0.1,0-0.1,0
		c0,0,0,0,0,0c-0.1,0-0.2,0-0.3-0.1c-0.3-0.1-0.8-0.1-1.3-0.1h-0.2c0,0-0.1,0-0.1,0H50c0,0,0,0-0.1,0h-0.5c0,0-0.1,0-0.1,0h-0.4
		c-0.1,0-0.2,0-0.3,0h0c0,0,0,0,0,0h0c-0.1,0-0.1,0-0.2,0h-0.2c-0.1,0-0.1,0-0.2,0h-0.2c-0.1,0-0.2,0-0.3,0h0c0,0-0.1,0-0.1,0
		c0,0-0.1,0-0.1,0c-0.1,0-0.1,0-0.2,0c0,0-0.1,0-0.1,0c0,0,0,0,0,0c0,0-0.1,0-0.1,0h-0.1c0,0-0.1,0-0.1,0c0,0,0,0-0.1,0
		c0,0-0.1,0-0.1,0c0,0,0,0-0.1,0c0,0,0,0-0.1,0h0c0,0-0.1,0-0.1,0h0c0,0-0.1,0-0.1,0c0,0,0,0,0,0c-0.1,0-0.2,0-0.3,0.1c0,0,0,0,0,0
		c0,0,0,0,0,0c0,0,0,0,0,0s0,0,0,0h0c0,0,0,0,0,0c0,0,0,0,0,0c0,0,0,0,0,0s0,0,0,0c0,0,0,0,0,0c-0.1,0-0.1,0-0.1,0.1c0,0,0,0,0,0
		c0,0.1,0,0.3-0.1,0.8l0,0.2c0,0.1,0,0.1,0,0.2c0,0.1,0,0.2,0,0.2c0,0,0,0,0,0c0,0,0,0,0,0v0c0.1,0.1,0.2,0.1,0.2,0.2
		c0.1,0.1,0.1,0.2,0.2,0.2c0,0.1,0,0.2,0,0.2c0,0.5-0.1,0.8-0.2,1.2c0,0.1,0.1,0.2,0.3,0.5c-0.3,0.1-0.6,0.2-0.9,0.3
		c-0.4-0.2-0.8-0.4-1.2-0.5c-0.3,0.1-0.8,0.3-0.8,0.3c0.1,0.2,0.2,0.5,0.3,0.7c0.2,0.3,0.5,0.7,0.8,0.9c0.1,0.1,0.2,0.2,0.3,0.3l0,0
		c0,0,0,0,0,0c0,0,0.1,0,0.1,0c0,0,0.1,0,0.1,0c0.1,0,0.1,0,0.2,0c0.1,0,0.2,0,0.3,0H45c0,0,0,0,0.1,0c0,0,0,0,0,0c0,0,0,0,0,0
		c0.1,0,0.1,0,0.2,0c0.1,0,0.2,0,0.4,0c0.3,0,0.6,0,0.9-0.1h0c0,0,0.1,0.1,0.1,0.1c0.1,0.1,0.2,0.1,0.3,0.2c0,0,0,0,0,0c0,0,0,0,0,0
		c0-0.1,0-0.1-0.1-0.2c0.5,0.1,0.8,0.2,1.3,0.3c0.1,0,0.2,0.1,0.3,0.1c0.2,0.1,0.5,0.1,0.9,0.2c0.7,0.1,1.1,0.1,1.5,0.1
		c0.2,0,0.4-0.1,0.7-0.2c0.5-0.1,1-0.3,1.8-0.4c0,0,0,0,0,0h0.2c0.1,0,0.2,0,0.3,0c0,0,0,0,0,0l0.1,0c0.2,0.1,0.2,0.1,0.3,0.2
		c0,0,0.1,0,0.1,0.1c0,0,0,0,0,0c0,0,0,0,0.1,0c0.1,0,0.2,0.1,0.3,0.1c0.1,0,0.2,0.1,0.3,0.1c0,0,0,0,0,0c0.1,0,0.2,0.1,0.2,0.1h0
		c0,0,0,0,0,0c0.1-0.1,0.1-0.2,0.2-0.2C55.6,13,55.4,12.9,55.2,12.8z M44.6,13C44.6,13,44.6,13,44.6,13c0,0,0.1,0,0.1,0H44.6z"/>
	<path fill="#FFFFFF" d="M47,12.8C47,12.8,47,12.8,47,12.8C46.9,12.8,46.9,12.8,47,12.8C46.9,12.8,47,12.8,47,12.8z"/>
	<path fill="#FFFFFF" d="M53.6,12.6h-0.2c0,0,0,0,0,0c-0.8,0.1-1.3,0.3-1.8,0.4c-0.2,0.1-0.4,0.1-0.7,0.2c-0.4,0.1-0.9,0.1-1.5-0.1
		c-0.3-0.1-0.6-0.1-0.9-0.2c-0.1,0-0.2-0.1-0.3-0.1c-0.5-0.1-0.9-0.2-1.3-0.3c0,0,0,0,0-0.1h0c-0.1-0.2-0.2-0.4-0.3-0.6
		c0-0.1-0.1-0.1-0.1-0.2c-0.1-0.2-0.2-0.3-0.3-0.5c-0.2-0.2-0.3-0.4-0.4-0.6c-0.2-0.2-0.4-0.4-0.3-0.5c0.1-0.4,0.1-0.7,0.2-1.2
		c0-0.1,0-0.2,0-0.2c0,0,0,0,0,0c0-0.1,0-0.2,0-0.3c0.1-0.9,0.1-1.6,0.1-1.6c0.1,0,0.2-0.1,0.3-0.1c1.4-0.4,5.2-0.2,5.7,0.2
		c0,0,0,0,0,0.1c0,0.3,0.1,0.9,0.2,1.6c0,0,0,0,0,0v0c0,0.1,0,0.3,0,0.4c0,0,0,0,0,0c0,0.4,0.1,0.8,0.1,1.2c0,0,0,0,0,0
		c0,0.5,0,0.8,0,1.1c0,0.3,0,0.5,0.2,0.7c0,0,0,0,0,0c0,0,0.1,0.1,0.1,0.1c0.3,0.1,0.6,0.2,0.8,0.4C53.3,12.5,53.4,12.6,53.6,12.6
		C53.5,12.6,53.5,12.6,53.6,12.6z"/>
	<g>
		<path fill="#FFFFFF" d="M52.5,8.4c-0.1,0.1-0.2,0.2-0.3,0.3v0C52.1,8.8,52,8.9,51.9,9c0,0,0,0,0,0c-0.5,0.5-1.1,0.9-1.5,1.1
			c-0.1,0-0.1,0.1-0.2,0.1c0,0,0,0,0,0c-0.3,0.1-0.8,0-1.4,0c-0.2,0-0.5,0-0.7,0c-0.1,0-0.3,0-0.4,0c-0.1,0-0.2,0-0.3,0
			c-0.3,0-0.5-0.1-0.6-0.2c-0.3-0.3-0.8-0.7-1.1-1.1c0,0-0.1-0.1-0.1-0.1c-0.2-0.2-0.3-0.3-0.5-0.5c0,0,0,0,0,0c0,0,0,0,0,0
			c0,0,0,0,0,0c0-0.2,0-0.3,0.1-0.5c0,0,0,0,0,0c0.1-0.5,0.1-0.9,0.1-1c0,0,0,0,0,0c0,0,0.1,0,0.1-0.1c0,0,0,0,0,0c0,0,0,0,0,0
			c0,0,0,0,0,0c0,0,0,0,0,0c0,0,0,0,0.1,0c0,0,0,0,0,0c0,0,0,0,0,0c0,0,0,0,0,0c0,0,0,0,0,0c0,0,0,0,0,0c0.1,0,0.2,0,0.3-0.1
			c0,0,0,0,0,0c0,0,0.1,0,0.1,0c0,0,0,0,0,0c0,0,0.1,0,0.1,0c0,0,0,0,0,0c0,0,0.1,0,0.1,0c0,0,0,0,0.1,0c0,0,0.1,0,0.1,0
			c0,0,0,0,0.1,0c0,0,0.1,0,0.1,0c0,0,0.1,0,0.1,0c0,0,0.1,0,0.1,0c0,0,0,0,0,0c0,0,0.1,0,0.1,0c0.1,0,0.1,0,0.2,0c0,0,0.1,0,0.1,0
			c0,0,0.1,0,0.1,0c0,0,0,0,0,0c0.1,0,0.2,0,0.3,0c0,0,0,0,0,0c0,0,0.1,0,0.1,0c0.1,0,0.1,0,0.2,0c0.1,0,0.1,0,0.2,0
			c0.1,0,0.1,0,0.2,0c0,0,0,0,0,0c0,0,0,0,0,0c0,0,0,0,0,0c0.1,0,0.2,0,0.3,0c0,0,0.1,0,0.1,0c0.1,0,0.2,0,0.3,0c0.1,0,0.1,0,0.2,0
			c0.1,0,0.3,0,0.4,0c0,0,0,0,0.1,0c0,0,0,0,0.1,0c0,0,0.1,0,0.1,0c0,0,0,0,0.1,0c0,0,0.1,0,0.1,0c0,0,0.1,0,0.1,0c0,0,0.1,0,0.1,0
			c0.5,0,1,0.1,1.3,0.1c0.3,0,0.5,0.1,0.6,0.2c0,0,0,0.1,0.1,0.1C52.4,7,52.4,7.7,52.5,8.4z"/>
		<path fill="#FFFFFF" d="M48.9,9.7c-0.5,0-1,0-1.5-0.1c-0.2,0-0.4-0.2-0.6-0.2c-0.3-0.2-0.6-0.4-0.9-0.7c-0.6-0.5-0.7-0.7-0.7-0.9
			c0.3-2.5-0.1-4.6-0.1-4.6S45,2.2,46.5,1.9s2.4-0.3,2.4-0.3s0.9,0,2.4,0.3c1.5,0.3,1.2,1.3,1.2,1.3s-0.4,2.1-0.1,4.6
			c0,0.1,0,0.4-0.7,0.9c-0.6,0.4-1,0.8-1.4,0.9C49.9,9.7,49.3,9.7,48.9,9.7z"/>
		<path fill="#FFFFFF" d="M52.8,2.2c-0.7-0.9-1.3-1.5-4-1.6c-2.6,0-3.1,0.7-3.9,1.5c0,0,0,0,0,0.1c0,0.1,0,0.2,0,0.3v0.1
			c0,0.6,0.1,1.7,0.3,3.4h0.4c0,0-0.2-0.7-0.2-1.5c0-0.8,0.2-0.8,0.1-1c-0.2-0.2-0.5-0.6,0.2-1c0.1,0,0.1-0.1,0.2-0.1h0
			c0.7-0.2,1.7,0.4,2.9,0.4c1.2,0,2.3-0.6,3-0.4c0.1,0,0.1,0,0.2,0.1c0.2,0.1,0.4,0.3,0.4,0.4c0,0.1,0,0.1,0,0.1
			c0,0.2-0.1,0.4-0.2,0.5c-0.1,0.2,0,0.2,0.1,0.8v0c0,0,0,0,0,0v0.1c0,0.3,0,0.7-0.1,0.9v0.1c0,0,0,0,0,0v0c0,0,0,0,0,0c0,0,0,0,0,0
			s0,0,0,0c0,0.2-0.1,0.4-0.1,0.4h0.4C52.8,3.5,52.9,2.4,52.8,2.2z M55,31.2c0,0,0-0.1,0-0.2c-0.1,0.1-0.1,0.3-0.2,0.5
			c0,0,0,0.1,0,0.1c0,0.1,0.2,0.1,0.3,0.2C55,31.7,55,31.5,55,31.2z"/>
		<path fill="#FFFFFF" d="M57.2,14.9c0,0-0.1,0-0.1-0.1C57.1,14.8,57.2,14.8,57.2,14.9z"/>
		<path fill="#FFFFFF" d="M59,14.4c0,0-0.6-0.1-1.9,0.1c0,0,0,0-0.1,0c0,0-0.1-0.1-0.1-0.1c0,0,0,0,0,0c0,0,0,0,0,0
			c-0.1-0.1-0.2-0.2-0.2-0.2h0c0.4,0,1.1-0.1,1.8,0.1C58.7,14.3,58.9,14.3,59,14.4L59,14.4C59,14.4,59,14.4,59,14.4z"/>
	</g>
	<path fill="#FFFFFF" d="M55.2,32.4c0,0.2,0.1,0.3,0.1,0.5C55.1,32.7,55.1,32.5,55.2,32.4C55.2,32.4,55.2,32.4,55.2,32.4z"/>
	<path fill="#FFFFFF" d="M57.2,14.9c0,0-0.1,0-0.1-0.1C57.1,14.8,57.2,14.8,57.2,14.9z"/>
	<path fill="#FFFFFF" d="M61.2,30.8C61.2,30.8,61.1,30.8,61.2,30.8c-0.1,0.1-0.1,0.2-0.2,0.2c0,0,0-0.1,0-0.1c0,0,0,0.1,0,0.2
		c-0.2,0.6-0.4,1.7-1.5,2.8c-0.2,0.3-0.5,0.4-0.7,0.5c-0.3,0.1-0.6,0-1-0.1c-0.6-0.2-0.9-0.4-1.6-0.8c-0.1-0.4-0.2-0.8-0.2-1.2
		c0-0.2-0.1-0.4-0.1-0.5c0-0.1,0-0.4,0-0.7c0.1-0.1,0.2-0.2,0.3-0.3c0,0,0.5-0.7,1.3-0.7c0.8,0,1.5-0.1,1.7-0.3c0,0,0-0.1,0-0.1
		v-0.1c0-0.1,0-0.2,0-0.2c-0.3-1-1.5-1.3-1-3.3c0-0.1,0.1-0.2,0.5-0.3c0.1,0,0.2,0,0.4-0.1c-0.9-0.2-1.4-0.2-2-0.9c0,0,0,0,0,0
		c0.3-0.7,0.6-1.2,0.8-1.6c0-0.1,0-0.1,0.1-0.1c0.5-1.1,0.2-2.5,0.2-2.5c0.6-0.2,1.1-0.5,1.2-0.7c0.6-1.9-0.5-3.8-1.7-5
		c0.8-0.1,1.8,0.1,2.5,0.8c1.7,1.7,1.2,3.5,0.7,4.7c0.4,0.5,1.5,2,0.8,3.7c-0.1,0.4-1,0.4-1.6,1.4c1.6-0.9,2.6-0.7,2.9,0.5
		C63.3,27.5,62.2,29.5,61.2,30.8z"/>
	<path fill="#FFFFFF" d="M35.9,13.5C35.9,13.5,35.9,13.6,35.9,13.5c-0.1,0.1-0.1,0.1-0.1,0.1C35.8,13.6,35.8,13.6,35.9,13.5
		C35.8,13.6,35.9,13.5,35.9,13.5z"/>
	<path fill="#FFFFFF" d="M39.6,12.4c0,0-0.1,0-0.1-0.1L39.6,12.4C39.6,12.3,39.6,12.3,39.6,12.4z"/>
	<path fill="#FFFFFF" d="M44.7,13c0,0-0.1,0-0.1,0c0,0,0,0,0,0H44.7z"/>
	<path fill="#FFFFFF" d="M47,12.8C47,12.8,47,12.8,47,12.8c-0.1,0-0.2-0.1-0.3-0.2c0,0-0.1-0.1-0.1-0.1h0c-0.3,0-0.6,0-0.9,0.1
		c-0.2,0-0.4,0-0.7,0h-0.1c-0.1,0-0.2,0-0.3,0c-0.1,0-0.2,0-0.4,0c-0.3,0-0.6,0-1,0c-0.1,0-0.3,0-0.4,0c0,0,0,0-0.1,0
		c-0.1,0-0.2,0-0.2,0c-0.1,0-0.2,0-0.3,0c-0.1,0-0.2,0-0.4-0.1c-0.1,0-0.1-0.1-0.2-0.2c-0.2-0.1-0.4-0.2-0.6-0.3
		c-0.5-0.2-1.1-0.3-1.8-0.3c0.6-0.3,1-0.7,1.6-0.6c0.4,0.1,0.9,0.3,1.2,0.6c0.2,0.1,0.3,0.3,0.4,0.4c-0.1-0.2-0.1-0.3-0.2-0.5
		c-0.1-0.1-0.2-0.3-0.3-0.4c0.3-0.2,0.5-0.5,0.9-0.6c0,0,0.5-0.3,0.8-0.3c0.5,0.2,0.9,0.3,1.2,0.5c0.3,0.2,0.6,0.4,0.9,0.6
		c0,0,0,0,0.1,0.1c0,0,0,0,0.1,0c0.3,0.3,0.6,0.5,0.8,0.8c0,0,0.1,0.1,0.1,0.1c0,0,0,0,0,0s0,0,0,0c0,0,0,0,0,0
		C46.9,12.7,46.9,12.7,47,12.8C46.9,12.8,47,12.8,47,12.8z"/>
	<path fill="#FFFFFF" d="M44.7,13c0,0-0.1,0-0.1,0c0,0,0,0,0,0H44.7z"/>
	<path fill="#FFFFFF" d="M46.5,12.5c-0.3,0-0.6,0-0.9,0.1c-0.2,0-0.4,0-0.7,0h0c0,0-0.1,0-0.1,0c-0.2,0-0.4,0-0.7,0
		c-0.3,0-0.6,0-1,0c-0.1,0-0.3,0-0.4,0h0c0,0,0,0-0.1,0c-0.3,0-0.7-0.1-0.9-0.1c-0.1-0.1-0.1-0.1-0.2-0.1c0,0,0,0,0,0c0,0,0,0,0,0
		c0,0,0,0,0,0c-0.2-0.1-0.4-0.2-0.6-0.3c-0.5-0.2-1.1-0.3-1.8-0.3c0.6-0.3,1-0.7,1.6-0.6c0.4,0.1,0.8,0.3,1.2,0.6
		c0.2,0.1,0.3,0.3,0.4,0.4c-0.1-0.2-0.1-0.3-0.2-0.5c-0.1-0.1-0.2-0.3-0.3-0.4c0.3-0.2,0.5-0.5,0.9-0.6c0.1-0.1,0.3-0.1,0.4-0.1
		c0.6,0.1,1.1,0.2,1.5,0.3c0.4,0.1,0.6,0.3,0.9,0.5c0,0,0,0,0.1,0c0,0,0.1,0.1,0.1,0.1c0.3,0.2,0.4,0.5,0.7,0.7
		C46.4,12.4,46.4,12.5,46.5,12.5C46.5,12.5,46.5,12.5,46.5,12.5C46.5,12.5,46.5,12.5,46.5,12.5z"/>
	<polygon fill="#FFFFFF" points="47,12.9 47,12.9 47,12.9 	"/>
	<path fill="#FFFFFF" d="M59,14.4c0,0-0.6-0.1-1.9,0.1c0,0,0,0-0.1,0c0,0-0.1-0.1-0.1-0.1c0,0,0,0,0,0c0,0,0,0,0,0
		c-0.1-0.1-0.2-0.2-0.2-0.2c-0.4-0.3-0.8-0.6-1.3-0.8c-0.1,0-0.2-0.1-0.3-0.1c0,0,0,0,0,0c-0.2-0.1-0.5-0.1-0.6-0.2c0,0,0,0-0.1,0
		c0,0,0,0,0,0c0,0,0,0,0-0.1l0,0c0-0.1,0-0.2,0-0.2c0-0.1-0.3-0.3-0.3-0.4l-0.1-0.1c0,0,0,0,0.1,0c0.1-0.1,0.3-0.1,0.6-0.2
		c0,0,0,0,0,0h0c0.1,0,0.3,0,0.4,0.1c0.5,0.2,0.8,0.8,0.8,0.8c0.9-0.3,1,0,1.4,0.5C58.3,13.2,58.4,13.5,59,14.4L59,14.4
		C59,14.4,59,14.4,59,14.4z"/>
	<path fill="#FFFFFF" d="M58.5,14.3c-0.3,0-0.8,0-1.5,0.1c0,0,0,0,0,0c0,0,0,0,0,0c0,0,0,0,0,0c-0.1-0.1-0.2-0.2-0.2-0.2
		c-0.4-0.3-0.8-0.6-1.3-0.8c-0.1,0-0.2-0.1-0.3-0.1c0,0,0,0,0,0c-0.2-0.1-0.5-0.1-0.6-0.2c0,0,0.1,0,0.1,0h0
		c0.2-0.1,0.4-0.2,0.6-0.2c0,0,0,0,0,0c0.2,0,0.4,0.1,0.6,0.5c0.9-0.3,1,0.1,1.5,0.6C58.3,13.4,58.4,14,58.5,14.3
		C58.5,14.3,58.5,14.3,58.5,14.3z"/>
	<path fill="#FFFFFF" d="M48.3,50.9c0,0,0.1,0,0.1,0c0,0,0,0,0.1,0c0,0,0.1,0,0.1,0c-0.1,0-0.1,0-0.2,0c0.1,0,0.1,0,0.2,0
		c0.1,0,0.2,0,0.2,0c0.4,0.1,0.9,0.1,1.5,0.2c0.2,0,0.4,0,0.6,0c0.2,0,0.5,0,0.8,0v0h0.1c0.2,0,0.4,0,0.6,0c0,0,0,0,0.1,0
		c0.1,0,0.2,0,0.4,0c0.2,0,0.5,0,0.7-0.1c0.1,0,0.2,0,0.3,0c0,0,0,0,0,0c0.1,0,0.2,0,0.4,0v0c0.1-0.4,0.2-0.7,0.3-1
		c0.2-0.5,0.4-1.1,0.4-1.5c0.1-0.8,0.1-1.5,0-2.2c2.4-2.6,1.4-7.7,0.8-11.6c0,0,0,0,0,0c0-0.2-0.1-0.4-0.1-0.7c0,0,0-0.1,0-0.2
		l-0.1,0l-4.6,0.8l-0.1,0l-1.8,0.3l-1,0.2V35c0,0.1,0,0.2,0,0.4c0,0.4,0,0.8,0,1.2v0.1c0,2.7,0.3,4.7,0.6,6.2
		c0.1-0.3,0.3-0.6,0.4-0.9c0.2-0.5,0.4-1.1,0.5-1.7c0.3-0.9,0.6-2.2,0.9-3.3c0.1,0,0.2,0,0.3,0h0.1c-0.5,2.4-0.4,4.3-1.4,6.3
		c0.7,1.9,1.4,2.8,1.5,5.4C49.5,48.7,48.6,49.8,48.3,50.9 M50.4,37c0,0-0.1,0-0.2,0v0c0.1-0.2,0.1-0.4,0.2-0.6
		c0-0.1,0.1-0.2,0.1-0.3c0.1-0.2,0.1-0.3,0.2-0.5c0.1-0.1,0.1-0.3,0.2-0.4c0,0,0.1-0.1,0.1-0.1c-0.1,0.4-0.2,0.8-0.3,1.1v0l-0.2,0.6
		C50.6,36.9,50.5,36.9,50.4,37z M49.7,51.2 M48.7,51L48.7,51C48.7,51,48.8,51,48.7,51c0.1,0,0.1,0,0.2,0c0,0,0,0,0,0
		c0,0,0.1,0,0.1,0h0C49,51,48.9,51,48.7,51C48.8,51,48.7,51,48.7,51z M49.3,55.2c-0.2-0.3-0.4-0.7-0.6-1.1c-0.1,0-0.1,0-0.2,0
		C48.7,54.5,49,54.9,49.3,55.2c0,0.1,0.1,0.2,0.1,0.2C49.4,55.4,49.3,55.3,49.3,55.2z M47.4,51.4c0,0.1,0,0.2,0,0.3
		c0,0.1,0,0.2,0,0.4C47.4,51.8,47.4,51.6,47.4,51.4C47.4,51.4,47.4,51.4,47.4,51.4z M52.4,51.7c0,0-0.1,0-0.1,0c0.1,0,0.2,0,0.4,0
		C52.5,51.7,52.5,51.7,52.4,51.7z M44.6,13C44.6,13,44.6,13,44.6,13c0,0,0.1,0,0.1,0H44.6z M50.8,13.2c-0.7-0.2-1.5-0.3-2.3-0.3
		c0,0-0.1,0-0.1,0c0,0,0,0,0,0c-0.1,0-0.1,0-0.2,0c0.1,0,0.2,0.1,0.3,0.1c0.2,0.1,0.5,0.1,0.9,0.2c0.7,0.1,1.1,0.1,1.5,0.1
		C50.9,13.2,50.8,13.2,50.8,13.2z M55,29.8c-0.1,0-0.1,0-0.2,0c-0.5,0.1-1.6,0.2-3,0.2c-0.5,0-1.1,0-1.6-0.1c-0.4,0-0.8-0.1-1.3-0.1
		c-0.4-0.1-0.8-0.1-1.2-0.3c-0.2-0.1-0.4-0.1-0.5-0.1c-0.2,0-0.3-0.1-0.5-0.1c-0.1,0-0.2,0-0.3-0.1c-0.1,0-0.2-0.1-0.3-0.1
		c0,0,0,0,0,0h0c-0.2,0-0.3-0.1-0.4-0.1s-0.2-0.1-0.3-0.1c-0.1,0-0.2-0.1-0.2-0.1c-0.1,0-0.1-0.1-0.2-0.1c-0.1,0-0.1-0.1-0.1-0.1
		c0,0,0,0,0,0c0,0.1,0,0.3-0.1,0.5c0,0.2,0,0.4-0.1,0.5c0,0,0,0,0,0c0.4,0,0.9,0,1.3,0.1c1.4,0.1,2.7,0.2,4,0.4h0
		c1.8,0.2,3.5,0.5,4.9,0.6c0-0.2,0-0.4,0-0.7C54.9,30,54.9,30,55,29.8C55,29.9,55,29.8,55,29.8z M57,14.4L57,14.4
		C57,14.4,57,14.4,57,14.4c0,0.1,0.1,0.1,0.1,0.1c0,0,0,0,0.1,0C57.1,14.5,57,14.4,57,14.4z M44,21.2c-0.2-1,0.4-2,1.3-1.8
		c-1.5-0.5-2.6-1.3-3.1-1.9c0,0-0.1-0.1-0.1-0.1h0c-0.1,0.1-0.2,0.3-0.3,0.4c0.2,1.5-0.3,2.7-1,3.5c0.7,0.8,1.8,2,2.5,2.4
		c0.7,0.4,1.2,0.5,2.4,0.3C45,22.6,44.1,21.9,44,21.2z M45.7,24C45.7,24,45.7,24,45.7,24S45.7,24,45.7,24L45.7,24z M45.7,24
		c-0.4,0.5-0.7,0.7-1.3,1c0,0.5,0.2,1.4,0.4,2.4c0.2,0.2,0.8,0.5,1.4,0.8c0-0.3,0.1-0.7,0.1-1.1C46.3,25.8,46,24.8,45.7,24z
		 M46.2,28.2L46.2,28.2l0.2,0.1C46.3,28.3,46.2,28.2,46.2,28.2z M55.6,25c-0.5,0.7-1.1,1.4-1.9,2.1c-0.6,0.5-1.2,0.9-1.9,1.5
		c-1.5-0.1-3.4-0.2-5.5-0.2c0.3,0.2,0.7,0.3,1.1,0.5c0.6,0.2,1.2,0.5,1.7,0.6c0.1,0,0.2,0,0.2,0.1c0.1,0,0.2,0,0.3,0
		c0.2,0,0.4,0,0.6,0.1c0.1,0,0.2,0,0.4,0c0.2,0,0.4,0,0.6,0h0.1c1.4,0,3-0.1,3.6-0.2h0c0,0,0,0,0.1,0v0c0,0,0,0,0,0
		C55,27.4,55.2,26,55.6,25z M41.8,16.6L41.8,16.6L41.8,16.6C41.8,16.6,41.8,16.6,41.8,16.6z"/>
	<path fill="#FFFFFF" d="M49.7,56.1c0-0.1-0.1-0.2-0.1-0.3c0-0.1-0.1-0.3-0.2-0.4c0.1,0.1,0.1,0.3,0.2,0.4
		C49.6,56,49.7,56.1,49.7,56.1c0.2,0.6,0.4,1.4,0.6,2.2C50.1,57.6,50,56.8,49.7,56.1z M52.4,51.7c0,0-0.1,0-0.1,0c0.1,0,0.2,0,0.4,0
		C52.5,51.7,52.5,51.7,52.4,51.7z M55.7,34.5C55.7,34.5,55.7,34.5,55.7,34.5c0-0.2-0.1-0.4-0.2-0.7c0,0,0-0.1,0-0.2
		c0-0.1-0.1-0.3-0.1-0.4l-0.2,0.1l-4.4,1l-0.1,0l-1.7,0.4l-1,0.2l0,0c0,0.1,0,0.2,0,0.4c0,0.4,0.1,0.8,0.1,1.2c0,0,0,0.1,0,0.1
		c0.2,2.4,0.5,4,0.9,5.2c0.2-0.5,0.4-1.1,0.5-1.7c0.3-0.9,0.6-2.2,0.9-3.3c0.1,0,0.2,0,0.3,0h0.1c-0.5,2.4-0.4,4.3-1.4,6.3
		c0.7,1.9,1.4,2.8,1.5,5.4c-1.3,0-2.1,1-2.5,2.1c0,0,0,0,0,0c0,0,0.1,0,0.1,0c0,0,0,0,0.1,0c0,0,0.1,0,0.1,0c-0.1,0-0.1,0-0.2,0
		c0.1,0,0.1,0,0.2,0c0.1,0,0.2,0,0.2,0c0.4,0.1,0.9,0.1,1.5,0.2c0.2,0,0.4,0,0.6,0c0.2,0,0.5,0,0.8,0c0,0,0.1,0,0.1,0
		c0.2,0,0.4,0,0.6,0c0,0,0,0,0.1,0c0.1,0,0.2,0,0.4,0c0.2,0,0.5,0,0.7-0.1c0.1,0,0.2,0,0.3,0c0,0,0,0,0,0c0.1,0,0.2,0,0.4,0v0
		c0.1-0.4,0.2-0.7,0.3-1c0.2-0.5,0.4-1.1,0.4-1.5c0.1-0.8,0.1-1.5,0-2.2C57.3,43.5,56.3,38.4,55.7,34.5z M50.4,37c0,0-0.1,0-0.2,0v0
		c0.1-0.2,0.1-0.4,0.2-0.6c0-0.1,0.1-0.2,0.1-0.3c0.1-0.2,0.1-0.3,0.2-0.5c0.1-0.1,0.1-0.3,0.2-0.4c0,0,0.1-0.1,0.1-0.1
		c-0.1,0.4-0.2,0.8-0.3,1.1v0l-0.2,0.6C50.6,36.9,50.5,36.9,50.4,37z M48.7,51L48.7,51C48.7,51,48.8,51,48.7,51c0.1,0,0.1,0,0.2,0
		c0,0,0,0,0,0c0,0,0.1,0,0.1,0h0C49,51,48.9,51,48.7,51C48.8,51,48.7,51,48.7,51z M41.8,16.6L41.8,16.6L41.8,16.6
		C41.8,16.6,41.8,16.6,41.8,16.6z M55.6,25c-0.5,0.7-1.1,1.4-1.9,2.1c-0.6,0.5-1.2,0.9-1.9,1.5c-1.5-0.1-3.4-0.2-5.5-0.2
		c0.3,0.2,0.7,0.3,1.1,0.5c1.3,0.1,2.5,0.2,3.7,0.3c1.1,0.1,2.3,0.2,3.8,0.2h0c0,0,0,0,0.1,0v0c0,0,0,0,0,0C55,27.4,55.2,26,55.6,25
		z M46.2,28.2L46.2,28.2l0.2,0.1C46.3,28.3,46.2,28.2,46.2,28.2z M45.7,24c-0.4,0.5-0.7,0.7-1.3,1c0,0.5,0.2,1.4,0.4,2.4
		c0.2,0.2,0.8,0.5,1.4,0.8c0-0.3,0.1-0.7,0.1-1.1C46.3,25.8,46,24.8,45.7,24z M44,21.2c-0.2-1,0.4-2,1.3-1.8
		c-1.5-0.5-2.6-1.3-3.1-1.9c0,0-0.1-0.1-0.1-0.1h0c-0.1,0.1-0.2,0.3-0.3,0.4c0.2,1.5-0.3,2.7-1,3.5c0.7,0.8,1.8,2,2.5,2.4
		c0.7,0.4,1.2,0.5,2.4,0.3C45,22.6,44.1,21.9,44,21.2z M44.2,12.7c-0.3,0-0.6,0-0.9,0c-0.1,0-0.1,0-0.2,0c0.1,0,0.1,0,0.2,0
		c0.1,0,0.3,0,0.4,0C43.8,12.7,44,12.7,44.2,12.7c0.1,0,0.1,0,0.1,0c0,0,0.1,0,0.1,0c0.1,0,0.1,0,0.2,0
		C44.4,12.7,44.3,12.7,44.2,12.7z M44.6,13C44.6,13,44.6,13,44.6,13c0,0,0.1,0,0.1,0H44.6z M51.5,13c-0.3-0.1-0.5-0.2-0.8-0.3l0,0h0
		c-0.6-0.2-1.2-0.2-1.9-0.3h-0.1c-0.1,0-0.2,0-0.2,0c-0.5,0-1.1,0-1.6,0c0,0,0,0,0,0c0,0,0,0,0,0c0,0,0,0,0,0h-0.1
		c-0.1,0-0.1,0-0.2,0c0,0,0,0,0,0c0,0,0.1,0.1,0.1,0.1c0.1,0.1,0.2,0.1,0.3,0.2c0,0,0,0,0,0c0,0,0,0,0,0c0-0.1,0-0.1-0.1-0.2
		c0.5,0.1,0.8,0.2,1.3,0.3c0.1,0,0.2,0.1,0.3,0.1c0.2,0.1,0.5,0.1,0.9,0.2c0.7,0.1,1.1,0.1,1.5,0.1C51.1,13.2,51.3,13.1,51.5,13
		C51.5,13.1,51.5,13,51.5,13z"/>
	<path fill="#FFFFFF" d="M57,20.6c0,0.5-0.1,1.2-0.3,1.9c-0.1,0.1-0.1,0.3-0.2,0.4c-0.1,0.2-0.2,0.4-0.3,0.7
		c-0.1,0.2-0.2,0.4-0.3,0.6c-0.1,0.2-0.2,0.5-0.3,0.7c-0.5,0.7-1.1,1.4-1.9,2c-0.6,0.5-1.2,0.9-1.9,1.5c-1.5-0.1-3.4-0.2-5.5-0.2
		c0,0-0.1,0-0.2-0.1c0-0.3,0-0.7,0.1-1.1c0-1.3-0.2-2.4-0.6-3.1c0,0,0,0,0,0h0c-0.6-1.4-1.5-2.1-1.7-2.8c-0.2-1,0.4-2,1.3-1.8
		c0,0,0.1,0,0.1,0c0.8,0.2,1.3,0.1,2-0.1c2.8-0.7,5.6-0.9,8.2-0.1c0.1,0,0.2,0,0.2,0.1c0.3,0.1,0.6,0.2,0.9,0.4c0,0,0.1,0,0.1,0.1
		C57,20,57,20.3,57,20.6z"/>
	<path fill="#FFFFFF" d="M44.9,31.5C44.9,31.5,44.9,31.5,44.9,31.5c0,0.1,0,0.1-0.1,0.2c-0.1,0.1-0.2,0.3-0.4,0.5
		c-0.1,0.1-0.3,0.3-0.5,0.5c-0.1,0.1-0.1,0.1-0.1,0.1c-0.1,0.1-0.3,0.3-0.6,0.4c-0.1-0.1-0.1-0.1-0.2-0.2c-0.3-0.3-0.5-0.5-0.6-0.6
		v0c0,0,0,0,0,0c0.1-0.5,0.5-1.8,0.7-2.6c0.3,0.1,0.5,0.3,0.7,0.5c0.1,0.1,0.2,0.2,0.4,0.3C44.7,30.9,45,31.2,44.9,31.5z"/>
	<path fill="#FFFFFF" d="M49.4,29.4c-0.1,0-0.1,0-0.2,0c0.5,0,1,0.1,1.5,0.1c0.2,0,0.3,0,0.5,0c-0.2,0-0.4,0-0.6,0
		C50.2,29.5,49.7,29.4,49.4,29.4z"/>
	<path fill="#FFFFFF" d="M55.6,34.5c-0.8,0.8-2.4,1.8-4.8,2.3c0,0-0.1,0-0.1,0c0,0,0,0-0.1,0l0.2-0.6v0c0.1-0.4,0.2-0.7,0.3-1.1
		c0,0-0.1,0.1-0.1,0.1c-0.1,0.1-0.2,0.2-0.2,0.4c-0.1,0.1-0.1,0.3-0.2,0.5c0,0.1-0.1,0.2-0.1,0.3c-0.1,0.2-0.1,0.4-0.2,0.6v0
		c-0.2,0-0.3,0-0.5,0c-0.6,0-1.2-0.2-1.8-0.4c0,0-0.1,0-0.1,0c-0.3-0.1-0.6-0.2-0.8-0.4c-0.4-0.2-0.8-0.5-1.2-0.8
		c-0.8-0.6-1.5-1.2-2.1-1.8c0.1,0,0.1-0.1,0.2-0.1c0,0,0.1-0.1,0.2-0.1c0.1-0.1,0.1-0.1,0.2-0.2c0,0,0.1-0.1,0.1-0.1
		c0.1,0,0.1-0.1,0.1-0.1c0.2-0.3,0.5-0.5,0.6-0.6c0.3-0.3,0.5-0.3,0.5-0.6v0c0,0,0,0,0,0c0,0,0-0.1,0-0.1c0-0.1,0-0.2-0.1-0.4
		c-0.2-0.4-0.7-0.8-1-1c0,0-0.1-0.1-0.1-0.1c0-0.1,0.1-0.2,0.1-0.3c0,0,0,0,0,0c0-0.2,0-0.4,0.1-0.5c0.4,0,0.8,0,1.3,0h0
		c0,0,0,0,0,0c0.1,0,0.2,0.1,0.3,0.1c0.1,0,0.2,0.1,0.3,0.1c0.1,0,0.3,0.1,0.5,0.1c0.2,0,0.3,0.1,0.5,0.1c0.4,0.1,0.8,0.2,1.2,0.3
		c0.4,0.1,0.8,0.1,1.3,0.1c0.6,0,1.1,0.1,1.6,0.1c1.3,0,2.4-0.1,3-0.2c0.1,0,0.2,0,0.2,0c0,0.1,0,0.2,0,0.2c0,0.2,0,0.5,0,0.7
		c0,0.1,0,0.2,0,0.3c0,0,0,0.1,0,0.2c0,0.2,0.1,0.5,0.1,0.7c0,0.2,0.1,0.3,0.1,0.5c0,0,0,0,0,0c0,0.2,0.1,0.3,0.1,0.4c0,0,0,0,0,0
		c0,0.1,0.1,0.3,0.1,0.4c0,0.2,0.1,0.3,0.1,0.4c0,0.1,0,0.1,0,0.2C55.6,34.1,55.6,34.3,55.6,34.5z"/>
	<path fill="#FFFFFF" d="M44.9,31.3c0,0,0-0.1,0-0.1c0,0,0-0.1-0.1-0.1c0,0-0.1-0.1-0.1-0.1l-0.2-0.2c0,0-0.1-0.1-0.1-0.1
		c0,0,0-0.1-0.1-0.1c0,0,0,0,0,0c-0.1,0.4-0.2,0.7-0.3,1.1v0c0,0,0,0,0,0c0,0.2-0.1,0.5-0.2,0.7c0,0,0,0.1,0.1,0.2v0
		c0.2-0.2,0.4-0.4,0.5-0.5v0c0.1-0.1,0.2-0.2,0.3-0.4c0,0,0.1-0.1,0.1-0.1c0,0,0-0.1,0.1-0.1c0,0,0-0.1,0-0.1c0,0,0,0,0-0.1
		C44.9,31.4,44.9,31.3,44.9,31.3z M55,28.8c-0.8-0.1-1.8-0.2-3.1-0.3c-1.5-0.1-3.4-0.2-5.5-0.2c0.3,0.2,0.7,0.3,1.1,0.5
		c0.6,0.2,1.2,0.5,1.7,0.6c0.1,0,0.2,0,0.2,0.1c0.1,0,0.2,0,0.3,0c0.2,0,0.4,0,0.6,0.1c0.1,0,0.2,0,0.4,0c0.2,0,0.4,0,0.6,0h0.1
		c1.4,0,3-0.1,3.6-0.2h0v0C55,29.1,55,28.9,55,28.8z M55.6,34.5c0-0.2-0.1-0.4-0.1-0.7c0,0,0-0.1,0-0.2c0-0.1-0.1-0.3-0.1-0.4
		c0-0.1-0.1-0.2-0.1-0.4c0,0,0,0,0,0c0-0.1-0.1-0.3-0.1-0.4c0,0,0,0,0,0c0-0.2-0.1-0.3-0.1-0.5c0-0.2-0.1-0.4-0.1-0.7
		c0,0,0-0.1,0-0.2c0-0.1,0-0.2,0-0.3c0-0.2,0-0.4,0-0.7c0,0,0-0.1,0-0.2c0,0,0,0,0-0.1c-0.1,0-0.1,0-0.2,0c-0.5,0.1-1.6,0.2-3,0.2
		c-0.5,0-1.1,0-1.6-0.1c-0.4,0-0.8-0.1-1.3-0.1c-0.4-0.1-0.8-0.1-1.2-0.3c-0.2-0.1-0.4-0.1-0.5-0.1c-0.2,0-0.3-0.1-0.5-0.1
		c-0.1,0-0.2,0-0.3-0.1c-0.1,0-0.2-0.1-0.3-0.1c0,0,0,0,0,0h0c-0.2,0-0.3-0.1-0.4-0.1s-0.2-0.1-0.3-0.1c-0.1,0-0.2-0.1-0.2-0.1
		c-0.1,0-0.1-0.1-0.2-0.1c-0.1,0-0.1-0.1-0.1-0.1c0,0,0,0,0,0c0,0.1,0,0.3-0.1,0.5c0,0.2,0,0.4-0.1,0.5c0,0,0,0,0,0
		c0,0.1-0.1,0.2-0.1,0.3c0,0,0.1,0.1,0.1,0.1c0.2,0.3,0.7,0.6,1,1c0.1,0.1,0.1,0.2,0.1,0.4c0,0,0,0.1,0,0.1c0,0,0,0,0,0v0
		c-0.1,0.3-0.3,0.4-0.5,0.6c-0.1,0.1-0.3,0.3-0.6,0.6c0,0-0.1,0.1-0.1,0.1c0,0-0.1,0.1-0.1,0.1c0.4,0.5,0.9,1.3,1.6,2
		c0.3,0.3,0.7,0.7,1.1,1c0.3,0.2,0.5,0.4,0.8,0.5c0,0,0.1,0,0.1,0.1c0.7,0.3,1.4,0.5,2.2,0.3h0.1c0.1,0,0.2,0,0.3,0h0.2
		c2.3,0,4.8,0.1,4.8-2C55.7,34.9,55.7,34.7,55.6,34.5z M50.4,37c0,0-0.1,0-0.2,0v0c0.1-0.2,0.1-0.4,0.2-0.6c0-0.1,0.1-0.2,0.1-0.3
		c0.1-0.2,0.1-0.3,0.2-0.5c0.1-0.1,0.1-0.3,0.2-0.4c0,0,0.1-0.1,0.1-0.1c-0.1,0.4-0.2,0.8-0.3,1.1v0l-0.2,0.6
		C50.6,36.9,50.5,36.9,50.4,37z"/>
	<path fill="#FFFFFF" d="M44.8,31.6c-0.2,0-0.5,0-0.8,0c-0.2,0-0.3,0-0.5,0.1c-0.3,0-0.5,0.1-0.8,0.1c-0.1,0.2-0.1,0.3-0.2,0.5
		c-0.2,0.5-0.3,0.9-0.5,1.4v0c0.1,0,0.1,0,0.2,0c0.1,0,0.1,0,0.2,0c0.1,0,0.1,0,0.2-0.1c0,0,0.1,0,0.1-0.1v0c0,0,0,0,0.1-0.1
		c0,0,0,0,0.1-0.1c0,0,0.1-0.1,0.1-0.1c0,0,0.2-0.1,0.3-0.2c0,0,0.1-0.1,0.2-0.1c0.1-0.1,0.2-0.2,0.3-0.2c0,0,0.1,0,0.1-0.1
		c0,0,0,0,0.1-0.1c0,0,0,0,0.1-0.1c0.2-0.2,0.4-0.4,0.5-0.5v0c0.1-0.1,0.2-0.2,0.3-0.4C44.8,31.7,44.8,31.7,44.8,31.6
		C44.8,31.6,44.8,31.6,44.8,31.6z M50.5,36.4c0-0.1,0.1-0.2,0.1-0.3c0.1-0.2,0.1-0.3,0.2-0.5c0.1-0.1,0.1-0.3,0.2-0.4
		c0,0,0.1-0.1,0.1-0.1c0,0,0,0,0,0c0-0.1-0.2-0.3-0.4-0.7c0,0-0.1-0.1-0.1-0.1c-0.5-0.6-1.3-1.5-2.6-2.1c-0.7-0.3-1.4-0.5-2.3-0.6
		c-0.1,0.3-0.3,0.4-0.5,0.6c-0.1,0.1-0.3,0.3-0.6,0.6c0,0-0.1,0.1-0.1,0.1c0,0-0.1,0.1-0.1,0.1c-0.1,0.1-0.2,0.2-0.2,0.2
		c-0.1,0.1-0.1,0.1-0.2,0.1c0,0-0.1,0.1-0.2,0.1c-0.1,0-0.1,0.1-0.2,0.1L43,34.2c-0.1,0-0.2,0.1-0.3,0.1c-1.9,6.2-1.5,9.4-1,11.2
		c1.3-4.4,2.7-7.6,4.2-10.1c0.4,0.3,0.8,0.5,1.2,0.8c0.3,0.2,0.5,0.4,0.8,0.5c0,2.7,0.3,4.7,0.6,6.2c0.1-0.3,0.3-0.6,0.4-0.9
		c0.2-0.5,0.4-1.1,0.5-1.7c0.3-0.9,0.6-2.2,0.9-3.3c0.1,0,0.2,0,0.3,0h0.1c0,0,0-0.1,0-0.1c0-0.2,0.1-0.4,0.1-0.6v0l-0.2,0.6
		c-0.1,0-0.1,0-0.2,0c0,0-0.1,0-0.2,0v0C50.3,36.8,50.4,36.6,50.5,36.4z M45,46.9L45,46.9c0.2-0.1,0.4-0.3,0.6-0.5
		C45.4,46.6,45.2,46.7,45,46.9z M43.8,51.3c0,0,0,0.1,0,0.1c0,0,0,0.1,0,0.1c0,0,0-0.1,0-0.1C43.8,51.4,43.8,51.3,43.8,51.3
		C43.8,51.3,43.8,51.3,43.8,51.3z M43.6,52.6c-0.1,0.5-0.3,1-0.4,1.4c0.1-0.2,0.2-0.5,0.3-0.7C43.5,53,43.6,52.8,43.6,52.6
		c0.1-0.2,0.1-0.5,0.2-0.8C43.7,52,43.7,52.3,43.6,52.6z M39,51.6L39,51.6L39,51.6c0.1-0.1,0.1-0.2,0.1-0.3C39,51.4,39,51.5,39,51.6
		z M39.2,50.5c-0.1,0.2-0.1,0.5-0.2,0.7C39.1,51,39.2,50.8,39.2,50.5C39.2,50.5,39.2,50.5,39.2,50.5z"/>
	<path fill="#FFFFFF" d="M43.1,33.4c0,0-0.1,0.1-0.1,0.1c0.1-0.2,0.1-0.3,0.2-0.5c0.1-0.4,0.3-0.8,0.4-1.2c0,0,0,0,0,0
		c0.2,0,0.3-0.1,0.5-0.1c0.3,0,0.6-0.1,0.8-0.1c0,0,0,0.1-0.1,0.1c-0.1,0.1-0.2,0.3-0.4,0.5c-0.1,0.1-0.3,0.3-0.5,0.5
		c-0.1,0.1-0.1,0.1-0.1,0.1c-0.1,0.1-0.3,0.3-0.6,0.4C43.2,33.3,43.1,33.4,43.1,33.4z"/>
	<path fill="#FFFFFF" d="M39.3,50.6c-0.1,0.2-0.2,0.5-0.2,0.7C39.1,51,39.2,50.8,39.3,50.6C39.2,50.5,39.2,50.5,39.3,50.6z"/>
	<path fill="#FFFFFF" d="M43.8,51.8c0,0.3-0.1,0.6-0.1,0.8c0,0.2-0.1,0.5-0.2,0.7c-0.1,0.2-0.2,0.4-0.3,0.7c0.2-0.4,0.3-0.9,0.4-1.4
		C43.7,52.3,43.7,52,43.8,51.8z"/>
	<path fill="#FFFFFF" d="M43.9,49.9L43.9,49.9C43.9,49.9,43.9,49.9,43.9,49.9S43.9,49.9,43.9,49.9z"/>
	<path fill="#FFFFFF" d="M51.1,35.2c0,0-0.1,0.1-0.1,0.1c-0.1,0.1-0.2,0.2-0.2,0.4c-0.1,0.1-0.1,0.3-0.2,0.5c0,0.1-0.1,0.2-0.1,0.3
		c-0.1,0.2-0.1,0.4-0.2,0.6v0c0,0,0,0,0,0v0c-0.3,1.1-0.6,2.3-0.9,3.3c-0.1,0.6-0.3,1.1-0.5,1.7c-0.1,0.3-0.2,0.6-0.4,0.9
		c-0.3-1.5-0.6-3.5-0.6-6.2c-0.3-0.1-0.6-0.3-0.8-0.5c-0.4-0.2-0.8-0.5-1.2-0.8c-1.5,2.5-2.9,5.7-4.2,10.1c-0.5-1.8-0.9-5,1-11.2
		c0.1,0,0.2-0.1,0.3-0.1l0.6-0.4c0.1,0,0.1-0.1,0.2-0.1c0.1-0.1,0.1-0.1,0.2-0.1c0,0,0.1-0.1,0.2-0.1c0.1-0.1,0.1-0.1,0.2-0.2
		c0,0,0.1-0.1,0.1-0.1c0.1,0,0.1-0.1,0.1-0.1c0.2-0.3,0.5-0.5,0.6-0.6c0.3-0.3,0.5-0.3,0.5-0.6v0c0,0,0,0,0,0c0,0,0-0.1,0-0.1
		c1,0,1.8,0.2,2.5,0.5c1.4,0.6,2.1,1.6,2.5,2.3c0,0,0,0.1,0.1,0.1v0C51,34.8,51.1,35,51.1,35.2C51.1,35.2,51.1,35.2,51.1,35.2z"/>
	<g>
		<path fill="#FFFFFF" d="M44.9,31.3c0,0,0-0.1,0-0.1c0,0,0-0.1-0.1-0.1c0,0-0.1-0.1-0.1-0.1l-0.2-0.2c0,0-0.1-0.1-0.1-0.1
			c0,0,0-0.1-0.1-0.1c0,0,0,0,0,0c-0.1-0.1-0.2-0.2-0.4-0.3c-0.2-0.2-0.4-0.4-0.7-0.5c-0.3-0.2-0.6-0.3-0.9-0.3
			c-0.3-0.1-0.7-0.1-1-0.1h-0.1c-0.1,0-0.2,0-0.3,0c0,0-0.1,0-0.1,0.1c0,0-0.1,0.1-0.1,0.1c-0.1,0-0.1,0.1-0.2,0.1
			c0,0-0.1,0.1-0.2,0.1c-0.1,0-0.1,0.1-0.2,0.1c-0.2,0.2-0.3,0.3-0.3,0.5c0,0.1-0.1,0.2-0.1,0.3c0,0,0,0.1,0,0.1
			c-0.1,0.2-0.1,0.5,0,0.7c0,0,0,0.1,0,0.1c0,0.2,0.1,0.4,0.2,0.6c0,0.1,0.1,0.1,0.1,0.2c0.2,0.2,0.4,0.4,0.6,0.5
			c0.1,0.1,0.2,0.2,0.3,0.2c0,0,0,0,0.1,0c0,0,0,0,0,0c0,0,0.1,0.1,0.1,0.1c0,0,0,0.1,0,0.1c0,0,0,0.1,0,0.1c0,0,0,0,0,0
			c0,0,0.1,0,0.1,0.1c0.2,0.1,0.4,0.2,0.6,0.2c0.1,0,0.1,0,0.2,0c0.1,0,0.1,0,0.2,0c0.1,0,0.1,0,0.2-0.1c0,0,0.1,0,0.1-0.1
			c0,0,0-0.1,0.1-0.1c0,0,0,0,0.1-0.1c0,0,0.1-0.1,0.1-0.1c0,0,0.2-0.1,0.3-0.2c0,0,0.1-0.1,0.2-0.1c0.1-0.1,0.2-0.2,0.3-0.2
			c0,0,0.1,0,0.1-0.1c0,0,0,0,0.1-0.1c0,0,0,0,0.1-0.1c0.2-0.2,0.4-0.4,0.5-0.5v0c0.1-0.1,0.2-0.2,0.3-0.4c0,0,0.1-0.1,0.1-0.1
			c0,0,0-0.1,0.1-0.1c0,0,0-0.1,0-0.1c0,0,0,0,0-0.1C44.9,31.4,44.9,31.3,44.9,31.3z M52.3,65.8c1.8,0,4.2,0.5,6.9,0.5
			C56.6,66.3,54,65.5,52.3,65.8z M59.3,66.4c-2.7-0.1-5.2-0.5-7-0.5h-0.2c0.1,0,0.2,0,0.2,0H51c0-0.2-0.1-0.3-0.1-0.5l-1.6-0.1
			l-0.8-0.1l-0.2,0h0l0,0h0c0,0,0,0,0,0l0,0c0,0,0,0,0,0c0,0,0,0,0,0s0,0,0,0v0c0,0,0,0,0,0c0,0,0,0,0,0v0c0,0,0,0.1,0.1,0.2v0
			c0,0,0,0.1,0.1,0.1c0,0,0,0,0,0c0,0,0.1,0.1,0.1,0.2c0.1,0.1,0.2,0.1,0.3,0.2c0,0,0,0,0,0c0.1,0.1,0.3,0.1,0.4,0.1
			c0.1,0,0.2,0,0.3,0c0.2,0,0.4,0,0.6,0c0.2,0,0.4,0,0.5,0c0.2,0,0.3,0,0.5,0c0.5,0,0.9,0,1.4,0c0.5,0,1,0,1.5,0.1
			c0.1,0,0.3,0,0.4,0c0.3,0,0.6,0.1,1,0.1c0.2,0,0.5,0.1,0.7,0.1c1.5,0.2,2.3,0.4,3.1,0.4c0,0,0,0,0,0c0.2-0.1,0.4-0.3,0.5-0.5
			C59.6,66.4,59.5,66.4,59.3,66.4z M59.7,66.9C59.7,66.9,59.7,66.9,59.7,66.9c0,0,0.1,0,0.2,0H59.7z M59.9,66.9c0.1,0,0.2,0,0.3,0
			c0,0,0.1,0,0.2,0C60.2,66.9,60,66.9,59.9,66.9z M59.8,66c0,0.1,0,0.2-0.1,0.4c0.3,0,0.6,0,0.9,0h0c0.1-0.1,0.1-0.2,0.1-0.3
			L59.8,66z M60.6,66.8c-0.1,0-0.1,0-0.2,0C60.5,66.8,60.5,66.8,60.6,66.8c0.1,0,0.2,0,0.3,0c0.2,0,0.3-0.1,0.4-0.1
			c0.1,0,0.1,0,0.2-0.1C61.3,66.7,61,66.7,60.6,66.8z M61.9,66.2L61.9,66.2L61.9,66.2C61.9,66.3,61.9,66.3,61.9,66.2L61.9,66.2
			C61.9,66.3,61.9,66.3,61.9,66.2C61.9,66.3,61.9,66.3,61.9,66.2C61.9,66.3,61.9,66.3,61.9,66.2C61.9,66.3,61.9,66.3,61.9,66.2
			C61.9,66.3,61.9,66.2,61.9,66.2L61.9,66.2L61.9,66.2z"/>
		<path fill="#FFFFFF" d="M52.3,65.8c1.8,0,4.2,0.5,6.9,0.5C56.6,66.3,54,65.5,52.3,65.8z M59.3,66.4c-2.7-0.1-5.2-0.5-7-0.5h-0.2
			c0.1,0,0.2,0,0.2,0H51c0-0.2-0.1-0.3-0.1-0.5v-0.2L49.5,65c0,0.1-0.1,0.1-0.1,0.2c-0.1,0.2-0.2,0.4-0.1,0.6c0,0,0,0,0,0
			c0,0,0,0.1,0,0.1c0.1,0.1,0.2,0.2,0.3,0.3c0.2,0,0.4,0,0.6,0c0.2,0,0.4,0,0.5,0c0.2,0,0.3,0,0.5,0c0.5,0,0.9,0,1.4,0
			c0.5,0,1,0,1.5,0.1c0.1,0,0.3,0,0.4,0c0.3,0,0.6,0.1,1,0.1c0.2,0,0.5,0.1,0.7,0.1c1.5,0.2,2.3,0.4,3.1,0.4c0,0,0,0,0,0
			c0.2-0.1,0.4-0.3,0.5-0.5C59.6,66.4,59.5,66.4,59.3,66.4z M60.7,65.9l-0.9-0.1c0,0.1,0,0.1,0,0.2c0,0.1,0,0.2-0.1,0.4
			c0.3,0,0.6,0,0.9,0h0c0.1-0.1,0.1-0.2,0.1-0.3C60.7,66,60.7,66,60.7,65.9z M43.8,51.4c0,0,0,0.1,0,0.1
			C43.8,51.5,43.8,51.5,43.8,51.4C43.8,51.4,43.8,51.4,43.8,51.4z M43.6,52.6c-0.1,0.5-0.3,1-0.4,1.4c0.1-0.2,0.2-0.5,0.3-0.7
			C43.5,53,43.6,52.8,43.6,52.6c0.1-0.2,0.1-0.5,0.2-0.8C43.7,52,43.7,52.3,43.6,52.6z M39,51.6L39,51.6L39,51.6
			c0.1-0.1,0.1-0.2,0.1-0.3C39,51.4,39,51.5,39,51.6z M39.2,50.5c-0.1,0.2-0.1,0.5-0.2,0.7C39.1,51,39.2,50.8,39.2,50.5
			C39.2,50.5,39.2,50.5,39.2,50.5z M30.7,20.3C30.7,20.3,30.7,20.3,30.7,20.3C30.8,20.3,30.8,20.2,30.7,20.3
			C30.8,20.2,30.8,20.2,30.7,20.3z M39.5,12.3L39.5,12.3C39.5,12.3,39.5,12.3,39.5,12.3C39.6,12.3,39.6,12.3,39.5,12.3z M35.8,13.6
			L35.8,13.6C35.9,13.6,35.9,13.5,35.8,13.6C35.9,13.5,35.8,13.6,35.8,13.6z M41.2,29.2c-0.1,0-0.2,0-0.3,0c0,0-0.1,0-0.1,0.1
			c0,0-0.1,0.1-0.1,0.1v0c-0.1,0-0.1,0.1-0.2,0.1c0,0-0.1,0.1-0.2,0.1c-0.1,0-0.1,0.1-0.2,0.1c-0.2,0.2-0.3,0.3-0.3,0.5
			c0,0.1-0.1,0.2-0.1,0.3c0,0,0,0.1,0,0.1c0,0,0,0,0.1,0C40.4,30.3,40.9,29.8,41.2,29.2C41.3,29.3,41.3,29.3,41.2,29.2L41.2,29.2z
			 M41.8,16.6L41.8,16.6L41.8,16.6C41.8,16.6,41.8,16.6,41.8,16.6z M30.9,20.9L30.9,20.9C30.9,20.9,30.9,20.9,30.9,20.9
			C30.9,20.9,30.9,20.9,30.9,20.9z"/>
	</g>
	<path fill="#FFFFFF" d="M39.6,12.4c0,0-0.1,0-0.1-0.1L39.6,12.4C39.6,12.3,39.6,12.3,39.6,12.4z"/>
	<path fill="#FFFFFF" d="M41.3,29.4c-0.3,0.5-0.7,1.1-1.4,1.4c0,0-0.1-0.1-0.1-0.1c0,0,0,0,0,0c0,0,0,0-0.1-0.1c0-0.1,0-0.2,0.1-0.3
		c0-0.3,0.5-0.6,1-1c0.1,0,0.2,0,0.3,0C41.2,29.3,41.2,29.3,41.3,29.4C41.3,29.3,41.3,29.3,41.3,29.4z"/>
	<path fill="#FFFFFF" d="M41.8,16.7L41.8,16.7L41.8,16.7C41.8,16.7,41.8,16.7,41.8,16.7z"/>
	<path fill="#FFFFFF" d="M51.8,2c-0.1-0.4-1-1-3-1C46.7,1,46,1.6,46,2c0,0.1-0.2,1.4-0.2,1.9c0,0,0,0.6,0,1.6c0,0.6,0.2,1,0.3,1.8
		c0.1,0.9,0.3,1.4,0.7,2.1c0.2,0.1,0.4,0.2,0.6,0.3c0.8,0.2,2.2,0.2,2.9,0c0.4-0.1,1-0.9,1.1-1.5c0.2-0.8,0.3-1.4,0.4-1.9
		c0.1-0.5,0.1-1.7,0.2-2C52.1,3.4,51.9,2,51.8,2L51.8,2z"/>
	<path fill="#FFFFFF" d="M48.4,50.9C48.5,50.9,48.5,51,48.4,50.9C48.4,50.9,48.4,50.9,48.4,50.9c0,0-0.1,0-0.1,0
		C48.3,50.9,48.4,50.9,48.4,50.9z"/>
	<path fill="#FFFFFF" d="M48.7,51C48.7,51,48.8,51,48.7,51L48.7,51L48.7,51z"/>
	<path fill="#FFFFFF" d="M48.8,51c0.1,0,0.2,0,0.3,0.1h0c0,0-0.1,0-0.1,0c0,0,0,0,0,0C48.8,51,48.8,51,48.8,51L48.8,51z"/>
	<path fill="#FFFFFF" d="M53.2,51c-0.1,0-0.2,0-0.3,0c-0.1,0-0.2,0-0.4,0c-0.2,0-0.5,0-0.8,0s-0.5,0-0.8,0c-0.2,0-0.4,0-0.6,0
		c-0.6,0-1.1-0.1-1.5-0.2c-0.1,0-0.2,0-0.2,0c0.1,0,0.2,0,0.2,0c0.4,0.1,0.9,0.1,1.5,0.2C51.1,51.2,52,51.2,53.2,51z"/>
	<path fill="#FFFFFF" d="M53.8,51c-0.1,0-0.2,0-0.3,0c-0.1,0-0.2,0-0.3,0C53.4,51,53.6,51,53.8,51z"/>
	<path fill="#FFFFFF" d="M48.8,57.5C48.8,57.5,48.8,57.5,48.8,57.5C48.8,57.5,48.8,57.5,48.8,57.5c0-0.1-0.1-0.1-0.1-0.2
		c-0.1-0.2-0.1-0.4-0.2-0.6C48.6,57,48.7,57.3,48.8,57.5z"/>
	<path fill="#FFFFFF" d="M47.5,51.5C47.5,51.5,47.5,51.4,47.5,51.5L47.5,51.5C47.5,51.4,47.5,51.4,47.5,51.5z"/>
	<path fill="#FFFFFF" d="M47.4,53L47.4,53c0-0.4-0.1-0.7-0.1-1c0,0.4,0.2,0.7,0.4,1.1C47.7,53.1,47.5,53,47.4,53z"/>
	<path fill="#FFFFFF" d="M48.4,51.7c-0.1,0-0.2,0-0.3,0c-0.2,0-0.3-0.1-0.4-0.1c0.1,0,0.2,0.1,0.4,0.1
		C48.2,51.6,48.3,51.7,48.4,51.7z"/>
	<path fill="#FFFFFF" d="M49.4,55.5c-0.1-0.1-0.1-0.2-0.2-0.2c-0.2-0.3-0.5-0.7-0.8-1.1c0.1,0,0.1,0,0.2,0c0.2,0.4,0.4,0.7,0.6,1.1
		C49.3,55.3,49.4,55.4,49.4,55.5z"/>
	<path fill="#FFFFFF" d="M50.3,58.3c-0.2-0.8-0.3-1.6-0.6-2.2c0-0.1,0-0.1-0.1-0.2c-0.1-0.2-0.1-0.3-0.2-0.4
		c0.1,0.1,0.2,0.3,0.2,0.4c0,0.1,0.1,0.2,0.1,0.3C50,56.8,50.1,57.6,50.3,58.3z"/>
	<path fill="#FFFFFF" d="M51.9,51.8c-0.1,0-0.3,0-0.4,0c-0.1,0-0.2,0-0.3,0c-0.3,0-0.6,0-0.9,0c-0.1,0-0.1,0-0.2,0H50
		c-0.2,0-0.4,0-0.5,0c-0.2,0-0.3,0-0.4,0c0.1,0,0.3,0,0.4,0c0.1,0,0.3,0,0.4,0c0.5,0,1,0,1.5,0C51.5,51.8,51.7,51.8,51.9,51.8z"/>
	<path fill="#FFFFFF" d="M52.3,65.8c-0.1,0-0.2,0-0.2,0H51c-0.7,0-1.3,0-1.8-0.1c-0.3,0-0.6-0.1-0.8-0.2c-0.1,0-0.1-0.1-0.1-0.1
		c0,0,0,0,0-0.1v0c0,0,0,0,0,0c0,0,0,0,0,0v0c0,0,0,0,0,0s0,0,0,0c0,0,0,0,0,0l0,0c0,0,0,0,0,0c0,0,0-0.1,0-0.1c0,0,0-0.1,0-0.1
		c0-0.1,0-0.2,0-0.2c0-0.1,0-0.2,0-0.2v0c0,0,0,0,0,0v0c0,0,0,0,0,0c0,0,0,0,0,0c0,0,0-0.1,0-0.1v0c0,0,0,0,0,0c0,0,0,0,0-0.1
		c0-0.1,0-0.1,0.1-0.2c0-0.1,0.1-0.2,0.1-0.3v0c0.1-0.2,0.2-0.4,0.3-0.6c-0.1,0.2-0.2,0.3-0.2,0.5c0,0,0,0,0,0.1v0
		c0.7,0.3,1.6,0.5,2.3,0.5c0,0-0.1,0.5-0.1,1v0.2c0,0.2,0,0.3,0.1,0.5H52.3z"/>
	<path fill="#FFFFFF" d="M52.6,51.7c-0.1,0-0.2,0-0.4,0c0,0,0.1,0,0.1,0C52.5,51.7,52.5,51.7,52.6,51.7z"/>
	<path fill="#FFFFFF" d="M54.1,51.5c-0.2,0-0.5,0.1-0.8,0.1C53.6,51.6,53.9,51.5,54.1,51.5z"/>
	<path fill="#FFFFFF" d="M59.2,66.4c-2.7-0.1-5.1-0.5-6.9-0.5C54,65.5,56.6,66.3,59.2,66.4z"/>
	<path fill="#FFFFFF" d="M54.8,51.4C54.8,51.4,54.8,51.4,54.8,51.4c0,0.3-0.1,0.8-0.2,1.3v0c-0.1,0.3-0.1,0.7-0.2,1.1
		c0,0.3-0.1,0.7-0.1,1.1c0,0.2,0,0.4-0.1,0.6c0,0,0,0,0,0c0,0.1,0,0.2,0,0.2v0c0,0.4-0.1,0.7-0.1,1.1c0-0.5,0-0.8,0.1-1.1
		c-0.1,0-0.2,0.1-0.3,0.1c0.1-0.3,0.1-0.6,0.2-0.9c0.1-0.4,0.2-0.7,0.3-1.1c0.1-0.3,0.2-0.7,0.2-1.1c0.1-0.3,0.1-0.6,0.2-0.9
		C54.7,51.7,54.7,51.5,54.8,51.4z"/>
	<path fill="#FFFFFF" d="M59.4,65c-0.1,0-0.3-0.1-0.4-0.1c-0.1,0-0.2-0.1-0.4-0.2c0.1,0,0.2,0.1,0.4,0.1
		C59.2,64.8,59.3,64.9,59.4,65z"/>
	<path fill="#FFFFFF" d="M60.6,65.3c-0.1,0-0.2-0.1-0.4-0.1c-0.3-0.1-0.5-0.2-0.8-0.3c0.1,0,0.3,0.1,0.4,0.1
		C60.1,65.2,60.3,65.3,60.6,65.3z"/>
	<path fill="#FFFFFF" d="M60.7,66.1c0,0.1,0,0.2-0.1,0.3h0c-0.2,0-0.5,0-0.9,0c0.1-0.1,0.1-0.2,0.1-0.4c0-0.1,0-0.1,0-0.2l0.9,0.1
		C60.7,66,60.7,66,60.7,66.1z"/>
	<path fill="#FFFFFF" d="M61.6,65.8l-1.1-0.4C61.1,65.5,61.5,65.6,61.6,65.8z"/>
	<path fill="#FFFFFF" d="M61.9,66.2L61.9,66.2C61.9,66.2,61.9,66.3,61.9,66.2C61.9,66.3,61.9,66.3,61.9,66.2
		C61.9,66.3,61.9,66.3,61.9,66.2C61.9,66.3,61.9,66.3,61.9,66.2C61.9,66.3,61.9,66.3,61.9,66.2L61.9,66.2L61.9,66.2z"/>
	<path fill="#FFFFFF" d="M48.4,51.7c-0.1,0-0.2,0-0.3,0c-0.2,0-0.3-0.1-0.4-0.1c0.1,0,0.2,0.1,0.4,0.1
		C48.2,51.6,48.3,51.7,48.4,51.7z"/>
	<path fill="#FFFFFF" d="M48.8,57.5C48.8,57.5,48.8,57.5,48.8,57.5c0-0.1-0.1-0.1-0.1-0.2c-0.2-0.5-0.4-0.9-0.5-1.3
		c-0.1-0.3-0.3-0.6-0.4-1c0-0.1-0.1-0.2-0.1-0.3c-0.1-0.2-0.1-0.5-0.2-0.7c-0.1-0.4-0.2-0.7-0.2-1v0c-0.1-0.8-0.2-1.3,0-1.6
		c0,0,0.1,0,0.1,0c0,0,0,0,0.1,0c0,0,0.1,0,0.1,0c0,0-0.1,0-0.1,0c0,0.2-0.1,0.4-0.1,0.6c0,0.4,0.2,0.7,0.4,1.1
		c-0.1,0-0.2,0-0.3-0.1c0,0.1,0,0.2,0,0.2c0,0.1,0,0.1,0,0.2c0,0,0,0,0,0.1c0,0.2,0.1,0.3,0.1,0.5c0.1,0.3,0.2,0.7,0.3,1
		c0.1,0.3,0.2,0.6,0.3,1c0.1,0.2,0.2,0.5,0.2,0.7C48.6,57,48.7,57.3,48.8,57.5z"/>
	<path fill="#FFFFFF" d="M49.4,55.5c-0.1-0.1-0.1-0.2-0.2-0.2c-0.2-0.3-0.5-0.7-0.8-1.1c0.1,0,0.1,0,0.2,0c0.2,0.4,0.4,0.7,0.6,1.1
		C49.3,55.3,49.4,55.4,49.4,55.5z"/>
	<path fill="#FFFFFF" d="M50.3,58.3c-0.2-0.8-0.3-1.6-0.6-2.2c0-0.1,0-0.1-0.1-0.2c-0.1-0.2-0.1-0.3-0.2-0.4
		c0.1,0.1,0.2,0.3,0.2,0.4c0,0.1,0.1,0.2,0.1,0.3C50,56.8,50.1,57.6,50.3,58.3z"/>
	<path fill="#FFFFFF" d="M49.3,61.6L49.3,61.6c0,0.2,0,0.3,0,0.4c0,0.1,0,0.2-0.1,0.3c-0.1,0.2-0.2,0.5-0.3,0.7c0,0,0,0,0-0.1
		c0,0,0,0,0,0s0,0,0,0c0-0.1,0.1-0.3,0.1-0.4c0-0.1,0-0.2,0.1-0.3c0-0.1,0-0.2,0-0.4c0-0.3,0-0.7,0-1.2c0-0.3,0-0.7-0.1-1.2
		c0-0.2-0.1-0.5-0.1-0.7c0-0.2-0.1-0.3-0.1-0.5c0,0,0,0.1,0,0.2c0.1,0.3,0.2,0.6,0.2,0.8c0,0.2,0.1,0.4,0.1,0.5c0,0.2,0,0.3,0,0.5
		c0,0.2,0,0.3,0,0.4c0,0.2,0,0.4,0,0.6C49.3,61.5,49.3,61.5,49.3,61.6z"/>
	<path fill="#FFFFFF" d="M50,51.8c-0.2,0-0.4,0-0.5,0c-0.2,0-0.3,0-0.4,0c0.1,0,0.3,0,0.4,0c0.1,0,0.3,0,0.4,0
		C49.9,51.8,50,51.8,50,51.8z"/>
	<path fill="#FFFFFF" d="M51.5,51.8c-0.1,0-0.2,0-0.3,0c0.1,0,0.1,0,0.2,0H51.5z"/>
	<path fill="#FFFFFF" d="M54.1,51.5c-0.2,0-0.5,0.1-0.8,0.1C53.6,51.6,53.9,51.5,54.1,51.5z"/>
	<path fill="#FFFFFF" d="M59.2,66.4c-2.7-0.1-5.1-0.5-6.9-0.5C54,65.5,56.6,66.3,59.2,66.4z"/>
	<path fill="#FFFFFF" d="M54.1,61.6L54.1,61.6c0-0.1-0.1-0.3-0.1-0.5c0-0.3-0.1-0.7-0.1-1.1c0-0.4,0-0.8,0-1.2c0-0.1,0-0.1,0-0.2
		v-0.2c0-0.1,0-0.2,0-0.3c0,0,0,0,0,0c0-0.1,0-0.2,0-0.3v0c0-0.2,0-0.3,0-0.5c0,0.5,0,1.1,0,1.6C54,59.9,54.1,61,54.1,61.6z"/>
	<path fill="#FFFFFF" d="M54.9,51.5c0,0.1-0.1,0.2-0.1,0.4c0,0,0,0,0,0c0,0,0,0,0,0.1c0,0.1,0,0.1,0,0.2c0,0.1,0,0.3-0.1,0.5
		c0,0,0,0.1,0,0.1c0,0.1,0,0.2-0.1,0.3c0,0,0,0.1,0,0.1c0,0.1,0,0.2,0,0.2c0,0.1,0,0.2,0,0.3v0c0,0.1,0,0.1,0,0.2
		c0,0.1,0,0.2-0.1,0.3c0,0.2-0.1,0.4-0.1,0.5c0,0.2-0.1,0.4-0.1,0.7c0,0,0,0,0,0c0,0.1,0,0.2,0,0.2c-0.1,0-0.2,0.1-0.3,0.1
		c0.1-0.3,0.1-0.6,0.2-0.9c0.1-0.4,0.2-0.7,0.3-1.1c0.1-0.3,0.2-0.7,0.2-1.1c0.1-0.3,0.1-0.6,0.2-0.9c0-0.2,0-0.3,0.1-0.4
		c0,0,0,0,0.1,0C54.9,51.4,54.9,51.4,54.9,51.5L54.9,51.5C54.9,51.5,54.9,51.5,54.9,51.5z"/>
	<path fill="#FFFFFF" d="M59.4,65c-0.1,0-0.3-0.1-0.4-0.1c-0.1,0-0.2-0.1-0.4-0.2c0.1,0,0.2,0.1,0.4,0.1
		C59.2,64.8,59.3,64.9,59.4,65z"/>
	<path fill="#FFFFFF" d="M59.7,66.4c-0.1,0.2-0.3,0.4-0.5,0.5c0,0,0,0,0,0c-0.8,0-1.6-0.2-3.1-0.4c-0.2,0-0.5-0.1-0.7-0.1
		c-0.3,0-0.7-0.1-1-0.1c-0.1,0-0.3,0-0.4,0c-0.5,0-1-0.1-1.5-0.1c-0.4,0-0.9,0-1.4,0h-0.5c-0.2,0-0.3,0-0.5,0c-0.2,0-0.4,0-0.6,0
		c-0.1,0-0.2,0-0.3,0c-0.2,0-0.3-0.1-0.4-0.2c0,0,0,0,0,0c-0.1-0.1-0.2-0.1-0.3-0.2c0-0.1-0.1-0.1-0.1-0.2c0,0,0,0,0,0
		c0,0,0-0.1-0.1-0.1v0c0,0,0-0.1-0.1-0.2v0c0,0,0,0,0,0c0,0,0,0,0,0v0c0,0,0,0,0,0s0,0,0,0c0,0,0,0,0,0c0,0,0,0,0-0.1V65
		c0-0.4,0.2-0.9,0.4-1.4c0.7,0.3,1.6,0.5,2.3,0.5c0,0-0.1,0.5-0.1,1v0.2c0,0.2,0,0.3,0.1,0.5h1.3c-0.1,0-0.2,0-0.2,0h0.2
		c1.8,0,4.3,0.5,7,0.5C59.5,66.4,59.6,66.4,59.7,66.4z"/>
	<path fill="#FFFFFF" d="M60.2,65.2c-0.3-0.1-0.5-0.2-0.8-0.3c0.1,0,0.3,0.1,0.4,0.1C60,65.1,60.1,65.2,60.2,65.2z"/>
	<path fill="#FFFFFF" d="M60.7,66.1c0,0.1,0,0.2-0.1,0.3h0c-0.2,0-0.5,0-0.9,0c0.1-0.1,0.1-0.2,0.1-0.4c0-0.1,0-0.1,0-0.2l0.9,0.1
		C60.7,66,60.7,66,60.7,66.1z"/>
	<path fill="#FFFFFF" d="M49.6,55.9c0-0.1-0.1-0.3-0.2-0.4C49.5,55.6,49.5,55.8,49.6,55.9c0,0.1,0.1,0.2,0.1,0.2c0,0,0,0,0,0
		C49.7,56,49.6,56,49.6,55.9z M49.3,55.2C49.3,55.2,49.2,55.2,49.3,55.2c0,0.1,0.1,0.2,0.1,0.2C49.4,55.4,49.3,55.3,49.3,55.2z
		 M48,55.1c-0.1,0-0.1,0-0.2,0c0.1,0.3,0.3,0.7,0.4,1c0,0,0.1,0,0.1,0C48.2,55.7,48.1,55.4,48,55.1z M54.3,54.9L54.3,54.9
		C54.3,54.9,54.3,54.9,54.3,54.9c-0.1,0-0.2,0.1-0.3,0.1c-0.1,0.3-0.1,0.6-0.2,0.9c0.1,0,0.2-0.1,0.3-0.1h0c0,0,0,0,0,0s0,0,0,0h0
		c0-0.2,0-0.3,0.1-0.5L54.3,54.9C54.3,54.9,54.3,54.9,54.3,54.9z M47.5,53.5C47.5,53.5,47.5,53.5,47.5,53.5c0-0.1,0-0.2,0-0.3
		c0-0.1,0-0.2,0-0.2c-0.1,0-0.1,0-0.2,0c0.1,0.3,0.1,0.7,0.2,1c0,0,0.1,0,0.2,0C47.6,53.9,47.6,53.7,47.5,53.5z M54.7,52.7
		L54.7,52.7C54.6,52.7,54.6,52.7,54.7,52.7c-0.1,0-0.1,0-0.1,0c-0.1,0.4-0.2,0.8-0.2,1.1c0,0,0.1,0,0.1,0c0,0,0,0,0,0v0
		c0-0.1,0-0.2,0-0.3c0-0.1,0-0.1,0-0.2c0,0,0-0.1,0-0.1c0,0,0-0.1,0-0.2c0,0,0,0,0,0C54.7,52.8,54.7,52.8,54.7,52.7
		C54.7,52.7,54.7,52.7,54.7,52.7z M59.7,66.9C59.7,66.9,59.7,66.9,59.7,66.9c0,0,0.1,0,0.2,0H59.7z M59.9,66.9c0.1,0,0.2,0,0.3,0
		c0,0,0.1,0,0.2,0C60.2,66.9,60,66.9,59.9,66.9z M60.7,65.9l-0.9-0.1c0,0.1,0,0.1,0,0.2c0,0.1,0,0.2-0.1,0.4c0.3,0,0.6,0,0.9,0h0
		c0.1-0.1,0.1-0.2,0.1-0.3C60.7,66,60.7,66,60.7,65.9z M60.6,66.8c-0.1,0-0.1,0-0.2,0C60.5,66.8,60.5,66.8,60.6,66.8
		c0.1,0,0.2,0,0.3,0c0.2,0,0.3-0.1,0.4-0.1c0.1,0,0.1,0,0.2-0.1C61.3,66.7,61,66.7,60.6,66.8z M61.9,66.2L61.9,66.2
		C61.9,66.2,61.9,66.2,61.9,66.2L61.9,66.2C61.9,66.3,61.9,66.3,61.9,66.2L61.9,66.2C61.9,66.3,61.9,66.3,61.9,66.2
		C61.9,66.3,61.9,66.3,61.9,66.2C61.9,66.3,61.9,66.3,61.9,66.2C61.9,66.3,61.9,66.3,61.9,66.2C61.9,66.3,61.9,66.2,61.9,66.2
		L61.9,66.2L61.9,66.2z M51,66c0,0,0-0.1,0-0.1c0,0,0,0,0,0c0-0.2-0.1-0.3-0.1-0.5v-0.2c0-0.5,0.1-1,0.1-1c-0.7,0-1.7-0.2-2.3-0.5
		c0,0,0,0-0.1,0c0,0,0,0,0,0c0,0,0,0,0,0.1c0,0,0,0,0,0c0,0,0,0,0,0c0,0,0,0,0,0c0,0.1-0.1,0.2-0.1,0.3c0,0,0,0,0,0.1c0,0,0,0,0,0v0
		c0,0,0,0.1,0,0.1c0,0,0,0,0,0c0,0,0,0,0,0v0c0,0,0,0,0,0v0c0,0.1,0,0.2,0,0.2c0,0.1,0,0.2,0,0.2c0,0,0,0.1,0,0.1c0,0,0,0.1,0,0.1
		c0,0,0,0,0,0l0,0c0,0,0,0,0,0c0,0,0,0,0,0s0,0,0,0v0c0,0,0,0,0,0c0,0,0,0,0,0v0c0,0,0,0.1,0.1,0.2v0c0,0,0,0.1,0.1,0.1c0,0,0,0,0,0
		c0,0,0.1,0.1,0.1,0.2c0.1,0.1,0.2,0.1,0.3,0.2c0,0,0,0,0,0c0.1,0.1,0.3,0.1,0.4,0.1c0.1,0,0.2,0,0.3,0c0.2,0,0.4,0,0.6,0
		c0.2,0,0.4,0,0.5,0c0.2,0,0.3,0,0.5,0c0,0,0,0,0,0s0,0,0,0C51.1,66.1,51.1,66.1,51,66z"/>
	<path fill="#FFFFFF" d="M47.5,51.5C47.5,51.5,47.5,51.4,47.5,51.5L47.5,51.5C47.5,51.4,47.5,51.4,47.5,51.5z"/>
	<path fill="#FFFFFF" d="M47.4,53L47.4,53c0-0.4-0.1-0.7-0.1-1c0,0.4,0.2,0.7,0.4,1.1C47.7,53.1,47.5,53,47.4,53z"/>
	<path fill="#FFFFFF" d="M48.4,51.7c-0.1,0-0.2,0-0.3,0c-0.2,0-0.3-0.1-0.4-0.1c0.1,0,0.2,0.1,0.4,0.1
		C48.2,51.6,48.3,51.7,48.4,51.7z"/>
	<path fill="#FFFFFF" d="M49.4,55.5c-0.1-0.1-0.1-0.2-0.2-0.2c-0.2-0.3-0.5-0.7-0.8-1.1c0.1,0,0.1,0,0.2,0c0.2,0.4,0.4,0.7,0.6,1.1
		C49.3,55.3,49.4,55.4,49.4,55.5z"/>
	<path fill="#FFFFFF" d="M50.3,58.3c-0.2-0.8-0.3-1.6-0.6-2.2c0-0.1,0-0.1-0.1-0.2c-0.1-0.2-0.1-0.3-0.2-0.4
		c0.1,0.1,0.2,0.3,0.2,0.4c0,0.1,0.1,0.2,0.1,0.3C50,56.8,50.1,57.6,50.3,58.3z"/>
	<path fill="#FFFFFF" d="M51,65.8c-0.7,0-1.3,0-1.8-0.1c-0.4-0.1-0.8-0.2-0.9-0.4c0,0,0-0.1-0.1-0.1c0,0,0,0,0,0l0,0c0,0,0,0,0,0v0
		c0,0,0-0.1,0-0.1c0,0,0-0.1,0-0.1c0-0.1,0-0.2,0-0.2c0-0.1,0-0.2,0-0.2v0c0,0,0,0,0,0v0c0,0,0,0,0,0c0,0,0,0,0,0c0,0,0-0.1,0-0.1v0
		c0,0,0,0,0,0c0,0,0,0,0-0.1c0-0.1,0.1-0.2,0.1-0.3c0,0,0,0,0,0c0,0,0,0,0,0s0,0,0,0c0,0,0,0,0-0.1c0,0,0,0,0-0.1c0,0,0-0.1,0.1-0.1
		c0-0.1,0.1-0.2,0.2-0.3c0,0,0,0,0-0.1c0,0,0,0,0,0c0,0,0,0,0,0c0,0,0,0,0,0s0,0,0,0c0.1-0.2,0.2-0.4,0.3-0.6
		c-0.1,0.2-0.2,0.5-0.3,0.7c-0.1,0.2-0.2,0.3-0.2,0.5c0,0,0,0,0,0.1v0c0.7,0.3,1.6,0.5,2.3,0.5c0,0-0.1,0.5-0.1,1v0.2
		C50.9,65.5,51,65.7,51,65.8z"/>
	<path fill="#FFFFFF" d="M51.9,51.8c-0.1,0-0.3,0-0.4,0c-0.1,0-0.2,0-0.3,0c-0.3,0-0.6,0-0.9,0c-0.1,0-0.1,0-0.2,0H50
		c-0.2,0-0.4,0-0.5,0c-0.2,0-0.3,0-0.4,0c0.1,0,0.3,0,0.4,0c0.1,0,0.3,0,0.4,0c0.5,0,1,0,1.5,0C51.5,51.8,51.7,51.8,51.9,51.8z"/>
	<path fill="#FFFFFF" d="M52.6,51.7c-0.1,0-0.2,0-0.4,0c0,0,0.1,0,0.1,0C52.5,51.7,52.5,51.7,52.6,51.7z"/>
	<path fill="#FFFFFF" d="M54.1,51.5c-0.2,0-0.5,0.1-0.8,0.1C53.6,51.6,53.9,51.5,54.1,51.5z"/>
	<path fill="#FFFFFF" d="M59.2,66.4c-2.7-0.1-5.1-0.5-6.9-0.5C54,65.5,56.6,66.3,59.2,66.4z"/>
	<path fill="#FFFFFF" d="M54.1,61.6L54.1,61.6c0-0.1-0.1-0.3-0.1-0.5C54.1,61.3,54.1,61.5,54.1,61.6z"/>
	<path fill="#FFFFFF" d="M54.1,57.1C54.1,57.1,54.1,57.1,54.1,57.1C54.1,57.1,54.1,57.1,54.1,57.1C54.1,57.1,54.1,57.1,54.1,57.1
		C54.1,57.1,54.1,57.1,54.1,57.1z"/>
	<path fill="#FFFFFF" d="M54.9,51.4L54.9,51.4c0,0.1,0,0.1,0,0.2c0,0.1,0,0.2,0,0.3c0,0,0,0,0,0c0,0,0,0,0,0.1v0
		c0,0.2-0.1,0.4-0.1,0.6v0c0,0,0,0.1,0,0.1c0,0,0,0.1,0,0.1c0,0,0,0,0,0c0,0,0,0.1,0,0.2c0,0,0,0.1,0,0.1c0,0.1,0,0.2,0,0.2
		c0,0.1,0,0.2,0,0.3v0c0,0.1,0,0.1,0,0.2c0,0.1,0,0.2-0.1,0.3c0,0.1,0,0.2,0,0.2c0,0.1,0,0.2,0,0.3l-0.1,0.4c0,0,0,0,0,0
		c0,0.1,0,0.3,0,0.4c0,0.2-0.1,0.5-0.1,0.8c0,0,0,0,0,0c0,0.2,0,0.3,0,0.5c0,0,0,0,0,0.1c0,0,0,0,0,0v0c0-0.1,0-0.1,0-0.2
		c0-0.5,0-0.8,0.1-1.1c-0.1,0-0.2,0.1-0.3,0.1c0.1-0.3,0.1-0.6,0.2-0.9c0.1-0.4,0.2-0.7,0.3-1.1c0.1-0.3,0.2-0.7,0.2-1.1
		c0.1-0.3,0.1-0.6,0.2-0.9c0-0.2,0-0.3,0.1-0.4C54.8,51.4,54.8,51.4,54.9,51.4C54.9,51.4,54.9,51.4,54.9,51.4z"/>
	<path fill="#FFFFFF" d="M59.4,65c-0.1,0-0.3-0.1-0.4-0.1c-0.1,0-0.2-0.1-0.4-0.2c0.1,0,0.2,0.1,0.4,0.1
		C59.2,64.8,59.3,64.9,59.4,65z"/>
	<path fill="#FFFFFF" d="M60.6,65.3c-0.1,0-0.2-0.1-0.4-0.1c-0.3-0.1-0.5-0.2-0.8-0.3c0.1,0,0.3,0.1,0.4,0.1
		C60.1,65.2,60.3,65.3,60.6,65.3z"/>
	<path fill="#FFFFFF" d="M60.7,66.1c0,0.1,0,0.2-0.1,0.3h0c-0.2,0-0.5,0-0.9,0c0.1-0.1,0.1-0.2,0.1-0.4c0-0.1,0-0.1,0-0.2l0.9,0.1
		C60.7,66,60.7,66,60.7,66.1z"/>
	<path fill="#FFFFFF" d="M61.6,65.8l-1.1-0.4C61.1,65.5,61.5,65.6,61.6,65.8z"/>
	<path fill="#FFFFFF" d="M61.9,66.2L61.9,66.2C61.9,66.2,61.9,66.2,61.9,66.2L61.9,66.2L61.9,66.2z"/>
	<path fill="#FFFFFF" d="M48.3,50.9c0,0,0.1,0,0.1,0c0.1,0,0.1,0,0.1,0c0,0,0,0-0.1,0C48.4,50.9,48.3,50.9,48.3,50.9"/>
	<path fill="#FFFFFF" d="M48.8,51L48.8,51L48.8,51C48.7,51,48.8,51,48.8,51z"/>
	<path fill="#FFFFFF" d="M47.5,51.5C47.5,51.5,47.5,51.4,47.5,51.5L47.5,51.5C47.5,51.4,47.5,51.4,47.5,51.5z"/>
	<path fill="#FFFFFF" d="M47.4,53L47.4,53c0-0.4-0.1-0.7-0.1-1c0,0.4,0.2,0.7,0.4,1.1C47.7,53.1,47.5,53,47.4,53z"/>
	<path fill="#FFFFFF" d="M48.4,51.7c-0.1,0-0.2,0-0.3,0c-0.2,0-0.3-0.1-0.4-0.1c0.1,0,0.2,0.1,0.4,0.1
		C48.2,51.6,48.3,51.7,48.4,51.7z"/>
	<path fill="#FFFFFF" d="M49.4,55.5c-0.1-0.1-0.1-0.2-0.2-0.2c-0.2-0.3-0.5-0.7-0.8-1.1c0.1,0,0.1,0,0.2,0c0.2,0.4,0.4,0.7,0.6,1.1
		C49.3,55.3,49.4,55.4,49.4,55.5z"/>
	<path fill="#FFFFFF" d="M50.3,58.3c-0.2-0.8-0.3-1.6-0.6-2.2c0-0.1,0-0.1-0.1-0.2c-0.1-0.2-0.1-0.3-0.2-0.4
		c0.1,0.1,0.2,0.3,0.2,0.4c0,0.1,0.1,0.2,0.1,0.3C50,56.8,50.1,57.6,50.3,58.3z"/>
	<path fill="#FFFFFF" d="M51.9,51.8c-0.1,0-0.3,0-0.4,0c-0.1,0-0.2,0-0.3,0c-0.3,0-0.6,0-0.9,0c-0.1,0-0.1,0-0.2,0H50
		c-0.2,0-0.4,0-0.5,0c-0.2,0-0.3,0-0.4,0c0.1,0,0.3,0,0.4,0c0.1,0,0.3,0,0.4,0c0.5,0,1,0,1.5,0C51.5,51.8,51.7,51.8,51.9,51.8z"/>
	<path fill="#FFFFFF" d="M52.3,65.8c-0.1,0-0.2,0-0.2,0c-0.4,0-0.7,0.1-1,0.1c-0.7,0-1.3,0-1.8-0.1c-0.3-0.1-0.6-0.2-0.8-0.3
		c-0.1-0.1-0.1-0.1-0.1-0.2c0-0.1-0.1-0.1-0.1-0.2c0,0,0-0.1,0-0.1v0c0-0.3,0.1-0.7,0.2-1.1c0-0.1,0-0.1,0.1-0.2c0,0,0,0,0,0
		c0,0,0-0.1,0.1-0.1v0c0,0,0,0,0-0.1c0,0,0-0.1,0.1-0.1c0-0.1,0.1-0.2,0.2-0.3c0,0,0,0,0-0.1c0,0,0,0,0,0c0,0,0,0,0,0c0,0,0,0,0,0
		s0,0,0,0c0.1-0.2,0.2-0.4,0.3-0.6c-0.1,0.2-0.2,0.5-0.3,0.7c-0.1,0.2-0.2,0.3-0.2,0.5c0,0,0,0,0,0.1v0c0.7,0.3,1.6,0.5,2.3,0.5
		c0,0-0.1,0.5-0.1,1v0.2c0,0.2,0,0.3,0.1,0.5H52.3z"/>
	<path fill="#FFFFFF" d="M52.6,51.7c-0.1,0-0.2,0-0.4,0c0,0,0.1,0,0.1,0C52.5,51.7,52.5,51.7,52.6,51.7z"/>
	<path fill="#FFFFFF" d="M54.1,51.5c-0.2,0-0.5,0.1-0.8,0.1C53.6,51.6,53.9,51.5,54.1,51.5z"/>
	<path fill="#FFFFFF" d="M54.1,61.6L54.1,61.6c0-0.1-0.1-0.3-0.1-0.5C54.1,61.3,54.1,61.5,54.1,61.6z"/>
	<path fill="#FFFFFF" d="M54.1,57.1L54.1,57.1C54.1,57.1,54.1,57.1,54.1,57.1C54.1,57.1,54.1,57.1,54.1,57.1z"/>
	<path fill="#FFFFFF" d="M61.9,66.1C61.9,66.1,61.9,66,61.9,66.1c0-0.1,0-0.1,0-0.1c0-0.1-0.1-0.1-0.2-0.2l-1.1-0.4
		c-0.1,0-0.2-0.1-0.4-0.1c-0.3-0.1-0.5-0.2-0.8-0.3c-0.1,0-0.3-0.1-0.4-0.1c-0.1,0-0.2-0.1-0.4-0.2c-0.3-0.1-0.6-0.3-0.9-0.5
		c-0.9-0.7-3.6-1.9-3.7-2.2c0-0.1,0-0.2,0-0.2c0-0.2-0.1-0.4-0.1-0.6c0-0.3-0.1-0.7-0.1-1.1c0-0.4,0-0.8,0-1.2c0-0.1,0-0.1,0-0.2
		v-0.2c0-0.1,0-0.2,0-0.3c0,0,0,0,0,0c0-0.1,0-0.2,0-0.3v0c0-0.2,0-0.3,0-0.5c0,0,0,0,0,0c0,0,0-0.1,0-0.1c0,0,0,0,0,0s0,0,0,0v0
		c0-0.1,0-0.1,0-0.2c0-0.5,0-0.8,0.1-1.1c-0.1,0-0.2,0.1-0.3,0.1c0.1-0.3,0.1-0.6,0.2-0.9c0.1-0.4,0.2-0.7,0.3-1.1
		c0.1-0.3,0.2-0.7,0.2-1.1c0.1-0.3,0.1-0.6,0.2-0.9c0-0.2,0-0.3,0.1-0.4c-0.1,0-0.1,0-0.2,0c-0.1,0-0.3,0.1-0.5,0.1
		c-0.2,0-0.5,0.1-0.8,0.1c-0.2,0-0.5,0-0.7,0.1c-0.1,0-0.2,0-0.4,0h0c-0.1,0-0.2,0-0.3,0c-0.1,0-0.3,0-0.4,0c-0.1,0-0.2,0-0.3,0
		c-0.3,0-0.6,0-0.9,0c-0.1,0-0.1,0-0.2,0H50c-0.2,0-0.4,0-0.5,0c-0.2,0-0.3,0-0.4,0c-0.3,0-0.5-0.1-0.7-0.1c-0.1,0-0.2,0-0.3,0
		c-0.2,0-0.3-0.1-0.4-0.1c0,0-0.1,0-0.1-0.1c0,0-0.1,0-0.1,0c0,0.2-0.1,0.4-0.1,0.6c0,0.4,0.2,0.7,0.4,1.1c-0.1,0-0.2,0-0.3-0.1
		c0,0.1,0,0.2,0,0.2c0,0.1,0,0.1,0,0.2c0,0,0,0,0,0.1c0,0.2,0.1,0.3,0.1,0.5c0.1,0.3,0.2,0.7,0.3,1c0.1,0.3,0.2,0.6,0.3,1
		c0.1,0.2,0.2,0.5,0.2,0.7c0.1,0.2,0.2,0.5,0.2,0.7c0,0,0,0,0,0c0,0.1,0.1,0.2,0.1,0.3c0,0,0,0,0,0c0,0,0,0,0,0c0,0.1,0,0.2,0,0.2
		c0,0,0,0.1,0,0.1c0,0,0,0.1,0,0.2c0.1,0.3,0.2,0.6,0.2,0.8c0,0.2,0.1,0.4,0.1,0.5c0,0.2,0,0.3,0,0.5c0,0.2,0,0.3,0,0.4
		c0,0.2,0,0.4,0,0.6c0,0.1,0,0.2,0,0.3v0.1c0,0.1,0,0.2,0,0.4c0,0.1,0,0.2-0.1,0.3c-0.1,0.2-0.2,0.5-0.3,0.7
		c-0.1,0.2-0.2,0.3-0.2,0.5c0,0,0,0,0,0.1v0c0.7,0.3,1.6,0.5,2.3,0.5c0,0-0.1,0.5-0.1,1v0.2c0,0.2,0,0.3,0.1,0.5h1.3
		c1.7-0.3,4.2,0.4,6.9,0.5c-2.7-0.1-5.1-0.5-6.9-0.5c-0.1,0-0.2,0-0.2,0h0.2c1.8,0,4.3,0.5,7,0.5c0.1,0,0.3,0,0.4,0
		c-0.1,0.2-0.3,0.4-0.5,0.5c0.1,0,0.3,0,0.4,0h0c0,0,0,0,0,0c0,0,0,0,0,0h0.2c0.1,0,0.3,0,0.4,0c0,0,0,0,0,0c0,0,0.1,0,0.1,0
		c0.1,0,0.1,0,0.2,0c0.4-0.1,0.7-0.1,0.9-0.2c0.2-0.1,0.3-0.2,0.4-0.3v0c0,0,0,0,0,0v0C61.9,66.2,61.9,66.2,61.9,66.1
		C61.9,66.1,61.9,66.1,61.9,66.1z M49.7,56.1c0-0.1,0-0.1-0.1-0.2c-0.1-0.2-0.1-0.3-0.2-0.4c-0.1-0.1-0.1-0.2-0.2-0.2
		c-0.2-0.3-0.5-0.7-0.8-1.1c0.1,0,0.1,0,0.2,0c0.2,0.4,0.4,0.7,0.6,1.1c0,0.1,0.1,0.2,0.1,0.2c0.1,0.1,0.2,0.3,0.2,0.4
		C49.6,56,49.7,56,49.7,56.1c0.3,0.6,0.4,1.4,0.6,2.2C50.1,57.6,49.9,56.8,49.7,56.1z M60.6,66.4L60.6,66.4c-0.2,0-0.5,0-0.9,0
		c0.1-0.1,0.1-0.2,0.1-0.4c0-0.1,0-0.1,0-0.2l0.9,0.1c0,0,0,0.1,0,0.2C60.7,66.2,60.7,66.3,60.6,66.4z"/>
	<path fill="#FFFFFF" d="M54.9,51.4L54.9,51.4c0,0.1,0,0.1,0,0.2c0,0.1,0,0.2,0,0.3c0,0,0,0,0,0c0,0,0,0,0,0.1v0
		c0,0.2-0.1,0.4-0.1,0.6v0c0,0,0,0.1,0,0.1c0,0,0,0.1,0,0.1c0,0,0,0,0,0c0,0,0,0.1,0,0.2c0,0,0,0.1,0,0.1c0,0.1,0,0.2,0,0.2
		c0,0.1,0,0.2,0,0.3v0c0,0.1,0,0.1,0,0.2c0,0.1,0,0.2-0.1,0.3c0,0.1,0,0.2,0,0.2c0,0.1,0,0.2,0,0.3l-0.1,0.4c0,0,0,0,0,0
		c0,0.1,0,0.3-0.1,0.4c0,0.2,0,0.5-0.1,0.8c0,0,0,0,0,0c0,0.2,0,0.3,0,0.5c0,0,0,0,0,0.1c0,0,0,0,0,0v0c0-0.1,0-0.1,0-0.2
		c0-0.5,0-0.8,0.1-1.1c-0.1,0-0.2,0.1-0.3,0.1c0.1-0.3,0.1-0.6,0.2-0.9c0.1-0.4,0.2-0.7,0.3-1.1c0.1-0.3,0.2-0.7,0.2-1.1
		c0.1-0.3,0.1-0.6,0.2-0.9c0-0.2,0-0.3,0.1-0.4C54.8,51.4,54.8,51.4,54.9,51.4C54.9,51.4,54.9,51.4,54.9,51.4z"/>
	<path fill="#FFFFFF" d="M59.4,65c-0.1,0-0.3-0.1-0.4-0.1c-0.1,0-0.2-0.1-0.4-0.2c0.1,0,0.2,0.1,0.4,0.1
		C59.2,64.8,59.3,64.9,59.4,65z"/>
	<path fill="#FFFFFF" d="M60.6,65.3c-0.1,0-0.2-0.1-0.4-0.1c-0.3-0.1-0.5-0.2-0.8-0.3c0.1,0,0.3,0.1,0.4,0.1
		C60.1,65.2,60.3,65.3,60.6,65.3z"/>
	<path fill="#FFFFFF" d="M60.7,66.1c0,0.1,0,0.2-0.1,0.3h0c-0.2,0-0.5,0-0.9,0c0.1-0.1,0.1-0.2,0.1-0.4c0-0.1,0-0.1,0-0.2l0.9,0.1
		C60.7,66,60.7,66,60.7,66.1z"/>
	<path fill="#FFFFFF" d="M61.6,65.8l-1.1-0.4C61.1,65.5,61.5,65.6,61.6,65.8z"/>
	<path fill="#FFFFFF" d="M61.9,66.2L61.9,66.2C61.9,66.2,61.9,66.2,61.9,66.2L61.9,66.2L61.9,66.2z"/>
	<path fill="#FFFFFF" d="M46.1,29.1C46.1,29.1,46.1,29.1,46.1,29.1C46.1,29.1,46,29.1,46.1,29.1C46,29.1,46.1,29.1,46.1,29.1z"/>
	<path fill="#FFFFFF" d="M46.3,28.3h-0.2v-0.1C46.2,28.2,46.3,28.3,46.3,28.3z"/>
	<path fill="#FFFFFF" d="M55.1,29.3C55.1,29.3,55,29.3,55.1,29.3c-0.1,0-0.1,0-0.1,0C55,29.3,55,29.3,55.1,29.3
		C55,29.3,55.1,29.3,55.1,29.3C55.1,29.3,55.1,29.3,55.1,29.3z"/>
	<path fill="#FFFFFF" d="M39,51.6L39,51.6L39,51.6c0.1-0.1,0.1-0.2,0.1-0.3C39,51.4,39,51.5,39,51.6z M41.3,61.3c0-0.1,0-0.2,0-0.3
		C41.3,61.1,41.3,61.2,41.3,61.3z M43.8,51.3c0,0,0,0.1,0,0.1c0,0,0,0.1,0,0.1c0,0,0-0.1,0-0.1C43.8,51.4,43.8,51.3,43.8,51.3
		C43.8,51.3,43.8,51.3,43.8,51.3z"/>
	<path fill="#FFFFFF" d="M41.7,67c0,0.5-0.3,0.8-1.1,1c-1,0-2.2,0-3.2-0.2c-1.2-0.6-1.6-0.9-1.3-2c0-0.1,0-0.2,0.1-0.2h0
		c0.3-0.7,1.4-1.5,2.4-2.2c-0.6,0-1.2,0.5-1.2,0c0.2-1,0.6-1,0.9-1.5c-0.2-0.2,2.2-0.1,2.6,0.2v0c0,0.5,0.5,1.1,0.3,1.5
		c-0.1,0.2-0.3-0.1-0.6-0.2c0.1,0.8,0.4,2.1,0.9,3.2C41.6,66.7,41.7,66.9,41.7,67z"/>
	<path fill="#FFFFFF" d="M48.5,42.8c-0.4,0.9-1,1.8-1.8,2.6c-0.2,0.2-0.3,0.3-0.5,0.5c-0.2,0.2-0.4,0.3-0.6,0.5
		c-0.2,0.1-0.4,0.3-0.6,0.5v0c0,0.6-0.2,1.1-0.4,1.4c-0.5,0.8-1.2,1-1.4,2.2c0.1-0.1,0.1-0.2,0.2-0.2c0,0,0.1-0.1,0.1-0.1
		c0,0,0.1-0.1,0.1-0.1c0,0,0.1-0.1,0.1-0.1c0.1-0.1,0.2-0.1,0.2-0.1c0,0,0,0,0,0c0,0,0,0,0,0c0,0.1,0,0.3,0,0.4c0,0.4,0,0.7-0.1,1
		c0,0,0,0.1,0,0.1c0,0,0,0.1,0,0.1c0,0.1,0,0.1,0,0.2v0c0,0,0,0,0,0c-0.1,0.3-0.1,0.6-0.2,0.8c-0.1,0.5-0.3,1-0.4,1.4
		c-0.3,0.9-0.7,1.6-1,2.3c-0.2,0.4-0.3,0.7-0.5,1.1c-0.2,0.5-0.2,1.2-0.3,1.9s0,1.3-0.1,1.7c0,0.1,0,0.2,0,0.3c0,0,0,0,0,0
		c-1.1,0.2-2.8-0.2-3.3-0.4c0.2-1.6,0.2-3.2,0.3-4.8c0.1-1.4,0.2-2.9,0.6-4.5h0v0c0-0.1,0-0.2,0-0.3c0.1-0.2,0.1-0.5,0.2-0.7
		c0,0,0,0-0.1,0c0-0.1,0.1-0.3,0.1-0.4v0c0.4-1.1,1-1.9,1.9-2.9v0c0.2-0.3,0.5-0.6,0.7-0.9c-0.1-0.2-0.2-0.5-0.2-0.8
		c1.3-4.4,2.7-7.6,4.2-10.1c0.4,0.3,0.8,0.5,1.2,0.8c0.3,0.2,0.5,0.4,0.8,0.5C47.9,39.4,48.2,41.3,48.5,42.8z"/>
	<path fill="#FFFFFF" d="M54.7,13C54.6,13,54.6,13,54.7,13c-0.1-0.1-0.1-0.1-0.2-0.1c0,0,0,0,0,0s0,0,0,0h0c0,0-0.1,0-0.1,0
		c0,0,0.1,0,0.1,0.1c0,0,0,0,0,0C54.5,13,54.5,13,54.7,13c0,0.1,0.1,0.1,0.2,0.2c0.1,0,0.2,0.1,0.3,0.1C55,13.1,54.8,13,54.7,13z
		 M46.8,12.5C46.8,12.5,46.8,12.5,46.8,12.5L46.8,12.5L46.8,12.5c0-0.1-0.1-0.1-0.2-0.1c0,0,0,0,0,0c0,0-0.1,0-0.2,0h0
		c-0.1,0-0.2,0-0.3,0h0c-0.1,0-0.2,0-0.3,0.1c-0.2,0-0.5,0.1-0.7,0.1h0c0,0,0,0,0,0c0.1,0,0.1,0,0.2,0c0.1,0,0.2,0,0.4,0
		c0.3,0,0.6,0,0.9-0.1h0c0,0,0.1,0.1,0.1,0.1C46.7,12.6,46.8,12.6,46.8,12.5C46.8,12.6,46.8,12.6,46.8,12.5
		C46.8,12.6,46.8,12.5,46.8,12.5z M44.6,13C44.6,13,44.6,13,44.6,13c0,0,0.1,0,0.1,0H44.6z M41.6,12.4c0.1,0,0.2,0.1,0.2,0.1
		c0.1,0,0.2,0,0.3,0.1c0,0,0.1,0,0.1,0c0.1,0,0.1,0,0.2,0C42.1,12.6,41.9,12.5,41.6,12.4z"/>
	<path fill="#FFFFFF" d="M44.9,31.5C44.9,31.5,44.9,31.5,44.9,31.5c0,0.1,0,0.1-0.1,0.2c-0.1,0.1-0.2,0.3-0.4,0.5
		c-0.1,0.1-0.3,0.3-0.5,0.5c-0.1,0.1-0.1,0.1-0.1,0.1c-0.1,0.1-0.3,0.3-0.6,0.4c-0.1,0.1-0.2,0.2-0.3,0.2c0,0-0.1,0.1-0.1,0.1
		c-0.1,0.1-0.2,0.2-0.3,0.2c-0.2,0.1-0.4,0.1-0.6,0.1c-0.2,0-0.4-0.1-0.6-0.2c-0.4-0.2,0.1-0.2-0.4-0.6c-1-0.7-1.5-1.2-1.3-2.3
		c0,0,0-0.1,0-0.1c0-0.1,0-0.2,0.1-0.3c0-0.3,0.5-0.6,1-1c0.1,0,0.2,0,0.3,0c0,0,0.1,0,0.1,0c0.7,0,1.4,0.1,2,0.5
		c0.3,0.1,0.5,0.3,0.7,0.5c0.1,0.1,0.2,0.2,0.4,0.3C44.7,30.9,45,31.2,44.9,31.5z"/>
	<path fill="#FFFFFF" d="M31,43.3c-0.3,0-0.6,0-0.9-0.1c-0.2,0-0.4,0-0.6,0c-0.2,0-0.3,0-0.4,0c1,0,1.9,0,2.7,0.2
		C31.5,43.4,31.2,43.4,31,43.3z M27.4,21.8c-0.8,0.4-1.6,0.8-2.5,1.2c0.4-0.2,0.7-0.4,1.1-0.5c0.4-0.2,0.7-0.3,1-0.5
		c0.2-0.1,0.3-0.1,0.5-0.2c0.2-0.1,0.3-0.1,0.5-0.2C27.8,21.6,27.6,21.7,27.4,21.8z M30.7,20.3c0,0-0.1,0-0.1,0c0,0-0.1,0-0.2,0.1
		c-0.1,0-0.2,0.1-0.3,0.1c-0.2,0.1-0.4,0.2-0.6,0.3c-0.3,0.1-0.7,0.3-1,0.5c-0.2,0.1-0.4,0.2-0.6,0.3c0,0,0,0,0,0
		c0.1,0,0.2-0.1,0.2-0.1c0.2-0.1,0.4-0.2,0.6-0.3c0.4-0.2,0.7-0.3,1-0.5c0.2-0.1,0.4-0.2,0.5-0.2C30.5,20.4,30.7,20.3,30.7,20.3
		C30.8,20.3,30.8,20.2,30.7,20.3C30.8,20.2,30.8,20.2,30.7,20.3z M22.4,24.1c-0.5,0.2-0.9,0.5-1.4,0.7c0.8-0.4,1.5-0.7,2.4-1.1
		c0.2-0.1,0.3-0.2,0.5-0.3C23.4,23.6,22.9,23.9,22.4,24.1z M17.6,26.5c-0.2,0.1-0.3,0.2-0.5,0.2c-0.1,0-0.2,0.1-0.2,0.1
		c-0.1,0-0.2,0.1-0.2,0.1c0,0,0,0,0,0c-0.1,0-0.2,0.1-0.3,0.1c-0.1,0-0.1,0.1-0.2,0.1c-0.2,0.1-0.3,0.2-0.5,0.2c0,0,0,0,0,0h0
		c0,0,0,0,0,0c1-0.6,2.1-1.1,3.1-1.7C18.4,26.1,18,26.3,17.6,26.5z"/>
	<path fill="#FFFFFF" d="M41.4,35.7c-1.1,3.2-1.8,6.8-0.9,10.5c-0.5,0.7-1.1,1.3-1.5,1.9c-0.5-0.1-1-0.5-1.3-0.9c0,0,0,0,0,0
		c-0.6-0.9-1.3-1.6-2.2-2.3c0,0,0,0,0,0c-1.5-1.1-3.4-1.7-6-1.7c-0.1,0-0.3,0-0.4,0c-6.8,0.2-9.4-2.6-9.9-7.9
		c-0.3-2.8-1-5.5-2.5-7.1c4.3-2.4,10.4-5.5,12.3-6.1c0.2-0.1,0.4-0.1,0.6-0.2c-0.2,0.5,0.1,1.3,0.3,2c0.1,0.3,0.2,0.5,0.3,0.7
		c1.5,3.4,5.9,3.7,9,6.3c0,0.4,0,0.8,0.2,1.1c0.2,0.5,1.1,1.2,1.1,1.2c-0.2,0.2-0.1,0.5-0.1,0.5c0.5,0.6,1.4,0.7,1.6,0.7
		C41.7,34.9,41.5,35.3,41.4,35.7z"/>
	<path fill="#FFFFFF" d="M12.7,29.3c0.1-0.1,0.2-0.1,0.4-0.2C12.9,29.2,12.8,29.3,12.7,29.3L12.7,29.3z"/>
	<path fill="#FFFFFF" d="M16.6,28.3C16.6,28.3,16.6,28.3,16.6,28.3C16.6,28.3,16.6,28.3,16.6,28.3C16.3,28.4,16.3,28.4,16.6,28.3
		C16.5,28.2,16.5,28.2,16.6,28.3C16.6,28.2,16.6,28.2,16.6,28.3C16.6,28.2,16.6,28.3,16.6,28.3z"/>
	<path fill="#FFFFFF" d="M23.9,23.4c0.3-0.2,0.7-0.3,1-0.5C24.5,23.1,24.2,23.3,23.9,23.4C23.8,23.4,23.8,23.4,23.9,23.4
		c-0.2,0.1-0.4,0.3-0.5,0.4c-0.8,0.3-1.6,0.7-2.3,1.1c0,0,0,0,0,0c-0.7,0.4-1.4,0.7-2.1,1.1c0.5-0.3,1-0.5,1.6-0.8c0,0,0,0,0,0
		C21.6,24.5,22.8,23.9,23.9,23.4L23.9,23.4z"/>
	<path fill="#FFFFFF" d="M44,21.2c-0.2-1,0.4-2,1.3-1.8c-1.5-0.5-2.6-1.3-3.1-1.9c0,0-0.1-0.1-0.1-0.1h0c-0.1,0.1-0.2,0.3-0.3,0.4
		c0.2,1.5-0.3,2.7-1,3.5c0.7,0.8,1.8,2,2.5,2.4c0.7,0.4,1.2,0.5,2.4,0.3C45,22.6,44.1,21.9,44,21.2z M46,29.1
		c-0.2,0-0.3-0.1-0.4-0.1s-0.2-0.1-0.3-0.1c-0.1,0-0.2-0.1-0.2-0.1c-0.1,0-0.1-0.1-0.2-0.1c-0.1,0-0.1-0.1-0.1-0.1c0,0,0,0,0,0
		c0,0.1,0,0.3-0.1,0.5c0,0.2,0,0.4-0.1,0.5c0,0,0,0,0,0c0,0.1-0.1,0.2-0.1,0.3c0,0,0.1,0.1,0.1,0.1c0.2,0.3,0.7,0.6,1,1
		c0.1-0.3,0.2-0.8,0.4-1.4C46,29.5,46,29.3,46,29.1C46.1,29.1,46.1,29.1,46,29.1L46,29.1z M45.7,24c-0.4,0.5-0.7,0.7-1.3,1
		c0,0.5,0.2,1.4,0.4,2.4c0.2,0.2,0.8,0.5,1.4,0.8c0-0.3,0.1-0.7,0.1-1.1C46.3,25.8,46,24.8,45.7,24z M48.3,50.9c0,0,0.2,0,0.1,0
		c0.1,0,0.1,0,0.2,0c0.1,0,0.2,0,0.2,0c0.4,0.1,0.9,0.1,1.5,0.2c0,0,0,0,0,0c0.2-0.4,0.9-1.5,1.4-2.2c0.6-0.9,0.3-1.1,0-3.2
		c-0.2-1.9-0.8-5.8-0.9-8.7v-0.7l-0.2,0.6l0,0.1h0.1c-0.5,2.4-0.4,4.3-1.4,6.3c0.7,1.9,1.4,2.8,1.5,5.4
		C49.5,48.7,48.6,49.8,48.3,50.9 M52.2,8.9c0,0,0-0.1,0-0.1c0-0.2,0-0.4,0-0.4l0,0l-0.2,0.2L51.3,9l-0.2,0.1l-0.1,0.1h0L51,9.3h0
		l-1,0.8l-0.1,0.1l-1.6-0.3l-1.4-0.2l-0.1-0.3l0,0L46.6,9l-0.1-0.3h0l-0.5,0h0l-0.4,0c0,0,0,0,0,0.1c0,0,0,0.1,0,0.1
		c0.3,0.7,0.7,1.2,1.2,1.5c0.1,0.1,0.2,0.2,0.4,0.2c0.2,0.1,0.4,0.2,0.6,0.2c0.1,0,0.2,0.1,0.4,0.1C48.6,11,49,11,49.6,11
		c0.6,0,1.2-0.1,1.7-0.3c0.3-0.1,0.6-0.3,0.8-0.5c0,0,0,0,0,0C52.2,9.9,52.2,9.3,52.2,8.9z"/>
	<path fill="#FFFFFF" d="M55.3,12.6c0,0.1-0.1,0.2-0.1,0.2c0,0,0,0,0,0c-0.1,0.1-0.2,0.3-0.2,0.3c0,0-0.2,0-0.4-0.1c0,0-0.1,0-0.1,0
		c0,0,0,0-0.1,0c0,0,0,0,0,0h0c-0.2-0.1-0.4-0.2-0.5-0.2c-0.1,0-0.2,0-0.3,0h-0.2c0,0,0,0,0,0c-0.8,0.1-1.3,0.3-1.8,0.4
		c-0.2,0.1-0.4,0.1-0.7,0.2c-0.4,0.1-0.9,0.1-1.5-0.1c-0.3-0.1-0.6-0.1-0.9-0.2c-0.1,0-0.2-0.1-0.3-0.1c-0.5-0.1-0.9-0.2-1.3-0.3
		c0,0,0,0,0,0c0,0,0,0-0.1,0c-0.1,0-0.2,0-0.2,0c0,0,0,0,0,0h0c-0.2,0-0.5,0-0.8,0c-0.1,0-0.2,0-0.3,0l0-0.1l0.2-0.8l0-0.1l0,0
		l0-0.1l0-0.1c0,0,0,0,0.1,0c0.2,0.1,0.4,0.2,0.6,0.3c0.6,0.3,1.3,0.5,2,0.7c0.1,0,0.2,0.1,0.4,0.1c0.6,0.2,1.1,0.3,1.3,0.3
		c0.1,0,0.1,0,0.2,0c0.1,0,0.2,0,0.3-0.1c0,0,0.1,0,0.1,0h0c0.5-0.2,1-0.5,1.4-0.7c0.1-0.1,0.2-0.1,0.3-0.2c0,0,0,0,0,0
		c0,0,0.1,0,0.1-0.1c0.1,0,0.2-0.1,0.3-0.1c0.1,0,0.1,0,0.2,0c0.2,0,0.3,0,0.5,0c0,0,0,0,0,0c0.2,0,0.3,0,0.4,0.1
		c0.1,0,0.1,0,0.2,0.1c0.1,0,0.1,0.1,0.2,0.1c0.1,0,0.2,0.1,0.2,0.1C54.9,12.1,55.1,12.3,55.3,12.6C55.3,12.5,55.4,12.5,55.3,12.6z"
		/>
	<path fill="#FFFFFF" d="M55.8,13.3c0,0.1-0.2,0.1-0.3,0c-0.1,0-0.2,0-0.2,0c0,0-0.1,0-0.1,0c0,0,0,0,0,0c-0.2-0.1-0.5-0.1-0.6-0.2
		c0,0,0,0-0.1,0c0,0,0,0,0,0c-0.1,0-0.1-0.1-0.2-0.1h0c-0.1-0.1-0.3-0.1-0.4-0.2h0c-0.1,0-0.3-0.1-0.4-0.1c0,0-0.1,0-0.1,0
		c0,0,0,0-0.1,0c-0.8,0.1-1.4,0.3-1.8,0.4h0c-0.2,0.1-0.5,0.1-0.7,0.2h0c-0.4,0.1-0.8,0.1-1.5-0.1C49,13,48.7,13,48.5,12.9
		c0,0-0.1,0-0.1,0c0,0,0,0,0,0c-0.5-0.2-1-0.3-1.5-0.3c0,0,0,0,0,0c0,0,0,0,0,0c0,0,0,0,0,0c0,0-0.1,0-0.1,0c-0.1,0-0.2,0-0.3,0
		c-0.1,0-0.2,0-0.3,0c0,0,0,0,0,0c-0.2,0-0.4,0-0.6,0c0,0-0.1,0-0.1,0l0.1-0.8l0-0.2c0,0,0,0,0.1,0c0,0,0.1,0,0.1,0
		c0,0,0.1,0,0.1,0.1c0,0,0,0,0.1,0c0.2,0.1,0.5,0.2,0.7,0.3c0.6,0.2,1.3,0.4,1.9,0.5c0.1,0,0.2,0,0.3,0.1c0,0,0,0,0,0
		c0.6,0.1,1.1,0.3,1.3,0.3c0.1,0,0.2,0,0.3,0h0c0.1,0,0.2,0,0.3-0.1c0,0,0.1,0,0.1,0c0,0,0,0,0,0c0.5-0.2,1.1-0.5,1.4-0.7
		c0.1,0,0.1-0.1,0.2-0.1c0,0,0.1-0.1,0.1-0.1c0,0,0.1,0,0.1-0.1c0,0,0,0,0,0c0.1,0,0.2-0.1,0.3-0.1c0.2-0.1,0.5-0.1,0.7,0
		c0,0,0,0,0,0c0.4,0,0.7,0.2,1,0.4c0.2,0.1,0.4,0.3,0.5,0.4c0,0,0.1,0.1,0.1,0.1C55.7,12.9,55.8,13.2,55.8,13.3z"/>
	<path fill="#FFFFFF" d="M16.6,28.3C16.3,28.4,16.3,28.4,16.6,28.3C16.5,28.3,16.6,28.3,16.6,28.3z"/>
	<path fill="#FFFFFF" d="M37.7,47.2c-0.6-0.9-1.3-1.6-2.2-2.3C36.4,45.6,37.1,46.3,37.7,47.2z"/>
</g>
</svg>
