<?xml version="1.0" encoding="utf-8"?>
<!-- Generator: Adobe Illustrator 25.2.3, SVG Export Plug-In . SVG Version: 6.00 Build 0)  -->
<svg version="1.1" baseProfile="basic" id="Layer_1"
	 xmlns="http://www.w3.org/2000/svg" xmlns:xlink="http://www.w3.org/1999/xlink" x="0px" y="0px" viewBox="0 0 68 68"
	 xml:space="preserve">
<rect x="-25" y="-22" display="none" fill="#2B2B60" width="762" height="265"/>
<path d="M0,0v68h68V0H0z M35.8,58.2c-1,2-2.9,3.4-5.1,4c-3.4,0.8-6.7,0.3-9.1-1.1c-1.6-1-2.9-2.5-3.8-4.3c1.7-1,3.4-2.1,5.2-3.2
	c0,0,0.2,0.3,0.4,0.6c0.7,1.1,1.2,1.9,2.3,2.4c1.1,0.4,3.5,0.6,4.4-1.3c0.6-1,0.4-4.2,0.4-7.7c0-5.5,0-11,0-16.5H37
	c0,5.8,0,11.7,0,17.5C37,52.3,37.3,55.6,35.8,58.2z M62.2,56.4C60,64,47.7,64.2,42.8,59.2c-1-1.2-1.7-1.8-2.3-3.2
	c2.6-1.5,2.6-1.5,5.2-3c1.4,2.1,2.7,3.3,5,3.8c3.1,0.4,6.3-0.7,5.6-4c-0.7-2.7-6.4-3.4-10.2-6.3c-3.9-2.6-4.8-9-1.6-12.7
	c1.1-1.4,2.9-2.4,4.8-2.8c0.7-0.1,1.3-0.2,2-0.3c3.9-0.1,6.2,0.9,8,2.9c0.5,0.5,0.9,1,1.7,2.2c-2,1.3-2,1.3-5,3.2
	c-0.6-1.4-1.7-2.2-2.8-2.6c-1.7-0.5-3.9,0-4.3,1.8c-0.2,0.6-0.1,1.1,0.1,2c0.7,1.6,3,2.3,5.1,3.2c6,2.4,8,5,8.5,8.1
	C62.9,54.4,62.3,56.2,62.2,56.4z"/>
</svg>
