<?xml version="1.0" encoding="utf-8"?>
<!-- Generator: Adobe Illustrator 25.2.3, SVG Export Plug-In . SVG Version: 6.00 Build 0)  -->
<svg version="1.1" baseProfile="basic" id="Layer_1"
	 xmlns="http://www.w3.org/2000/svg" xmlns:xlink="http://www.w3.org/1999/xlink" x="0px" y="0px" viewBox="0 0 68 68"
	 xml:space="preserve">
<rect x="-192" y="-113" display="none" fill="#2B2B60" width="762" height="265"/>
<g>
	<g>
		<path d="M68,34.3c0-4.5-5.6-8.8-14.3-11.4c2-8.8,1.1-15.8-2.8-18.1C50,4.2,49,4,47.8,4v2.7c0,0,1.7,0.1,2.2,0.4
			c1.9,1.1,2.7,5.3,2.1,10.6c-0.2,1.3-0.4,2.7-0.7,4.1c-2.8-0.7-5.8-1.2-8.9-1.5c-1.9-2.6-3.9-5-5.8-7C41.2,9,48.9,6.7,48.9,6.7V3.5
			c-4,0-9.1,2.8-14.4,7.7c-5.2-4.9-10.4-7.7-14.4-7.7v3.6c2.9,0,7.1,2.3,11.6,6.5c-1.9,2-3.9,4.4-5.7,6.9c-3.1,0.3-6.1,0.8-8.8,1.5
			c-0.3-1.4-0.6-2.7-0.7-4c-0.7-5.3,0.2-9.4,2-10.5c0.4-0.2,1-0.4,1.6-0.4V4C19,4,17.9,4.3,17,4.8c-3.9,2.2-4.8,9.2-2.8,18
			C5.6,25.5,0,29.8,0,34.3c0,4.5,5.6,8.8,14.3,11.4c-2,8.8-1.1,15.8,2.8,18.1c0.9,0.5,2,0.8,3.1,0.8c3.8,0,8.8-2.7,13.8-7.4
			c5,4.7,10,7.4,13.8,7.4c1.2,0,2.2-0.2,3.1-0.8c3.9-2.2,4.8-9.2,2.8-18C62.4,43,68,38.8,68,34.3L68,34.3z M50.6,24.9
			c-0.5,1.8-1.2,3.7-1.9,5.6c-0.6-1.1-1.2-2.2-1.8-3.4c-0.6-1.1-1.3-2.2-2-3.3C46.8,24.1,48.7,24.4,50.6,24.9L50.6,24.9z M44.1,39.9
			c-1.1,1.9-2.2,3.7-3.4,5.4c-2.1,0.2-4.2,0.3-6.4,0.3c-2.1,0-4.2-0.1-6.3-0.3c-1.2-1.7-2.3-3.5-3.4-5.3c-1.1-1.8-2-3.7-2.9-5.6
			c0.9-1.9,1.9-3.8,2.9-5.6c1.1-1.9,2.2-3.7,3.4-5.4c2.1-0.2,4.2-0.3,6.4-0.3c2.1,0,4.2,0.1,6.3,0.3c1.2,1.7,2.3,3.5,3.4,5.3
			c1.1,1.8,2,3.7,2.9,5.6C46.1,36.1,45.2,38,44.1,39.9L44.1,39.9z M48.7,38c0.8,1.9,1.4,3.8,1.9,5.6c-1.8,0.4-3.8,0.8-5.8,1.1
			c0.7-1.1,1.4-2.2,2-3.3C47.5,40.3,48.1,39.2,48.7,38L48.7,38z M34.4,53c-1.3-1.3-2.6-2.9-3.9-4.5c1.3,0.1,2.6,0.1,3.9,0.1
			c1.3,0,2.6,0,3.9-0.1C37,50.2,35.7,51.7,34.4,53z M23.9,44.7c-2-0.3-3.9-0.7-5.8-1.1c0.5-1.8,1.2-3.7,1.9-5.6
			c0.6,1.1,1.2,2.2,1.8,3.4S23.3,43.7,23.9,44.7z M34.3,15.5c1.3,1.3,2.6,2.9,3.9,4.5c-1.3-0.1-2.6-0.1-3.9-0.1
			c-1.3,0-2.6,0-3.9,0.1C31.7,18.4,33,16.8,34.3,15.5z M23.9,23.8c-0.7,1.1-1.4,2.2-2,3.3c-0.6,1.1-1.3,2.2-1.8,3.4
			c-0.8-1.9-1.4-3.8-1.9-5.6C20,24.5,21.9,24.1,23.9,23.8L23.9,23.8z M11.2,41.4c-5-2.1-8.2-4.9-8.2-7.1c0-2.2,3.2-5,8.2-7.1
			c1.2-0.5,2.5-1,3.9-1.4c0.8,2.8,1.9,5.6,3.2,8.6c-1.3,2.9-2.3,5.8-3.1,8.5C13.8,42.4,12.4,41.9,11.2,41.4L11.2,41.4z M18.8,61.5
			c-1.9-1.1-2.7-5.3-2.1-10.6c0.2-1.3,0.4-2.7,0.7-4.1c2.8,0.7,5.8,1.2,8.9,1.5c1.9,2.6,3.9,5,5.8,7c-4.6,4.3-8.9,6.6-11.8,6.6
			C19.7,61.8,19.2,61.7,18.8,61.5L18.8,61.5z M52.1,50.8c0.7,5.4-0.2,9.5-2.1,10.7c-0.4,0.3-1,0.4-1.6,0.4c-2.9,0-7.2-2.3-11.8-6.5
			c2-2.1,3.9-4.4,5.8-7c3.2-0.3,6.2-0.9,8.9-1.5C51.7,48.1,52,49.4,52.1,50.8z M57.5,41.4c-1.2,0.5-2.5,1-3.9,1.4
			c-0.8-2.8-1.9-5.6-3.2-8.6c1.3-2.9,2.3-5.8,3.1-8.5c1.4,0.4,2.7,0.9,3.9,1.4c5,2.1,8.2,4.9,8.2,7.1C65.7,36.5,62.5,39.3,57.5,41.4
			L57.5,41.4z"/>
		<circle cx="34.4" cy="34.3" r="6.4"/>
	</g>
</g>
</svg>
