<?xml version="1.0" encoding="utf-8"?>
<!-- Generator: Adobe Illustrator 26.0.1, SVG Export Plug-In . SVG Version: 6.00 Build 0)  -->
<svg version="1.2" baseProfile="tiny" id="Layer_1" xmlns="http://www.w3.org/2000/svg" xmlns:xlink="http://www.w3.org/1999/xlink"
	 x="0px" y="0px" width="68px" height="68px" viewBox="0 0 68 68" overflow="visible" xml:space="preserve">
<rect x="-358" y="-191" display="none" fill="#2B2B60" width="762" height="265"/>
<path d="M0,0v34v34h68V0H0z M38.9,36.9H30V62h-6.3V36.9h-8.8v-2.8l0.1,0v-2.8l11.9-0.1c6.5,0,11.9,0,11.9,0.1c0.1,0,0.1,1.3,0.1,2.8
	V36.9z M61.9,56.9c-1.1,2.8-3.7,4.8-7.5,5.4c-1.2,0.2-3.9,0.2-5.2-0.1c-2.7-0.5-5.3-1.9-6.9-3.6c-0.6-0.7-1.8-2.5-1.8-2.6l0.6-0.4
	l2.6-1.5l1.9-1.1l0.4,0.6c0.6,0.9,1.8,2.1,2.5,2.5c2.2,1.1,5.2,1,6.6-0.3c0.6-0.6,0.9-1.2,0.9-2c0-0.8-0.1-1.1-0.5-1.7
	c-0.5-0.7-1.6-1.4-4.7-2.7c-3.5-1.5-5-2.4-6.4-3.9c-0.8-0.9-1.5-2.3-1.9-3.4c-0.3-1-0.3-3.4-0.1-4.4c0.7-3.4,3.3-5.8,7-6.5
	c1.2-0.2,4-0.1,5.2,0.2l0,0c1.7,0.4,3.1,1.2,4.2,2.4c0.6,0.7,1.6,1.9,1.6,2.2c0,0.1-2.9,2.1-4.7,3.2c-0.1,0.1-0.3-0.2-0.6-0.7
	c-0.9-1.3-1.8-1.8-3.2-1.9c-2-0.1-3.4,0.9-3.4,2.7c0,0.5,0.1,0.8,0.3,1.3c0.5,0.9,1.3,1.5,3.9,2.7c4.9,2.1,7,3.5,8.2,5.4
	C62.5,50.8,62.8,54.3,61.9,56.9z"/>
</svg>
