<?xml version="1.0" encoding="utf-8"?>
<!-- Generator: Adobe Illustrator 25.2.3, SVG Export Plug-In . SVG Version: 6.00 Build 0)  -->
<svg version="1.1" baseProfile="basic" id="Layer_1"
	 xmlns="http://www.w3.org/2000/svg" xmlns:xlink="http://www.w3.org/1999/xlink" x="0px" y="0px" viewBox="0 0 68 68"
	 xml:space="preserve">
<rect x="-277" y="-113" display="none" fill="#2B2B60" width="762" height="265"/>
<g>
	<path d="M0.9,24c0,0-1.6-1.2,0.3-2.7l4.6-4.1c0,0,1.3-1.4,2.7-0.2l42.1,31.9v15.3c0,0,0,2.4-3.1,2.1L0.9,24z"/>
	<path d="M12,33.8L1.1,43.7c0,0-1.1,0.8,0,2.3l5,4.6c0,0,1.2,1.3,3-0.2l11.5-8.7L12,33.8z"/>
	<path d="M30.7,33.9l19.9-15.2L50.5,3.5c0,0-0.8-3.3-3.7-1.6L20.3,26L30.7,33.9z"/>
	<path d="M47.4,67.1c1.2,1.2,2.6,0.8,2.6,0.8L66,60.1c2-1.4,1.8-3.1,1.8-3.1V10.2c0-2.1-2.1-2.8-2.1-2.8L51.8,0.7
		c-3-1.9-5,0.3-5,0.3s2.5-1.8,3.8,1.6v61.9c0,0.4-0.1,0.8-0.3,1.2c-0.4,0.7-1.2,1.4-3,1.1L47.4,67.1z"/>
</g>
</svg>
