<?xml version="1.0" encoding="utf-8"?>
<!-- Generator: Adobe Illustrator 25.2.3, SVG Export Plug-In . SVG Version: 6.00 Build 0)  -->
<svg version="1.1" baseProfile="basic" id="Layer_1"
	 xmlns="http://www.w3.org/2000/svg" xmlns:xlink="http://www.w3.org/1999/xlink" x="0px" y="0px" viewBox="0 0 68 68"
	 xml:space="preserve">
<rect x="-542" y="-22" display="none" fill="#2B2B60" width="762" height="265"/>
<g>
	<path fill="#FFFFFF" d="M7.4,22.1C5.7,25.9,4.8,29.9,4.8,34c0,11.5,6.7,21.5,16.4,26.2L7.4,22.1z M48.4,17.6c0-2.7,2-5.2,4.9-5.2
		c0.1,0,0.2,0,0.4,0C48.5,7.7,41.6,4.8,34,4.8C23.8,4.8,14.8,10.1,9.6,18c0.7,0,1.3,0,1.9,0c3.1,0,7.8-0.4,7.8-0.4
		c1.6-0.1,1.8,2.2,0.2,2.4c0,0-1.6,0.2-3.3,0.3l10.6,31.6l6.4-19.1l-4.5-12.5C27,20.2,25.5,20,25.5,20c-1.6-0.1-1.4-2.5,0.2-2.4
		c0,0,4.8,0.4,7.7,0.4c3,0,7.8-0.4,7.8-0.4c1.6-0.1,1.8,2.2,0.2,2.4c0,0-1.6,0.2-3.3,0.3l10.5,31.4l2.9-9.7c1.3-4,2.2-6.9,2.2-9.4
		c0-3.6-1.3-6.1-2.4-8C49.8,22.1,48.4,20,48.4,17.6z M43.5,61.1l-9-24.6L25.8,62c2.7,0.8,5.4,1.2,8.2,1.2c3.4,0,6.7-0.6,9.7-1.7
		C43.6,61.4,43.5,61.2,43.5,61.1z M59.6,20c0.1,0.9,0.2,1.9,0.2,3c0,2.9-0.6,6.3-2.2,10.4l-8.9,25.8c8.7-5.1,14.5-14.4,14.5-25.2
		C63.2,28.9,61.9,24.2,59.6,20z M7.4,22.1C5.7,25.9,4.8,29.9,4.8,34c0,11.5,6.7,21.5,16.4,26.2L7.4,22.1z M43.5,61.1l-9-24.6
		L25.8,62c2.7,0.8,5.4,1.2,8.2,1.2c3.4,0,6.7-0.6,9.7-1.7C43.6,61.4,43.5,61.2,43.5,61.1z M48.4,17.6c0-2.7,2-5.2,4.9-5.2
		c0.1,0,0.2,0,0.4,0C48.5,7.7,41.6,4.8,34,4.8C23.8,4.8,14.8,10.1,9.6,18c0.7,0,1.3,0,1.9,0c3.1,0,7.8-0.4,7.8-0.4
		c1.6-0.1,1.8,2.2,0.2,2.4c0,0-1.6,0.2-3.3,0.3l10.6,31.6l6.4-19.1l-4.5-12.5C27,20.2,25.5,20,25.5,20c-1.6-0.1-1.4-2.5,0.2-2.4
		c0,0,4.8,0.4,7.7,0.4c3,0,7.8-0.4,7.8-0.4c1.6-0.1,1.8,2.2,0.2,2.4c0,0-1.6,0.2-3.3,0.3l10.5,31.4l2.9-9.7c1.3-4,2.2-6.9,2.2-9.4
		c0-3.6-1.3-6.1-2.4-8C49.8,22.1,48.4,20,48.4,17.6z M59.6,20c0.1,0.9,0.2,1.9,0.2,3c0,2.9-0.6,6.3-2.2,10.4l-8.9,25.8
		c8.7-5.1,14.5-14.4,14.5-25.2C63.2,28.9,61.9,24.2,59.6,20z M48.4,17.6c0-2.7,2-5.2,4.9-5.2c0.1,0,0.2,0,0.4,0
		C48.5,7.7,41.6,4.8,34,4.8C23.8,4.8,14.8,10.1,9.6,18c0.7,0,1.3,0,1.9,0c3.1,0,7.8-0.4,7.8-0.4c1.6-0.1,1.8,2.2,0.2,2.4
		c0,0-1.6,0.2-3.3,0.3l10.6,31.6l6.4-19.1l-4.5-12.5C27,20.2,25.5,20,25.5,20c-1.6-0.1-1.4-2.5,0.2-2.4c0,0,4.8,0.4,7.7,0.4
		c3,0,7.8-0.4,7.8-0.4c1.6-0.1,1.8,2.2,0.2,2.4c0,0-1.6,0.2-3.3,0.3l10.5,31.4l2.9-9.7c1.3-4,2.2-6.9,2.2-9.4c0-3.6-1.3-6.1-2.4-8
		C49.8,22.1,48.4,20,48.4,17.6z M43.5,61.1l-9-24.6L25.8,62c2.7,0.8,5.4,1.2,8.2,1.2c3.4,0,6.7-0.6,9.7-1.7
		C43.6,61.4,43.5,61.2,43.5,61.1z M7.4,22.1C5.7,25.9,4.8,29.9,4.8,34c0,11.5,6.7,21.5,16.4,26.2L7.4,22.1z M59.6,20
		c0.1,0.9,0.2,1.9,0.2,3c0,2.9-0.6,6.3-2.2,10.4l-8.9,25.8c8.7-5.1,14.5-14.4,14.5-25.2C63.2,28.9,61.9,24.2,59.6,20z M7.4,22.1
		C5.7,25.9,4.8,29.9,4.8,34c0,11.5,6.7,21.5,16.4,26.2L7.4,22.1z M43.5,61.1l-9-24.6L25.8,62c2.7,0.8,5.4,1.2,8.2,1.2
		c3.4,0,6.7-0.6,9.7-1.7C43.6,61.4,43.5,61.2,43.5,61.1z M48.4,17.6c0-2.7,2-5.2,4.9-5.2c0.1,0,0.2,0,0.4,0
		C48.5,7.7,41.6,4.8,34,4.8C23.8,4.8,14.8,10.1,9.6,18c0.7,0,1.3,0,1.9,0c3.1,0,7.8-0.4,7.8-0.4c1.6-0.1,1.8,2.2,0.2,2.4
		c0,0-1.6,0.2-3.3,0.3l10.6,31.6l6.4-19.1l-4.5-12.5C27,20.2,25.5,20,25.5,20c-1.6-0.1-1.4-2.5,0.2-2.4c0,0,4.8,0.4,7.7,0.4
		c3,0,7.8-0.4,7.8-0.4c1.6-0.1,1.8,2.2,0.2,2.4c0,0-1.6,0.2-3.3,0.3l10.5,31.4l2.9-9.7c1.3-4,2.2-6.9,2.2-9.4c0-3.6-1.3-6.1-2.4-8
		C49.8,22.1,48.4,20,48.4,17.6z M59.6,20c0.1,0.9,0.2,1.9,0.2,3c0,2.9-0.6,6.3-2.2,10.4l-8.9,25.8c8.7-5.1,14.5-14.4,14.5-25.2
		C63.2,28.9,61.9,24.2,59.6,20z M48.4,17.6c0-2.7,2-5.2,4.9-5.2c0.1,0,0.2,0,0.4,0C48.5,7.7,41.6,4.8,34,4.8
		C23.8,4.8,14.8,10.1,9.6,18c0.7,0,1.3,0,1.9,0c3.1,0,7.8-0.4,7.8-0.4c1.6-0.1,1.8,2.2,0.2,2.4c0,0-1.6,0.2-3.3,0.3l10.6,31.6
		l6.4-19.1l-4.5-12.5C27,20.2,25.5,20,25.5,20c-1.6-0.1-1.4-2.5,0.2-2.4c0,0,4.8,0.4,7.7,0.4c3,0,7.8-0.4,7.8-0.4
		c1.6-0.1,1.8,2.2,0.2,2.4c0,0-1.6,0.2-3.3,0.3l10.5,31.4l2.9-9.7c1.3-4,2.2-6.9,2.2-9.4c0-3.6-1.3-6.1-2.4-8
		C49.8,22.1,48.4,20,48.4,17.6z M43.5,61.1l-9-24.6L25.8,62c2.7,0.8,5.4,1.2,8.2,1.2c3.4,0,6.7-0.6,9.7-1.7
		C43.6,61.4,43.5,61.2,43.5,61.1z M7.4,22.1C5.7,25.9,4.8,29.9,4.8,34c0,11.5,6.7,21.5,16.4,26.2L7.4,22.1z M59.6,20
		c0.1,0.9,0.2,1.9,0.2,3c0,2.9-0.6,6.3-2.2,10.4l-8.9,25.8c8.7-5.1,14.5-14.4,14.5-25.2C63.2,28.9,61.9,24.2,59.6,20z M7.4,22.1
		C5.7,25.9,4.8,29.9,4.8,34c0,11.5,6.7,21.5,16.4,26.2L7.4,22.1z M43.5,61.1l-9-24.6L25.8,62c2.7,0.8,5.4,1.2,8.2,1.2
		c3.4,0,6.7-0.6,9.7-1.7C43.6,61.4,43.5,61.2,43.5,61.1z M48.4,17.6c0-2.7,2-5.2,4.9-5.2c0.1,0,0.2,0,0.4,0
		C48.5,7.7,41.6,4.8,34,4.8C23.8,4.8,14.8,10.1,9.6,18c0.7,0,1.3,0,1.9,0c3.1,0,7.8-0.4,7.8-0.4c1.6-0.1,1.8,2.2,0.2,2.4
		c0,0-1.6,0.2-3.3,0.3l10.6,31.6l6.4-19.1l-4.5-12.5C27,20.2,25.5,20,25.5,20c-1.6-0.1-1.4-2.5,0.2-2.4c0,0,4.8,0.4,7.7,0.4
		c3,0,7.8-0.4,7.8-0.4c1.6-0.1,1.8,2.2,0.2,2.4c0,0-1.6,0.2-3.3,0.3l10.5,31.4l2.9-9.7c1.3-4,2.2-6.9,2.2-9.4c0-3.6-1.3-6.1-2.4-8
		C49.8,22.1,48.4,20,48.4,17.6z M59.6,20c0.1,0.9,0.2,1.9,0.2,3c0,2.9-0.6,6.3-2.2,10.4l-8.9,25.8c8.7-5.1,14.5-14.4,14.5-25.2
		C63.2,28.9,61.9,24.2,59.6,20z M48.4,17.6c0-2.7,2-5.2,4.9-5.2c0.1,0,0.2,0,0.4,0C48.5,7.7,41.6,4.8,34,4.8
		C23.8,4.8,14.8,10.1,9.6,18c0.7,0,1.3,0,1.9,0c3.1,0,7.8-0.4,7.8-0.4c1.6-0.1,1.8,2.2,0.2,2.4c0,0-1.6,0.2-3.3,0.3l10.6,31.6
		l6.4-19.1l-4.5-12.5C27,20.2,25.5,20,25.5,20c-1.6-0.1-1.4-2.5,0.2-2.4c0,0,4.8,0.4,7.7,0.4c3,0,7.8-0.4,7.8-0.4
		c1.6-0.1,1.8,2.2,0.2,2.4c0,0-1.6,0.2-3.3,0.3l10.5,31.4l2.9-9.7c1.3-4,2.2-6.9,2.2-9.4c0-3.6-1.3-6.1-2.4-8
		C49.8,22.1,48.4,20,48.4,17.6z M43.5,61.1l-9-24.6L25.8,62c2.7,0.8,5.4,1.2,8.2,1.2c3.4,0,6.7-0.6,9.7-1.7
		C43.6,61.4,43.5,61.2,43.5,61.1z M7.4,22.1C5.7,25.9,4.8,29.9,4.8,34c0,11.5,6.7,21.5,16.4,26.2L7.4,22.1z M59.6,20
		c0.1,0.9,0.2,1.9,0.2,3c0,2.9-0.6,6.3-2.2,10.4l-8.9,25.8c8.7-5.1,14.5-14.4,14.5-25.2C63.2,28.9,61.9,24.2,59.6,20z M7.4,22.1
		C5.7,25.9,4.8,29.9,4.8,34c0,11.5,6.7,21.5,16.4,26.2L7.4,22.1z M43.5,61.1l-9-24.6L25.8,62c2.7,0.8,5.4,1.2,8.2,1.2
		c3.4,0,6.7-0.6,9.7-1.7C43.6,61.4,43.5,61.2,43.5,61.1z M48.4,17.6c0-2.7,2-5.2,4.9-5.2c0.1,0,0.2,0,0.4,0
		C48.5,7.7,41.6,4.8,34,4.8C23.8,4.8,14.8,10.1,9.6,18c0.7,0,1.3,0,1.9,0c3.1,0,7.8-0.4,7.8-0.4c1.6-0.1,1.8,2.2,0.2,2.4
		c0,0-1.6,0.2-3.3,0.3l10.6,31.6l6.4-19.1l-4.5-12.5C27,20.2,25.5,20,25.5,20c-1.6-0.1-1.4-2.5,0.2-2.4c0,0,4.8,0.4,7.7,0.4
		c3,0,7.8-0.4,7.8-0.4c1.6-0.1,1.8,2.2,0.2,2.4c0,0-1.6,0.2-3.3,0.3l10.5,31.4l2.9-9.7c1.3-4,2.2-6.9,2.2-9.4c0-3.6-1.3-6.1-2.4-8
		C49.8,22.1,48.4,20,48.4,17.6z M59.6,20c0.1,0.9,0.2,1.9,0.2,3c0,2.9-0.6,6.3-2.2,10.4l-8.9,25.8c8.7-5.1,14.5-14.4,14.5-25.2
		C63.2,28.9,61.9,24.2,59.6,20z M48.4,17.6c0-2.7,2-5.2,4.9-5.2c0.1,0,0.2,0,0.4,0C48.5,7.7,41.6,4.8,34,4.8
		C23.8,4.8,14.8,10.1,9.6,18c0.7,0,1.3,0,1.9,0c3.1,0,7.8-0.4,7.8-0.4c1.6-0.1,1.8,2.2,0.2,2.4c0,0-1.6,0.2-3.3,0.3l10.6,31.6
		l6.4-19.1l-4.5-12.5C27,20.2,25.5,20,25.5,20c-1.6-0.1-1.4-2.5,0.2-2.4c0,0,4.8,0.4,7.7,0.4c3,0,7.8-0.4,7.8-0.4
		c1.6-0.1,1.8,2.2,0.2,2.4c0,0-1.6,0.2-3.3,0.3l10.5,31.4l2.9-9.7c1.3-4,2.2-6.9,2.2-9.4c0-3.6-1.3-6.1-2.4-8
		C49.8,22.1,48.4,20,48.4,17.6z M43.5,61.1l-9-24.6L25.8,62c2.7,0.8,5.4,1.2,8.2,1.2c3.4,0,6.7-0.6,9.7-1.7
		C43.6,61.4,43.5,61.2,43.5,61.1z M7.4,22.1C5.7,25.9,4.8,29.9,4.8,34c0,11.5,6.7,21.5,16.4,26.2L7.4,22.1z M59.6,20
		c0.1,0.9,0.2,1.9,0.2,3c0,2.9-0.6,6.3-2.2,10.4l-8.9,25.8c8.7-5.1,14.5-14.4,14.5-25.2C63.2,28.9,61.9,24.2,59.6,20z M7.4,22.1
		C5.7,25.9,4.8,29.9,4.8,34c0,11.5,6.7,21.5,16.4,26.2L7.4,22.1z M43.5,61.1l-9-24.6L25.8,62c2.7,0.8,5.4,1.2,8.2,1.2
		c3.4,0,6.7-0.6,9.7-1.7C43.6,61.4,43.5,61.2,43.5,61.1z M48.4,17.6c0-2.7,2-5.2,4.9-5.2c0.1,0,0.2,0,0.4,0
		C48.5,7.7,41.6,4.8,34,4.8C23.8,4.8,14.8,10.1,9.6,18c0.7,0,1.3,0,1.9,0c3.1,0,7.8-0.4,7.8-0.4c1.6-0.1,1.8,2.2,0.2,2.4
		c0,0-1.6,0.2-3.3,0.3l10.6,31.6l6.4-19.1l-4.5-12.5C27,20.2,25.5,20,25.5,20c-1.6-0.1-1.4-2.5,0.2-2.4c0,0,4.8,0.4,7.7,0.4
		c3,0,7.8-0.4,7.8-0.4c1.6-0.1,1.8,2.2,0.2,2.4c0,0-1.6,0.2-3.3,0.3l10.5,31.4l2.9-9.7c1.3-4,2.2-6.9,2.2-9.4c0-3.6-1.3-6.1-2.4-8
		C49.8,22.1,48.4,20,48.4,17.6z M59.6,20c0.1,0.9,0.2,1.9,0.2,3c0,2.9-0.6,6.3-2.2,10.4l-8.9,25.8c8.7-5.1,14.5-14.4,14.5-25.2
		C63.2,28.9,61.9,24.2,59.6,20z M48.4,17.6c0-2.7,2-5.2,4.9-5.2c0.1,0,0.2,0,0.4,0C48.5,7.7,41.6,4.8,34,4.8
		C23.8,4.8,14.8,10.1,9.6,18c0.7,0,1.3,0,1.9,0c3.1,0,7.8-0.4,7.8-0.4c1.6-0.1,1.8,2.2,0.2,2.4c0,0-1.6,0.2-3.3,0.3l10.6,31.6
		l6.4-19.1l-4.5-12.5C27,20.2,25.5,20,25.5,20c-1.6-0.1-1.4-2.5,0.2-2.4c0,0,4.8,0.4,7.7,0.4c3,0,7.8-0.4,7.8-0.4
		c1.6-0.1,1.8,2.2,0.2,2.4c0,0-1.6,0.2-3.3,0.3l10.5,31.4l2.9-9.7c1.3-4,2.2-6.9,2.2-9.4c0-3.6-1.3-6.1-2.4-8
		C49.8,22.1,48.4,20,48.4,17.6z M43.5,61.1l-9-24.6L25.8,62c2.7,0.8,5.4,1.2,8.2,1.2c3.4,0,6.7-0.6,9.7-1.7
		C43.6,61.4,43.5,61.2,43.5,61.1z M7.4,22.1C5.7,25.9,4.8,29.9,4.8,34c0,11.5,6.7,21.5,16.4,26.2L7.4,22.1z M59.6,20
		c0.1,0.9,0.2,1.9,0.2,3c0,2.9-0.6,6.3-2.2,10.4l-8.9,25.8c8.7-5.1,14.5-14.4,14.5-25.2C63.2,28.9,61.9,24.2,59.6,20z M7.4,22.1
		C5.7,25.9,4.8,29.9,4.8,34c0,11.5,6.7,21.5,16.4,26.2L7.4,22.1z M43.5,61.1l-9-24.6L25.8,62c2.7,0.8,5.4,1.2,8.2,1.2
		c3.4,0,6.7-0.6,9.7-1.7C43.6,61.4,43.5,61.2,43.5,61.1z M48.4,17.6c0-2.7,2-5.2,4.9-5.2c0.1,0,0.2,0,0.4,0
		C48.5,7.7,41.6,4.8,34,4.8C23.8,4.8,14.8,10.1,9.6,18c0.7,0,1.3,0,1.9,0c3.1,0,7.8-0.4,7.8-0.4c1.6-0.1,1.8,2.2,0.2,2.4
		c0,0-1.6,0.2-3.3,0.3l10.6,31.6l6.4-19.1l-4.5-12.5C27,20.2,25.5,20,25.5,20c-1.6-0.1-1.4-2.5,0.2-2.4c0,0,4.8,0.4,7.7,0.4
		c3,0,7.8-0.4,7.8-0.4c1.6-0.1,1.8,2.2,0.2,2.4c0,0-1.6,0.2-3.3,0.3l10.5,31.4l2.9-9.7c1.3-4,2.2-6.9,2.2-9.4c0-3.6-1.3-6.1-2.4-8
		C49.8,22.1,48.4,20,48.4,17.6z M59.6,20c0.1,0.9,0.2,1.9,0.2,3c0,2.9-0.6,6.3-2.2,10.4l-8.9,25.8c8.7-5.1,14.5-14.4,14.5-25.2
		C63.2,28.9,61.9,24.2,59.6,20z M48.4,17.6c0-2.7,2-5.2,4.9-5.2c0.1,0,0.2,0,0.4,0C48.5,7.7,41.6,4.8,34,4.8
		C23.8,4.8,14.8,10.1,9.6,18c0.7,0,1.3,0,1.9,0c3.1,0,7.8-0.4,7.8-0.4c1.6-0.1,1.8,2.2,0.2,2.4c0,0-1.6,0.2-3.3,0.3l10.6,31.6
		l6.4-19.1l-4.5-12.5C27,20.2,25.5,20,25.5,20c-1.6-0.1-1.4-2.5,0.2-2.4c0,0,4.8,0.4,7.7,0.4c3,0,7.8-0.4,7.8-0.4
		c1.6-0.1,1.8,2.2,0.2,2.4c0,0-1.6,0.2-3.3,0.3l10.5,31.4l2.9-9.7c1.3-4,2.2-6.9,2.2-9.4c0-3.6-1.3-6.1-2.4-8
		C49.8,22.1,48.4,20,48.4,17.6z M43.5,61.1l-9-24.6L25.8,62c2.7,0.8,5.4,1.2,8.2,1.2c3.4,0,6.7-0.6,9.7-1.7
		C43.6,61.4,43.5,61.2,43.5,61.1z M7.4,22.1C5.7,25.9,4.8,29.9,4.8,34c0,11.5,6.7,21.5,16.4,26.2L7.4,22.1z M59.6,20
		c0.1,0.9,0.2,1.9,0.2,3c0,2.9-0.6,6.3-2.2,10.4l-8.9,25.8c8.7-5.1,14.5-14.4,14.5-25.2C63.2,28.9,61.9,24.2,59.6,20z M7.4,22.1
		C5.7,25.9,4.8,29.9,4.8,34c0,11.5,6.7,21.5,16.4,26.2L7.4,22.1z M43.5,61.1l-9-24.6L25.8,62c2.7,0.8,5.4,1.2,8.2,1.2
		c3.4,0,6.7-0.6,9.7-1.7C43.6,61.4,43.5,61.2,43.5,61.1z M48.4,17.6c0-2.7,2-5.2,4.9-5.2c0.1,0,0.2,0,0.4,0
		C48.5,7.7,41.6,4.8,34,4.8C23.8,4.8,14.8,10.1,9.6,18c0.7,0,1.3,0,1.9,0c3.1,0,7.8-0.4,7.8-0.4c1.6-0.1,1.8,2.2,0.2,2.4
		c0,0-1.6,0.2-3.3,0.3l10.6,31.6l6.4-19.1l-4.5-12.5C27,20.2,25.5,20,25.5,20c-1.6-0.1-1.4-2.5,0.2-2.4c0,0,4.8,0.4,7.7,0.4
		c3,0,7.8-0.4,7.8-0.4c1.6-0.1,1.8,2.2,0.2,2.4c0,0-1.6,0.2-3.3,0.3l10.5,31.4l2.9-9.7c1.3-4,2.2-6.9,2.2-9.4c0-3.6-1.3-6.1-2.4-8
		C49.8,22.1,48.4,20,48.4,17.6z M59.6,20c0.1,0.9,0.2,1.9,0.2,3c0,2.9-0.6,6.3-2.2,10.4l-8.9,25.8c8.7-5.1,14.5-14.4,14.5-25.2
		C63.2,28.9,61.9,24.2,59.6,20z M48.4,17.6c0-2.7,2-5.2,4.9-5.2c0.1,0,0.2,0,0.4,0C48.5,7.7,41.6,4.8,34,4.8
		C23.8,4.8,14.8,10.1,9.6,18c0.7,0,1.3,0,1.9,0c3.1,0,7.8-0.4,7.8-0.4c1.6-0.1,1.8,2.2,0.2,2.4c0,0-1.6,0.2-3.3,0.3l10.6,31.6
		l6.4-19.1l-4.5-12.5C27,20.2,25.5,20,25.5,20c-1.6-0.1-1.4-2.5,0.2-2.4c0,0,4.8,0.4,7.7,0.4c3,0,7.8-0.4,7.8-0.4
		c1.6-0.1,1.8,2.2,0.2,2.4c0,0-1.6,0.2-3.3,0.3l10.5,31.4l2.9-9.7c1.3-4,2.2-6.9,2.2-9.4c0-3.6-1.3-6.1-2.4-8
		C49.8,22.1,48.4,20,48.4,17.6z M43.5,61.1l-9-24.6L25.8,62c2.7,0.8,5.4,1.2,8.2,1.2c3.4,0,6.7-0.6,9.7-1.7
		C43.6,61.4,43.5,61.2,43.5,61.1z M7.4,22.1C5.7,25.9,4.8,29.9,4.8,34c0,11.5,6.7,21.5,16.4,26.2L7.4,22.1z M59.6,20
		c0.1,0.9,0.2,1.9,0.2,3c0,2.9-0.6,6.3-2.2,10.4l-8.9,25.8c8.7-5.1,14.5-14.4,14.5-25.2C63.2,28.9,61.9,24.2,59.6,20z M7.4,22.1
		C5.7,25.9,4.8,29.9,4.8,34c0,11.5,6.7,21.5,16.4,26.2L7.4,22.1z M43.5,61.1l-9-24.6L25.8,62c2.7,0.8,5.4,1.2,8.2,1.2
		c3.4,0,6.7-0.6,9.7-1.7C43.6,61.4,43.5,61.2,43.5,61.1z M48.4,17.6c0-2.7,2-5.2,4.9-5.2c0.1,0,0.2,0,0.4,0
		C48.5,7.7,41.6,4.8,34,4.8C23.8,4.8,14.8,10.1,9.6,18c0.7,0,1.3,0,1.9,0c3.1,0,7.8-0.4,7.8-0.4c1.6-0.1,1.8,2.2,0.2,2.4
		c0,0-1.6,0.2-3.3,0.3l10.6,31.6l6.4-19.1l-4.5-12.5C27,20.2,25.5,20,25.5,20c-1.6-0.1-1.4-2.5,0.2-2.4c0,0,4.8,0.4,7.7,0.4
		c3,0,7.8-0.4,7.8-0.4c1.6-0.1,1.8,2.2,0.2,2.4c0,0-1.6,0.2-3.3,0.3l10.5,31.4l2.9-9.7c1.3-4,2.2-6.9,2.2-9.4c0-3.6-1.3-6.1-2.4-8
		C49.8,22.1,48.4,20,48.4,17.6z M59.6,20c0.1,0.9,0.2,1.9,0.2,3c0,2.9-0.6,6.3-2.2,10.4l-8.9,25.8c8.7-5.1,14.5-14.4,14.5-25.2
		C63.2,28.9,61.9,24.2,59.6,20z M48.4,17.6c0-2.7,2-5.2,4.9-5.2c0.1,0,0.2,0,0.4,0C48.5,7.7,41.6,4.8,34,4.8
		C23.8,4.8,14.8,10.1,9.6,18c0.7,0,1.3,0,1.9,0c3.1,0,7.8-0.4,7.8-0.4c1.6-0.1,1.8,2.2,0.2,2.4c0,0-1.6,0.2-3.3,0.3l10.6,31.6
		l6.4-19.1l-4.5-12.5C27,20.2,25.5,20,25.5,20c-1.6-0.1-1.4-2.5,0.2-2.4c0,0,4.8,0.4,7.7,0.4c3,0,7.8-0.4,7.8-0.4
		c1.6-0.1,1.8,2.2,0.2,2.4c0,0-1.6,0.2-3.3,0.3l10.5,31.4l2.9-9.7c1.3-4,2.2-6.9,2.2-9.4c0-3.6-1.3-6.1-2.4-8
		C49.8,22.1,48.4,20,48.4,17.6z M43.5,61.1l-9-24.6L25.8,62c2.7,0.8,5.4,1.2,8.2,1.2c3.4,0,6.7-0.6,9.7-1.7
		C43.6,61.4,43.5,61.2,43.5,61.1z M7.4,22.1C5.7,25.9,4.8,29.9,4.8,34c0,11.5,6.7,21.5,16.4,26.2L7.4,22.1z M59.6,20
		c0.1,0.9,0.2,1.9,0.2,3c0,2.9-0.6,6.3-2.2,10.4l-8.9,25.8c8.7-5.1,14.5-14.4,14.5-25.2C63.2,28.9,61.9,24.2,59.6,20z M7.4,22.1
		C5.7,25.9,4.8,29.9,4.8,34c0,11.5,6.7,21.5,16.4,26.2L7.4,22.1z M43.5,61.1l-9-24.6L25.8,62c2.7,0.8,5.4,1.2,8.2,1.2
		c3.4,0,6.7-0.6,9.7-1.7C43.6,61.4,43.5,61.2,43.5,61.1z M48.4,17.6c0-2.7,2-5.2,4.9-5.2c0.1,0,0.2,0,0.4,0
		C48.5,7.7,41.6,4.8,34,4.8C23.8,4.8,14.8,10.1,9.6,18c0.7,0,1.3,0,1.9,0c3.1,0,7.8-0.4,7.8-0.4c1.6-0.1,1.8,2.2,0.2,2.4
		c0,0-1.6,0.2-3.3,0.3l10.6,31.6l6.4-19.1l-4.5-12.5C27,20.2,25.5,20,25.5,20c-1.6-0.1-1.4-2.5,0.2-2.4c0,0,4.8,0.4,7.7,0.4
		c3,0,7.8-0.4,7.8-0.4c1.6-0.1,1.8,2.2,0.2,2.4c0,0-1.6,0.2-3.3,0.3l10.5,31.4l2.9-9.7c1.3-4,2.2-6.9,2.2-9.4c0-3.6-1.3-6.1-2.4-8
		C49.8,22.1,48.4,20,48.4,17.6z M59.6,20c0.1,0.9,0.2,1.9,0.2,3c0,2.9-0.6,6.3-2.2,10.4l-8.9,25.8c8.7-5.1,14.5-14.4,14.5-25.2
		C63.2,28.9,61.9,24.2,59.6,20z M48.4,17.6c0-2.7,2-5.2,4.9-5.2c0.1,0,0.2,0,0.4,0C48.5,7.7,41.6,4.8,34,4.8
		C23.8,4.8,14.8,10.1,9.6,18c0.7,0,1.3,0,1.9,0c3.1,0,7.8-0.4,7.8-0.4c1.6-0.1,1.8,2.2,0.2,2.4c0,0-1.6,0.2-3.3,0.3l10.6,31.6
		l6.4-19.1l-4.5-12.5C27,20.2,25.5,20,25.5,20c-1.6-0.1-1.4-2.5,0.2-2.4c0,0,4.8,0.4,7.7,0.4c3,0,7.8-0.4,7.8-0.4
		c1.6-0.1,1.8,2.2,0.2,2.4c0,0-1.6,0.2-3.3,0.3l10.5,31.4l2.9-9.7c1.3-4,2.2-6.9,2.2-9.4c0-3.6-1.3-6.1-2.4-8
		C49.8,22.1,48.4,20,48.4,17.6z M43.5,61.1l-9-24.6L25.8,62c2.7,0.8,5.4,1.2,8.2,1.2c3.4,0,6.7-0.6,9.7-1.7
		C43.6,61.4,43.5,61.2,43.5,61.1z M7.4,22.1C5.7,25.9,4.8,29.9,4.8,34c0,11.5,6.7,21.5,16.4,26.2L7.4,22.1z M59.6,20
		c0.1,0.9,0.2,1.9,0.2,3c0,2.9-0.6,6.3-2.2,10.4l-8.9,25.8c8.7-5.1,14.5-14.4,14.5-25.2C63.2,28.9,61.9,24.2,59.6,20z M7.4,22.1
		C5.7,25.9,4.8,29.9,4.8,34c0,11.5,6.7,21.5,16.4,26.2L7.4,22.1z M43.5,61.1l-9-24.6L25.8,62c2.7,0.8,5.4,1.2,8.2,1.2
		c3.4,0,6.7-0.6,9.7-1.7C43.6,61.4,43.5,61.2,43.5,61.1z M48.4,17.6c0-2.7,2-5.2,4.9-5.2c0.1,0,0.2,0,0.4,0
		C48.5,7.7,41.6,4.8,34,4.8C23.8,4.8,14.8,10.1,9.6,18c0.7,0,1.3,0,1.9,0c3.1,0,7.8-0.4,7.8-0.4c1.6-0.1,1.8,2.2,0.2,2.4
		c0,0-1.6,0.2-3.3,0.3l10.6,31.6l6.4-19.1l-4.5-12.5C27,20.2,25.5,20,25.5,20c-1.6-0.1-1.4-2.5,0.2-2.4c0,0,4.8,0.4,7.7,0.4
		c3,0,7.8-0.4,7.8-0.4c1.6-0.1,1.8,2.2,0.2,2.4c0,0-1.6,0.2-3.3,0.3l10.5,31.4l2.9-9.7c1.3-4,2.2-6.9,2.2-9.4c0-3.6-1.3-6.1-2.4-8
		C49.8,22.1,48.4,20,48.4,17.6z M59.6,20c0.1,0.9,0.2,1.9,0.2,3c0,2.9-0.6,6.3-2.2,10.4l-8.9,25.8c8.7-5.1,14.5-14.4,14.5-25.2
		C63.2,28.9,61.9,24.2,59.6,20z M53.7,32.5c0-3.6-1.3-6.1-2.4-8c-1.5-2.4-2.9-4.4-2.9-6.8c0-2.7,2-5.2,4.9-5.2c0.1,0,0.2,0,0.4,0
		C48.5,7.7,41.6,4.8,34,4.8C23.8,4.8,14.8,10.1,9.6,18c0.7,0,1.3,0,1.9,0c3.1,0,7.8-0.4,7.8-0.4c1.6-0.1,1.8,2.2,0.2,2.4
		c0,0-1.6,0.2-3.3,0.3l10.6,31.6l6.4-19.1l-4.5-12.5C27,20.2,25.5,20,25.5,20c-1.6-0.1-1.4-2.5,0.2-2.4c0,0,4.8,0.4,7.7,0.4
		c3,0,7.8-0.4,7.8-0.4c1.6-0.1,1.8,2.2,0.2,2.4c0,0-1.6,0.2-3.3,0.3l10.5,31.4l2.9-9.7C52.7,37.9,53.7,35,53.7,32.5z M34.5,36.5
		L25.8,62c2.7,0.8,5.4,1.2,8.2,1.2c3.4,0,6.7-0.6,9.7-1.7c-0.1-0.1-0.1-0.3-0.2-0.4L34.5,36.5z M4.8,34c0,11.5,6.7,21.5,16.4,26.2
		L7.4,22.1C5.7,25.9,4.8,29.9,4.8,34z M59.6,20c0.1,0.9,0.2,1.9,0.2,3c0,2.9-0.6,6.3-2.2,10.4l-8.9,25.8
		c8.7-5.1,14.5-14.4,14.5-25.2C63.2,28.9,61.9,24.2,59.6,20z M34,0C15.2,0,0,15.2,0,34s15.2,34,34,34s34-15.2,34-34S52.8,0,34,0z
		 M34,66.4C16.1,66.4,1.6,51.9,1.6,34S16.1,1.6,34,1.6S66.4,16.1,66.4,34S51.9,66.4,34,66.4z M53.7,32.5c0-3.6-1.3-6.1-2.4-8
		c-1.5-2.4-2.9-4.4-2.9-6.8c0-2.7,2-5.2,4.9-5.2c0.1,0,0.2,0,0.4,0C48.5,7.7,41.6,4.8,34,4.8C23.8,4.8,14.8,10.1,9.6,18
		c0.7,0,1.3,0,1.9,0c3.1,0,7.8-0.4,7.8-0.4c1.6-0.1,1.8,2.2,0.2,2.4c0,0-1.6,0.2-3.3,0.3l10.6,31.6l6.4-19.1l-4.5-12.5
		C27,20.2,25.5,20,25.5,20c-1.6-0.1-1.4-2.5,0.2-2.4c0,0,4.8,0.4,7.7,0.4c3,0,7.8-0.4,7.8-0.4c1.6-0.1,1.8,2.2,0.2,2.4
		c0,0-1.6,0.2-3.3,0.3l10.5,31.4l2.9-9.7C52.7,37.9,53.7,35,53.7,32.5z M34.5,36.5L25.8,62c2.7,0.8,5.4,1.2,8.2,1.2
		c3.4,0,6.7-0.6,9.7-1.7c-0.1-0.1-0.1-0.3-0.2-0.4L34.5,36.5z M4.8,34c0,11.5,6.7,21.5,16.4,26.2L7.4,22.1C5.7,25.9,4.8,29.9,4.8,34
		z M59.6,20c0.1,0.9,0.2,1.9,0.2,3c0,2.9-0.6,6.3-2.2,10.4l-8.9,25.8c8.7-5.1,14.5-14.4,14.5-25.2C63.2,28.9,61.9,24.2,59.6,20z
		 M7.4,22.1C5.7,25.9,4.8,29.9,4.8,34c0,11.5,6.7,21.5,16.4,26.2L7.4,22.1z M43.5,61.1l-9-24.6L25.8,62c2.7,0.8,5.4,1.2,8.2,1.2
		c3.4,0,6.7-0.6,9.7-1.7C43.6,61.4,43.5,61.2,43.5,61.1z M48.4,17.6c0-2.7,2-5.2,4.9-5.2c0.1,0,0.2,0,0.4,0
		C48.5,7.7,41.6,4.8,34,4.8C23.8,4.8,14.8,10.1,9.6,18c0.7,0,1.3,0,1.9,0c3.1,0,7.8-0.4,7.8-0.4c1.6-0.1,1.8,2.2,0.2,2.4
		c0,0-1.6,0.2-3.3,0.3l10.6,31.6l6.4-19.1l-4.5-12.5C27,20.2,25.5,20,25.5,20c-1.6-0.1-1.4-2.5,0.2-2.4c0,0,4.8,0.4,7.7,0.4
		c3,0,7.8-0.4,7.8-0.4c1.6-0.1,1.8,2.2,0.2,2.4c0,0-1.6,0.2-3.3,0.3l10.5,31.4l2.9-9.7c1.3-4,2.2-6.9,2.2-9.4c0-3.6-1.3-6.1-2.4-8
		C49.8,22.1,48.4,20,48.4,17.6z M59.6,20c0.1,0.9,0.2,1.9,0.2,3c0,2.9-0.6,6.3-2.2,10.4l-8.9,25.8c8.7-5.1,14.5-14.4,14.5-25.2
		C63.2,28.9,61.9,24.2,59.6,20z M48.4,17.6c0-2.7,2-5.2,4.9-5.2c0.1,0,0.2,0,0.4,0C48.5,7.7,41.6,4.8,34,4.8
		C23.8,4.8,14.8,10.1,9.6,18c0.7,0,1.3,0,1.9,0c3.1,0,7.8-0.4,7.8-0.4c1.6-0.1,1.8,2.2,0.2,2.4c0,0-1.6,0.2-3.3,0.3l10.6,31.6
		l6.4-19.1l-4.5-12.5C27,20.2,25.5,20,25.5,20c-1.6-0.1-1.4-2.5,0.2-2.4c0,0,4.8,0.4,7.7,0.4c3,0,7.8-0.4,7.8-0.4
		c1.6-0.1,1.8,2.2,0.2,2.4c0,0-1.6,0.2-3.3,0.3l10.5,31.4l2.9-9.7c1.3-4,2.2-6.9,2.2-9.4c0-3.6-1.3-6.1-2.4-8
		C49.8,22.1,48.4,20,48.4,17.6z M43.5,61.1l-9-24.6L25.8,62c2.7,0.8,5.4,1.2,8.2,1.2c3.4,0,6.7-0.6,9.7-1.7
		C43.6,61.4,43.5,61.2,43.5,61.1z M7.4,22.1C5.7,25.9,4.8,29.9,4.8,34c0,11.5,6.7,21.5,16.4,26.2L7.4,22.1z M59.6,20
		c0.1,0.9,0.2,1.9,0.2,3c0,2.9-0.6,6.3-2.2,10.4l-8.9,25.8c8.7-5.1,14.5-14.4,14.5-25.2C63.2,28.9,61.9,24.2,59.6,20z M7.4,22.1
		C5.7,25.9,4.8,29.9,4.8,34c0,11.5,6.7,21.5,16.4,26.2L7.4,22.1z M43.5,61.1l-9-24.6L25.8,62c2.7,0.8,5.4,1.2,8.2,1.2
		c3.4,0,6.7-0.6,9.7-1.7C43.6,61.4,43.5,61.2,43.5,61.1z M48.4,17.6c0-2.7,2-5.2,4.9-5.2c0.1,0,0.2,0,0.4,0
		C48.5,7.7,41.6,4.8,34,4.8C23.8,4.8,14.8,10.1,9.6,18c0.7,0,1.3,0,1.9,0c3.1,0,7.8-0.4,7.8-0.4c1.6-0.1,1.8,2.2,0.2,2.4
		c0,0-1.6,0.2-3.3,0.3l10.6,31.6l6.4-19.1l-4.5-12.5C27,20.2,25.5,20,25.5,20c-1.6-0.1-1.4-2.5,0.2-2.4c0,0,4.8,0.4,7.7,0.4
		c3,0,7.8-0.4,7.8-0.4c1.6-0.1,1.8,2.2,0.2,2.4c0,0-1.6,0.2-3.3,0.3l10.5,31.4l2.9-9.7c1.3-4,2.2-6.9,2.2-9.4c0-3.6-1.3-6.1-2.4-8
		C49.8,22.1,48.4,20,48.4,17.6z M59.6,20c0.1,0.9,0.2,1.9,0.2,3c0,2.9-0.6,6.3-2.2,10.4l-8.9,25.8c8.7-5.1,14.5-14.4,14.5-25.2
		C63.2,28.9,61.9,24.2,59.6,20z M48.4,17.6c0-2.7,2-5.2,4.9-5.2c0.1,0,0.2,0,0.4,0C48.5,7.7,41.6,4.8,34,4.8
		C23.8,4.8,14.8,10.1,9.6,18c0.7,0,1.3,0,1.9,0c3.1,0,7.8-0.4,7.8-0.4c1.6-0.1,1.8,2.2,0.2,2.4c0,0-1.6,0.2-3.3,0.3l10.6,31.6
		l6.4-19.1l-4.5-12.5C27,20.2,25.5,20,25.5,20c-1.6-0.1-1.4-2.5,0.2-2.4c0,0,4.8,0.4,7.7,0.4c3,0,7.8-0.4,7.8-0.4
		c1.6-0.1,1.8,2.2,0.2,2.4c0,0-1.6,0.2-3.3,0.3l10.5,31.4l2.9-9.7c1.3-4,2.2-6.9,2.2-9.4c0-3.6-1.3-6.1-2.4-8
		C49.8,22.1,48.4,20,48.4,17.6z M43.5,61.1l-9-24.6L25.8,62c2.7,0.8,5.4,1.2,8.2,1.2c3.4,0,6.7-0.6,9.7-1.7
		C43.6,61.4,43.5,61.2,43.5,61.1z M7.4,22.1C5.7,25.9,4.8,29.9,4.8,34c0,11.5,6.7,21.5,16.4,26.2L7.4,22.1z M59.6,20
		c0.1,0.9,0.2,1.9,0.2,3c0,2.9-0.6,6.3-2.2,10.4l-8.9,25.8c8.7-5.1,14.5-14.4,14.5-25.2C63.2,28.9,61.9,24.2,59.6,20z M7.4,22.1
		C5.7,25.9,4.8,29.9,4.8,34c0,11.5,6.7,21.5,16.4,26.2L7.4,22.1z M43.5,61.1l-9-24.6L25.8,62c2.7,0.8,5.4,1.2,8.2,1.2
		c3.4,0,6.7-0.6,9.7-1.7C43.6,61.4,43.5,61.2,43.5,61.1z M48.4,17.6c0-2.7,2-5.2,4.9-5.2c0.1,0,0.2,0,0.4,0
		C48.5,7.7,41.6,4.8,34,4.8C23.8,4.8,14.8,10.1,9.6,18c0.7,0,1.3,0,1.9,0c3.1,0,7.8-0.4,7.8-0.4c1.6-0.1,1.8,2.2,0.2,2.4
		c0,0-1.6,0.2-3.3,0.3l10.6,31.6l6.4-19.1l-4.5-12.5C27,20.2,25.5,20,25.5,20c-1.6-0.1-1.4-2.5,0.2-2.4c0,0,4.8,0.4,7.7,0.4
		c3,0,7.8-0.4,7.8-0.4c1.6-0.1,1.8,2.2,0.2,2.4c0,0-1.6,0.2-3.3,0.3l10.5,31.4l2.9-9.7c1.3-4,2.2-6.9,2.2-9.4c0-3.6-1.3-6.1-2.4-8
		C49.8,22.1,48.4,20,48.4,17.6z M59.6,20c0.1,0.9,0.2,1.9,0.2,3c0,2.9-0.6,6.3-2.2,10.4l-8.9,25.8c8.7-5.1,14.5-14.4,14.5-25.2
		C63.2,28.9,61.9,24.2,59.6,20z M48.4,17.6c0-2.7,2-5.2,4.9-5.2c0.1,0,0.2,0,0.4,0C48.5,7.7,41.6,4.8,34,4.8
		C23.8,4.8,14.8,10.1,9.6,18c0.7,0,1.3,0,1.9,0c3.1,0,7.8-0.4,7.8-0.4c1.6-0.1,1.8,2.2,0.2,2.4c0,0-1.6,0.2-3.3,0.3l10.6,31.6
		l6.4-19.1l-4.5-12.5C27,20.2,25.5,20,25.5,20c-1.6-0.1-1.4-2.5,0.2-2.4c0,0,4.8,0.4,7.7,0.4c3,0,7.8-0.4,7.8-0.4
		c1.6-0.1,1.8,2.2,0.2,2.4c0,0-1.6,0.2-3.3,0.3l10.5,31.4l2.9-9.7c1.3-4,2.2-6.9,2.2-9.4c0-3.6-1.3-6.1-2.4-8
		C49.8,22.1,48.4,20,48.4,17.6z M43.5,61.1l-9-24.6L25.8,62c2.7,0.8,5.4,1.2,8.2,1.2c3.4,0,6.7-0.6,9.7-1.7
		C43.6,61.4,43.5,61.2,43.5,61.1z M7.4,22.1C5.7,25.9,4.8,29.9,4.8,34c0,11.5,6.7,21.5,16.4,26.2L7.4,22.1z M59.6,20
		c0.1,0.9,0.2,1.9,0.2,3c0,2.9-0.6,6.3-2.2,10.4l-8.9,25.8c8.7-5.1,14.5-14.4,14.5-25.2C63.2,28.9,61.9,24.2,59.6,20z M7.4,22.1
		C5.7,25.9,4.8,29.9,4.8,34c0,11.5,6.7,21.5,16.4,26.2L7.4,22.1z M43.5,61.1l-9-24.6L25.8,62c2.7,0.8,5.4,1.2,8.2,1.2
		c3.4,0,6.7-0.6,9.7-1.7C43.6,61.4,43.5,61.2,43.5,61.1z M48.4,17.6c0-2.7,2-5.2,4.9-5.2c0.1,0,0.2,0,0.4,0
		C48.5,7.7,41.6,4.8,34,4.8C23.8,4.8,14.8,10.1,9.6,18c0.7,0,1.3,0,1.9,0c3.1,0,7.8-0.4,7.8-0.4c1.6-0.1,1.8,2.2,0.2,2.4
		c0,0-1.6,0.2-3.3,0.3l10.6,31.6l6.4-19.1l-4.5-12.5C27,20.2,25.5,20,25.5,20c-1.6-0.1-1.4-2.5,0.2-2.4c0,0,4.8,0.4,7.7,0.4
		c3,0,7.8-0.4,7.8-0.4c1.6-0.1,1.8,2.2,0.2,2.4c0,0-1.6,0.2-3.3,0.3l10.5,31.4l2.9-9.7c1.3-4,2.2-6.9,2.2-9.4c0-3.6-1.3-6.1-2.4-8
		C49.8,22.1,48.4,20,48.4,17.6z M59.6,20c0.1,0.9,0.2,1.9,0.2,3c0,2.9-0.6,6.3-2.2,10.4l-8.9,25.8c8.7-5.1,14.5-14.4,14.5-25.2
		C63.2,28.9,61.9,24.2,59.6,20z M48.4,17.6c0-2.7,2-5.2,4.9-5.2c0.1,0,0.2,0,0.4,0C48.5,7.7,41.6,4.8,34,4.8
		C23.8,4.8,14.8,10.1,9.6,18c0.7,0,1.3,0,1.9,0c3.1,0,7.8-0.4,7.8-0.4c1.6-0.1,1.8,2.2,0.2,2.4c0,0-1.6,0.2-3.3,0.3l10.6,31.6
		l6.4-19.1l-4.5-12.5C27,20.2,25.5,20,25.5,20c-1.6-0.1-1.4-2.5,0.2-2.4c0,0,4.8,0.4,7.7,0.4c3,0,7.8-0.4,7.8-0.4
		c1.6-0.1,1.8,2.2,0.2,2.4c0,0-1.6,0.2-3.3,0.3l10.5,31.4l2.9-9.7c1.3-4,2.2-6.9,2.2-9.4c0-3.6-1.3-6.1-2.4-8
		C49.8,22.1,48.4,20,48.4,17.6z M43.5,61.1l-9-24.6L25.8,62c2.7,0.8,5.4,1.2,8.2,1.2c3.4,0,6.7-0.6,9.7-1.7
		C43.6,61.4,43.5,61.2,43.5,61.1z M7.4,22.1C5.7,25.9,4.8,29.9,4.8,34c0,11.5,6.7,21.5,16.4,26.2L7.4,22.1z M59.6,20
		c0.1,0.9,0.2,1.9,0.2,3c0,2.9-0.6,6.3-2.2,10.4l-8.9,25.8c8.7-5.1,14.5-14.4,14.5-25.2C63.2,28.9,61.9,24.2,59.6,20z M7.4,22.1
		C5.7,25.9,4.8,29.9,4.8,34c0,11.5,6.7,21.5,16.4,26.2L7.4,22.1z M43.5,61.1l-9-24.6L25.8,62c2.7,0.8,5.4,1.2,8.2,1.2
		c3.4,0,6.7-0.6,9.7-1.7C43.6,61.4,43.5,61.2,43.5,61.1z M48.4,17.6c0-2.7,2-5.2,4.9-5.2c0.1,0,0.2,0,0.4,0
		C48.5,7.7,41.6,4.8,34,4.8C23.8,4.8,14.8,10.1,9.6,18c0.7,0,1.3,0,1.9,0c3.1,0,7.8-0.4,7.8-0.4c1.6-0.1,1.8,2.2,0.2,2.4
		c0,0-1.6,0.2-3.3,0.3l10.6,31.6l6.4-19.1l-4.5-12.5C27,20.2,25.5,20,25.5,20c-1.6-0.1-1.4-2.5,0.2-2.4c0,0,4.8,0.4,7.7,0.4
		c3,0,7.8-0.4,7.8-0.4c1.6-0.1,1.8,2.2,0.2,2.4c0,0-1.6,0.2-3.3,0.3l10.5,31.4l2.9-9.7c1.3-4,2.2-6.9,2.2-9.4c0-3.6-1.3-6.1-2.4-8
		C49.8,22.1,48.4,20,48.4,17.6z M59.6,20c0.1,0.9,0.2,1.9,0.2,3c0,2.9-0.6,6.3-2.2,10.4l-8.9,25.8c8.7-5.1,14.5-14.4,14.5-25.2
		C63.2,28.9,61.9,24.2,59.6,20z M48.4,17.6c0-2.7,2-5.2,4.9-5.2c0.1,0,0.2,0,0.4,0C48.5,7.7,41.6,4.8,34,4.8
		C23.8,4.8,14.8,10.1,9.6,18c0.7,0,1.3,0,1.9,0c3.1,0,7.8-0.4,7.8-0.4c1.6-0.1,1.8,2.2,0.2,2.4c0,0-1.6,0.2-3.3,0.3l10.6,31.6
		l6.4-19.1l-4.5-12.5C27,20.2,25.5,20,25.5,20c-1.6-0.1-1.4-2.5,0.2-2.4c0,0,4.8,0.4,7.7,0.4c3,0,7.8-0.4,7.8-0.4
		c1.6-0.1,1.8,2.2,0.2,2.4c0,0-1.6,0.2-3.3,0.3l10.5,31.4l2.9-9.7c1.3-4,2.2-6.9,2.2-9.4c0-3.6-1.3-6.1-2.4-8
		C49.8,22.1,48.4,20,48.4,17.6z M43.5,61.1l-9-24.6L25.8,62c2.7,0.8,5.4,1.2,8.2,1.2c3.4,0,6.7-0.6,9.7-1.7
		C43.6,61.4,43.5,61.2,43.5,61.1z M7.4,22.1C5.7,25.9,4.8,29.9,4.8,34c0,11.5,6.7,21.5,16.4,26.2L7.4,22.1z M59.6,20
		c0.1,0.9,0.2,1.9,0.2,3c0,2.9-0.6,6.3-2.2,10.4l-8.9,25.8c8.7-5.1,14.5-14.4,14.5-25.2C63.2,28.9,61.9,24.2,59.6,20z M7.4,22.1
		C5.7,25.9,4.8,29.9,4.8,34c0,11.5,6.7,21.5,16.4,26.2L7.4,22.1z M43.5,61.1l-9-24.6L25.8,62c2.7,0.8,5.4,1.2,8.2,1.2
		c3.4,0,6.7-0.6,9.7-1.7C43.6,61.4,43.5,61.2,43.5,61.1z M48.4,17.6c0-2.7,2-5.2,4.9-5.2c0.1,0,0.2,0,0.4,0
		C48.5,7.7,41.6,4.8,34,4.8C23.8,4.8,14.8,10.1,9.6,18c0.7,0,1.3,0,1.9,0c3.1,0,7.8-0.4,7.8-0.4c1.6-0.1,1.8,2.2,0.2,2.4
		c0,0-1.6,0.2-3.3,0.3l10.6,31.6l6.4-19.1l-4.5-12.5C27,20.2,25.5,20,25.5,20c-1.6-0.1-1.4-2.5,0.2-2.4c0,0,4.8,0.4,7.7,0.4
		c3,0,7.8-0.4,7.8-0.4c1.6-0.1,1.8,2.2,0.2,2.4c0,0-1.6,0.2-3.3,0.3l10.5,31.4l2.9-9.7c1.3-4,2.2-6.9,2.2-9.4c0-3.6-1.3-6.1-2.4-8
		C49.8,22.1,48.4,20,48.4,17.6z M59.6,20c0.1,0.9,0.2,1.9,0.2,3c0,2.9-0.6,6.3-2.2,10.4l-8.9,25.8c8.7-5.1,14.5-14.4,14.5-25.2
		C63.2,28.9,61.9,24.2,59.6,20z M48.4,17.6c0-2.7,2-5.2,4.9-5.2c0.1,0,0.2,0,0.4,0C48.5,7.7,41.6,4.8,34,4.8
		C23.8,4.8,14.8,10.1,9.6,18c0.7,0,1.3,0,1.9,0c3.1,0,7.8-0.4,7.8-0.4c1.6-0.1,1.8,2.2,0.2,2.4c0,0-1.6,0.2-3.3,0.3l10.6,31.6
		l6.4-19.1l-4.5-12.5C27,20.2,25.5,20,25.5,20c-1.6-0.1-1.4-2.5,0.2-2.4c0,0,4.8,0.4,7.7,0.4c3,0,7.8-0.4,7.8-0.4
		c1.6-0.1,1.8,2.2,0.2,2.4c0,0-1.6,0.2-3.3,0.3l10.5,31.4l2.9-9.7c1.3-4,2.2-6.9,2.2-9.4c0-3.6-1.3-6.1-2.4-8
		C49.8,22.1,48.4,20,48.4,17.6z M43.5,61.1l-9-24.6L25.8,62c2.7,0.8,5.4,1.2,8.2,1.2c3.4,0,6.7-0.6,9.7-1.7
		C43.6,61.4,43.5,61.2,43.5,61.1z M7.4,22.1C5.7,25.9,4.8,29.9,4.8,34c0,11.5,6.7,21.5,16.4,26.2L7.4,22.1z M59.6,20
		c0.1,0.9,0.2,1.9,0.2,3c0,2.9-0.6,6.3-2.2,10.4l-8.9,25.8c8.7-5.1,14.5-14.4,14.5-25.2C63.2,28.9,61.9,24.2,59.6,20z M7.4,22.1
		C5.7,25.9,4.8,29.9,4.8,34c0,11.5,6.7,21.5,16.4,26.2L7.4,22.1z M43.5,61.1l-9-24.6L25.8,62c2.7,0.8,5.4,1.2,8.2,1.2
		c3.4,0,6.7-0.6,9.7-1.7C43.6,61.4,43.5,61.2,43.5,61.1z M48.4,17.6c0-2.7,2-5.2,4.9-5.2c0.1,0,0.2,0,0.4,0
		C48.5,7.7,41.6,4.8,34,4.8C23.8,4.8,14.8,10.1,9.6,18c0.7,0,1.3,0,1.9,0c3.1,0,7.8-0.4,7.8-0.4c1.6-0.1,1.8,2.2,0.2,2.4
		c0,0-1.6,0.2-3.3,0.3l10.6,31.6l6.4-19.1l-4.5-12.5C27,20.2,25.5,20,25.5,20c-1.6-0.1-1.4-2.5,0.2-2.4c0,0,4.8,0.4,7.7,0.4
		c3,0,7.8-0.4,7.8-0.4c1.6-0.1,1.8,2.2,0.2,2.4c0,0-1.6,0.2-3.3,0.3l10.5,31.4l2.9-9.7c1.3-4,2.2-6.9,2.2-9.4c0-3.6-1.3-6.1-2.4-8
		C49.8,22.1,48.4,20,48.4,17.6z M59.6,20c0.1,0.9,0.2,1.9,0.2,3c0,2.9-0.6,6.3-2.2,10.4l-8.9,25.8c8.7-5.1,14.5-14.4,14.5-25.2
		C63.2,28.9,61.9,24.2,59.6,20z M48.4,17.6c0-2.7,2-5.2,4.9-5.2c0.1,0,0.2,0,0.4,0C48.5,7.7,41.6,4.8,34,4.8
		C23.8,4.8,14.8,10.1,9.6,18c0.7,0,1.3,0,1.9,0c3.1,0,7.8-0.4,7.8-0.4c1.6-0.1,1.8,2.2,0.2,2.4c0,0-1.6,0.2-3.3,0.3l10.6,31.6
		l6.4-19.1l-4.5-12.5C27,20.2,25.5,20,25.5,20c-1.6-0.1-1.4-2.5,0.2-2.4c0,0,4.8,0.4,7.7,0.4c3,0,7.8-0.4,7.8-0.4
		c1.6-0.1,1.8,2.2,0.2,2.4c0,0-1.6,0.2-3.3,0.3l10.5,31.4l2.9-9.7c1.3-4,2.2-6.9,2.2-9.4c0-3.6-1.3-6.1-2.4-8
		C49.8,22.1,48.4,20,48.4,17.6z M43.5,61.1l-9-24.6L25.8,62c2.7,0.8,5.4,1.2,8.2,1.2c3.4,0,6.7-0.6,9.7-1.7
		C43.6,61.4,43.5,61.2,43.5,61.1z M7.4,22.1C5.7,25.9,4.8,29.9,4.8,34c0,11.5,6.7,21.5,16.4,26.2L7.4,22.1z M59.6,20
		c0.1,0.9,0.2,1.9,0.2,3c0,2.9-0.6,6.3-2.2,10.4l-8.9,25.8c8.7-5.1,14.5-14.4,14.5-25.2C63.2,28.9,61.9,24.2,59.6,20z M7.4,22.1
		C5.7,25.9,4.8,29.9,4.8,34c0,11.5,6.7,21.5,16.4,26.2L7.4,22.1z M43.5,61.1l-9-24.6L25.8,62c2.7,0.8,5.4,1.2,8.2,1.2
		c3.4,0,6.7-0.6,9.7-1.7C43.6,61.4,43.5,61.2,43.5,61.1z M48.4,17.6c0-2.7,2-5.2,4.9-5.2c0.1,0,0.2,0,0.4,0
		C48.5,7.7,41.6,4.8,34,4.8C23.8,4.8,14.8,10.1,9.6,18c0.7,0,1.3,0,1.9,0c3.1,0,7.8-0.4,7.8-0.4c1.6-0.1,1.8,2.2,0.2,2.4
		c0,0-1.6,0.2-3.3,0.3l10.6,31.6l6.4-19.1l-4.5-12.5C27,20.2,25.5,20,25.5,20c-1.6-0.1-1.4-2.5,0.2-2.4c0,0,4.8,0.4,7.7,0.4
		c3,0,7.8-0.4,7.8-0.4c1.6-0.1,1.8,2.2,0.2,2.4c0,0-1.6,0.2-3.3,0.3l10.5,31.4l2.9-9.7c1.3-4,2.2-6.9,2.2-9.4c0-3.6-1.3-6.1-2.4-8
		C49.8,22.1,48.4,20,48.4,17.6z M59.6,20c0.1,0.9,0.2,1.9,0.2,3c0,2.9-0.6,6.3-2.2,10.4l-8.9,25.8c8.7-5.1,14.5-14.4,14.5-25.2
		C63.2,28.9,61.9,24.2,59.6,20z M48.4,17.6c0-2.7,2-5.2,4.9-5.2c0.1,0,0.2,0,0.4,0C48.5,7.7,41.6,4.8,34,4.8
		C23.8,4.8,14.8,10.1,9.6,18c0.7,0,1.3,0,1.9,0c3.1,0,7.8-0.4,7.8-0.4c1.6-0.1,1.8,2.2,0.2,2.4c0,0-1.6,0.2-3.3,0.3l10.6,31.6
		l6.4-19.1l-4.5-12.5C27,20.2,25.5,20,25.5,20c-1.6-0.1-1.4-2.5,0.2-2.4c0,0,4.8,0.4,7.7,0.4c3,0,7.8-0.4,7.8-0.4
		c1.6-0.1,1.8,2.2,0.2,2.4c0,0-1.6,0.2-3.3,0.3l10.5,31.4l2.9-9.7c1.3-4,2.2-6.9,2.2-9.4c0-3.6-1.3-6.1-2.4-8
		C49.8,22.1,48.4,20,48.4,17.6z M43.5,61.1l-9-24.6L25.8,62c2.7,0.8,5.4,1.2,8.2,1.2c3.4,0,6.7-0.6,9.7-1.7
		C43.6,61.4,43.5,61.2,43.5,61.1z M7.4,22.1C5.7,25.9,4.8,29.9,4.8,34c0,11.5,6.7,21.5,16.4,26.2L7.4,22.1z M59.6,20
		c0.1,0.9,0.2,1.9,0.2,3c0,2.9-0.6,6.3-2.2,10.4l-8.9,25.8c8.7-5.1,14.5-14.4,14.5-25.2C63.2,28.9,61.9,24.2,59.6,20z M7.4,22.1
		C5.7,25.9,4.8,29.9,4.8,34c0,11.5,6.7,21.5,16.4,26.2L7.4,22.1z M43.5,61.1l-9-24.6L25.8,62c2.7,0.8,5.4,1.2,8.2,1.2
		c3.4,0,6.7-0.6,9.7-1.7C43.6,61.4,43.5,61.2,43.5,61.1z M48.4,17.6c0-2.7,2-5.2,4.9-5.2c0.1,0,0.2,0,0.4,0
		C48.5,7.7,41.6,4.8,34,4.8C23.8,4.8,14.8,10.1,9.6,18c0.7,0,1.3,0,1.9,0c3.1,0,7.8-0.4,7.8-0.4c1.6-0.1,1.8,2.2,0.2,2.4
		c0,0-1.6,0.2-3.3,0.3l10.6,31.6l6.4-19.1l-4.5-12.5C27,20.2,25.5,20,25.5,20c-1.6-0.1-1.4-2.5,0.2-2.4c0,0,4.8,0.4,7.7,0.4
		c3,0,7.8-0.4,7.8-0.4c1.6-0.1,1.8,2.2,0.2,2.4c0,0-1.6,0.2-3.3,0.3l10.5,31.4l2.9-9.7c1.3-4,2.2-6.9,2.2-9.4c0-3.6-1.3-6.1-2.4-8
		C49.8,22.1,48.4,20,48.4,17.6z M59.6,20c0.1,0.9,0.2,1.9,0.2,3c0,2.9-0.6,6.3-2.2,10.4l-8.9,25.8c8.7-5.1,14.5-14.4,14.5-25.2
		C63.2,28.9,61.9,24.2,59.6,20z M48.4,17.6c0-2.7,2-5.2,4.9-5.2c0.1,0,0.2,0,0.4,0C48.5,7.7,41.6,4.8,34,4.8
		C23.8,4.8,14.8,10.1,9.6,18c0.7,0,1.3,0,1.9,0c3.1,0,7.8-0.4,7.8-0.4c1.6-0.1,1.8,2.2,0.2,2.4c0,0-1.6,0.2-3.3,0.3l10.6,31.6
		l6.4-19.1l-4.5-12.5C27,20.2,25.5,20,25.5,20c-1.6-0.1-1.4-2.5,0.2-2.4c0,0,4.8,0.4,7.7,0.4c3,0,7.8-0.4,7.8-0.4
		c1.6-0.1,1.8,2.2,0.2,2.4c0,0-1.6,0.2-3.3,0.3l10.5,31.4l2.9-9.7c1.3-4,2.2-6.9,2.2-9.4c0-3.6-1.3-6.1-2.4-8
		C49.8,22.1,48.4,20,48.4,17.6z M43.5,61.1l-9-24.6L25.8,62c2.7,0.8,5.4,1.2,8.2,1.2c3.4,0,6.7-0.6,9.7-1.7
		C43.6,61.4,43.5,61.2,43.5,61.1z M7.4,22.1C5.7,25.9,4.8,29.9,4.8,34c0,11.5,6.7,21.5,16.4,26.2L7.4,22.1z M59.6,20
		c0.1,0.9,0.2,1.9,0.2,3c0,2.9-0.6,6.3-2.2,10.4l-8.9,25.8c8.7-5.1,14.5-14.4,14.5-25.2C63.2,28.9,61.9,24.2,59.6,20z M7.4,22.1
		C5.7,25.9,4.8,29.9,4.8,34c0,11.5,6.7,21.5,16.4,26.2L7.4,22.1z M43.5,61.1l-9-24.6L25.8,62c2.7,0.8,5.4,1.2,8.2,1.2
		c3.4,0,6.7-0.6,9.7-1.7C43.6,61.4,43.5,61.2,43.5,61.1z M48.4,17.6c0-2.7,2-5.2,4.9-5.2c0.1,0,0.2,0,0.4,0
		C48.5,7.7,41.6,4.8,34,4.8C23.8,4.8,14.8,10.1,9.6,18c0.7,0,1.3,0,1.9,0c3.1,0,7.8-0.4,7.8-0.4c1.6-0.1,1.8,2.2,0.2,2.4
		c0,0-1.6,0.2-3.3,0.3l10.6,31.6l6.4-19.1l-4.5-12.5C27,20.2,25.5,20,25.5,20c-1.6-0.1-1.4-2.5,0.2-2.4c0,0,4.8,0.4,7.7,0.4
		c3,0,7.8-0.4,7.8-0.4c1.6-0.1,1.8,2.2,0.2,2.4c0,0-1.6,0.2-3.3,0.3l10.5,31.4l2.9-9.7c1.3-4,2.2-6.9,2.2-9.4c0-3.6-1.3-6.1-2.4-8
		C49.8,22.1,48.4,20,48.4,17.6z M59.6,20c0.1,0.9,0.2,1.9,0.2,3c0,2.9-0.6,6.3-2.2,10.4l-8.9,25.8c8.7-5.1,14.5-14.4,14.5-25.2
		C63.2,28.9,61.9,24.2,59.6,20z"/>
</g>
</svg>
