<?xml version="1.0" encoding="utf-8"?>
<!-- Generator: Adobe Illustrator 25.2.3, SVG Export Plug-In . SVG Version: 6.00 Build 0)  -->
<svg version="1.1" baseProfile="basic" id="Layer_1"
	 xmlns="http://www.w3.org/2000/svg" xmlns:xlink="http://www.w3.org/1999/xlink" x="0px" y="0px" viewBox="0 0 68 68"
	 xml:space="preserve">
<rect x="-110" y="-191" display="none" fill="#2B2B60" width="762" height="265"/>
<g>
	<path fill="#FFFFFF" d="M45,32.2c-2.7,0-4.7,2-4.7,5.4c0,3.3,2.1,5.4,4.7,5.4c2.6,0,4.7-2,4.7-5.4C49.7,34.2,47.6,32.2,45,32.2z"/>
	<path fill="#FFFFFF" d="M60,0H8C3.6,0,0,3.6,0,8v52c0,4.4,3.6,8,8,8h52c4.4,0,8-3.6,8-8V8C68,3.6,64.4,0,60,0z M28.9,47.2l-5.8-8.7
		l-5.7,8.7h-6.4L20,34.4L11.6,22h6.3l5.5,8.2l5.4-8.2h6l-8.3,12.2l8.9,13H28.9z M54.9,47.2h-5.1V45c-1.3,1.7-3.3,2.5-5.7,2.5
		c-5.2,0-9.2-3.9-9.2-10s4-10,9.2-10c2.3,0,4.2,0.8,5.5,2.3v-9.4h5.3V47.2z"/>
</g>
</svg>
