<?xml version="1.0" encoding="utf-8"?>
<!-- Generator: Adobe Illustrator 25.2.3, SVG Export Plug-In . SVG Version: 6.00 Build 0)  -->
<svg version="1.1" baseProfile="basic" id="Layer_1"
	 xmlns="http://www.w3.org/2000/svg" xmlns:xlink="http://www.w3.org/1999/xlink" x="0px" y="0px" viewBox="0 0 68 68"
	 xml:space="preserve">
<rect x="-192" y="-191" display="none" fill="#2B2B60" width="762" height="265"/>
<g>
	<polygon fill="#FFFFFF" points="25.7,37.7 33.3,37.7 29.5,28 	"/>
	<path fill="#FFFFFF" d="M60,0H8C3.6,0,0,3.6,0,8v52c0,4.4,3.6,8,8,8h52c4.4,0,8-3.6,8-8V8C68,3.6,64.4,0,60,0z M37.1,47.5L35,42.1
		H23.9l-2.1,5.4h-5.7l10.7-25.2h5.5l10.7,25.2H37.1z M49.3,47.5h-5V29.2h5V47.5z M46.8,26.7c-1.9,0-3.1-1.3-3.1-3s1.3-3,3.1-3
		c1.9,0,3.1,1.2,3.1,2.9C49.9,25.4,48.6,26.7,46.8,26.7z"/>
</g>
</svg>
