<?xml version="1.0" encoding="utf-8"?>
<!-- Generator: Adobe Illustrator 26.0.1, SVG Export Plug-In . SVG Version: 6.00 Build 0)  -->
<svg version="1.2" baseProfile="tiny" id="Layer_1" xmlns="http://www.w3.org/2000/svg" xmlns:xlink="http://www.w3.org/1999/xlink"
	 x="0px" y="0px" width="68px" height="68px" viewBox="0 0 68 68" overflow="visible" xml:space="preserve">
<rect x="-443" y="-191" display="none" fill="#2B2B60" width="762" height="265"/>
<g>
	<polygon points="28.2,35.8 34,35.8 34,35.8 34,35.8 39.8,35.8 34,21.9 	"/>
	<path d="M34,0L34,0L34,0L2.3,11.3l4.8,41.9L34,68l0,0l0,0l26.8-14.9l4.8-41.9L34,0z M53.8,51.9h-7.4l0,0l-4-9.9H34l0,0l0,0h-8.4
		l-4,9.9l0,0h-7.4l0,0L34,7.5l0,0l0,0l0,0l0,0L53.8,51.9L53.8,51.9z"/>
</g>
</svg>
