<?xml version="1.0" encoding="utf-8"?>
<!-- Generator: Adobe Illustrator 25.2.3, SVG Export Plug-In . SVG Version: 6.00 Build 0)  -->
<svg version="1.1" baseProfile="basic" id="Layer_1"
	 xmlns="http://www.w3.org/2000/svg" xmlns:xlink="http://www.w3.org/1999/xlink" x="0px" y="0px" viewBox="0 0 68 68"
	 xml:space="preserve">
<rect x="-204" y="-22" display="none" fill="#2B2B60" width="762" height="265"/>
<g id="layer1_2_" transform="translate(-193.633,-276.3622)">
	<path d="M197.7,276.4l5.5,61.2l24.5,6.8l24.6-6.8l5.5-61.2H197.7z M245,304.2l-0.2,2l-1.8,19.8l-0.1,1.3l-15.4,4.3v-0.1l0,0
		l-15.4-4.3l-1.1-11.8h7.5l0.5,6l8.4,2.3l0,0v0l8.4-2.3l0.9-9.8l-25.9-0.2l-0.7-7.4h27.2l0.7-7.7h-28.5l-0.7-7.4h37.5L245,304.2z"/>
</g>
</svg>
