<?xml version="1.0" encoding="utf-8"?>
<!-- Generator: Adobe Illustrator 25.2.3, SVG Export Plug-In . SVG Version: 6.00 Build 0)  -->
<svg version="1.1" baseProfile="basic" id="Layer_1"
	 xmlns="http://www.w3.org/2000/svg" xmlns:xlink="http://www.w3.org/1999/xlink" x="0px" y="0px" viewBox="0 0 68 68"
	 xml:space="preserve">
<rect x="-358" y="-113" display="none" fill="#2B2B60" width="762" height="265"/>
<g>
	<path d="M33.9,56.3l0-11.1l-11.1,0c-5.7,0-10.8,4.1-11.6,9.7c-1.1,7.6,5.3,14,12.9,12.9C29.8,67.1,33.9,62,33.9,56.3z"/>
	<path d="M23.1,22.6l10.9,0v22.6H22.6c-6.5,0-11.7-5.5-11.3-12C11.7,27.2,17,22.6,23.1,22.6z"/>
	<path d="M23.1,0l10.9,0v22.6H22.6c-6.5,0-11.7-5.5-11.3-12C11.7,4.6,17,0,23.1,0z"/>
	<path d="M33.9,0l10.9,0c6,0,11.4,4.6,11.7,10.6c0.4,6.6-4.8,12-11.3,12H33.9V0z"/>
	<path d="M56.9,34.1c0,6.3-5.1,11.4-11.4,11.4s-11.4-5.1-11.4-11.4s5.1-11.4,11.4-11.4S56.9,27.9,56.9,34.1z"/>
</g>
</svg>
