<?xml version="1.0" encoding="utf-8"?>
<!-- Generator: Adobe Illustrator 25.2.3, SVG Export Plug-In . SVG Version: 6.00 Build 0)  -->
<svg version="1.1" baseProfile="basic" id="Layer_1"
	 xmlns="http://www.w3.org/2000/svg" xmlns:xlink="http://www.w3.org/1999/xlink" x="0px" y="0px" viewBox="0 0 68 68"
	 xml:space="preserve">
<rect x="-25" y="-113" display="none" fill="#2B2B60" width="762" height="265"/>
<g>
	<path fill="#FFFFFF" d="M66.7,31L37,1.3c-1.7-1.7-4.5-1.7-6.2,0l-6.2,6.2l7.8,7.8c1.8-0.6,3.9-0.2,5.4,1.2c1.5,1.5,1.9,3.6,1.2,5.4
		l7.5,7.5c1.8-0.6,3.9-0.2,5.4,1.2c2,2,2,5.3,0,7.4c-2,2-5.3,2-7.4,0c-1.5-1.5-1.9-3.8-1.1-5.7l-7.5-7v18.5c1,0.3,1.4,0.6,1.8,1
		c2,2,2,5.3,0,7.4c-2,2-5.3,2-7.4,0c-2-2-2-5.3,0-7.4c0.5-0.5,1.1-0.9,1.8-1.1V25c-0.7-0.3-1.3-0.6-1.8-1.1
		c-1.5-1.5-1.9-3.8-1.1-5.7l-7.7-7.7L1.3,30.8c-1.7,1.7-1.7,4.5,0,6.2L31,66.7c1.7,1.7,4.5,1.7,6.2,0l29.6-29.6
		C68.4,35.5,68.4,32.7,66.7,31L66.7,31z"/>
</g>
</svg>
