<?xml version="1.0" encoding="utf-8"?>
<!-- Generator: Adobe Illustrator 25.2.3, SVG Export Plug-In . SVG Version: 6.00 Build 0)  -->
<svg version="1.1" baseProfile="basic" id="Layer_1"
	 xmlns="http://www.w3.org/2000/svg" xmlns:xlink="http://www.w3.org/1999/xlink" x="0px" y="0px" viewBox="0 0 68 68"
	 xml:space="preserve">
<rect x="-114" y="-22" display="none" fill="#2B2B60" width="385" height="121"/>
<path fill="#FFFFFF" d="M5.2,0l5.5,61.2L35.1,68l24.6-6.8L65.1,0H5.2z M53.6,14.6l-0.3,3.8L53.1,20h0H35.1H24.4l0.7,7.8h10h15.3h2
	l-0.2,2l-1.7,19.6l-0.1,1.3l-15.2,4.2v0.2l0,0l-15.4-4.3L18.6,39h3.5h4.1l0.5,6l8.4,2.3l0,0v-0.2l8.3-2.2l0.9-9.6h-9.2H18.4
	l-1.8-20.6l-0.2-2h18.8h0h18.6L53.6,14.6z"/>
</svg>
