<?xml version="1.0" encoding="utf-8"?>
<!-- Generator: Adobe Illustrator 16.0.0, SVG Export Plug-In . SVG Version: 6.00 Build 0)  -->
<!DOCTYPE svg PUBLIC "-//W3C//DTD SVG 1.1//EN" "http://www.w3.org/Graphics/SVG/1.1/DTD/svg11.dtd">
<svg version="1.1" id="Layer_1" xmlns="http://www.w3.org/2000/svg" xmlns:xlink="http://www.w3.org/1999/xlink" x="0px" y="0px"
	 width="945.712px" height="942.003px" viewBox="22.701 16.025 945.712 942.003"
	 enable-background="new 22.701 16.025 945.712 942.003" xml:space="preserve">
<path fill="#FFFFFF" d="M579.547,16.025c-6.839,0-13.188,1.465-19.05,3.419c12.456,8.304,19.294,19.294,22.714,31.75
	c0.244,1.71,0.732,2.931,0.977,4.641c0.245,1.465,0.488,2.931,0.488,4.396c0.978,21.493-5.617,24.179-10.258,36.879
	c-7.083,16.364-5.129,33.948,3.419,48.114c0.733,1.709,1.71,3.664,2.932,5.373c-9.281-61.791,42.252-71.071,51.776-90.366
	c0.733-16.852-13.188-28.086-24.179-35.902C597.864,17.979,588.339,16.025,579.547,16.025L579.547,16.025z M657.213,29.946
	c-0.978,5.617-0.245,4.152-0.488,7.083c-0.245,1.954-0.245,4.396-0.488,6.35c-0.488,1.954-0.978,3.908-1.71,5.862
	c-0.487,1.954-1.221,3.908-1.953,5.861c-0.978,1.954-1.71,3.664-2.687,5.618c-0.733,0.977-1.222,1.954-1.954,2.931
	c-0.488,0.732-0.978,1.465-1.466,2.198c-1.221,1.709-2.442,3.419-3.663,4.884c-1.466,1.465-2.687,3.175-4.396,4.396v0.245
	c-1.465,1.221-2.931,2.687-4.641,3.907c-5.129,3.908-10.99,6.839-16.363,10.502c-1.709,1.221-3.419,2.198-4.885,3.664
	c-1.709,1.221-3.175,2.442-4.64,3.908c-1.71,1.465-2.931,2.931-4.396,4.641c-1.221,1.465-2.687,3.175-3.663,4.885
	c-1.222,1.709-2.442,3.419-3.42,5.128c-0.977,1.954-1.709,3.664-2.687,5.618c-0.732,1.954-1.465,3.663-1.953,5.617
	c-0.733,2.198-1.222,4.152-1.71,6.106c-0.245,0.977-0.245,2.198-0.488,3.175c-0.245,0.977-0.245,1.954-0.488,2.931
	c0,1.954-0.244,4.152-0.244,6.106c0,1.465,0,2.931,0.244,4.396c0,1.954,0.245,3.908,0.733,6.106
	c0.244,1.954,0.732,3.908,1.221,5.861c0.732,1.954,1.222,3.908,1.954,5.862c0.488,1.221,1.221,2.442,1.71,3.419l-56.174-21.736
	c-9.525-2.687-18.806-5.129-28.331-7.327c-5.129-1.221-10.258-2.442-15.387-3.664c-14.653-2.931-29.552-5.128-44.45-6.594
	c-0.487,0-0.732-0.245-1.221-0.245c-14.654-1.465-29.063-2.198-43.718-2.198c-10.746,0-21.492,0.488-31.994,1.221
	c-14.898,0.978-29.796,2.931-44.694,5.373c-3.663,0.488-7.327,1.221-10.99,1.954c-7.571,1.465-14.898,3.175-21.981,4.884
	c-3.664,0.978-7.327,1.954-10.991,2.931c-3.663,1.465-7.083,3.175-10.501,4.64c-2.687,1.221-5.373,2.442-8.06,3.664
	c-0.488,0.245-0.977,0.245-1.221,0.488c-2.442,1.221-4.641,2.198-6.839,3.419c-0.732,0.245-1.221,0.488-1.709,0.733
	c-2.687,1.221-5.373,2.687-7.571,3.908c-1.709,0.732-3.419,1.709-4.884,2.442c-0.733,0.488-1.71,0.977-2.198,1.221
	c-2.198,1.221-4.396,2.442-6.35,3.664c-2.198,1.221-4.152,2.442-5.862,3.664c-1.709,1.221-3.419,2.198-4.884,3.419
	c-0.245,0.245-0.488,0.245-0.733,0.488c-1.465,0.978-3.175,2.198-4.64,3.419c0,0-0.245,0.245-0.488,0.488
	c-1.221,0.978-2.442,1.954-3.664,2.931c-0.488,0.245-0.977,0.733-1.465,0.978c-1.221,0.978-2.442,2.198-3.663,3.175
	c-0.245,0.488-0.733,0.733-0.978,0.978c-1.465,1.465-2.931,2.687-4.396,4.152c-0.245,0-0.245,0.245-0.488,0.488
	c-1.465,1.221-2.931,2.687-4.396,4.152c-0.245,0.245-0.245,0.488-0.488,0.488c-1.221,1.221-2.442,2.442-3.664,3.907
	c-0.488,0.488-1.221,0.978-1.709,1.466c-1.221,1.465-2.687,2.931-4.152,4.396c-0.245,0.488-0.733,0.733-0.978,1.221
	c-1.954,1.954-3.663,3.908-5.617,5.861c-0.245,0.245-0.488,0.488-0.732,0.733c-3.908,4.152-8.06,8.304-12.456,11.967
	c-4.396,3.908-9.037,7.571-13.677,10.746c-4.885,3.419-9.525,6.35-14.654,9.281c-4.884,2.687-10.013,5.129-15.386,7.327
	c-5.129,2.198-10.502,4.152-15.875,5.861c-10.258,2.198-20.76,6.35-29.796,7.083c-1.954,0-4.152,0.488-6.106,0.732
	c-2.198,0.488-4.152,0.978-6.105,1.465c-1.954,0.733-3.908,1.466-5.862,2.198c-1.954,0.732-3.908,1.709-5.861,2.687
	c-1.71,1.221-3.664,2.198-5.373,3.419c-1.71,1.221-3.419,2.686-4.885,4.152c-1.709,1.221-3.419,2.931-4.885,4.396
	c-1.465,1.71-2.931,3.175-4.152,4.885c-1.221,1.954-2.687,3.664-3.664,5.617c-1.221,1.71-2.442,3.664-3.419,5.617
	c-0.978,2.198-1.954,4.152-2.687,6.35c-0.733,1.954-1.466,4.152-2.198,6.35c-0.488,1.954-0.978,3.908-1.221,5.861
	c0,0.245-0.245,0.488-0.245,0.733c-0.488,2.198-0.488,5.129-0.733,6.594c-0.245,1.71-0.488,3.175-0.488,4.885
	c0,0.978,0,2.198,0.245,3.175c0.245,1.71,0.488,3.175,0.977,4.641c0.488,1.465,0.978,2.931,1.71,4.396v0.245
	c0.732,1.465,1.709,2.931,2.687,4.396c0.977,1.465,1.954,2.931,3.175,4.396c1.221,1.221,2.687,2.687,4.152,3.908
	c1.465,1.465,2.931,2.687,4.641,3.908c5.861,5.129,7.327,6.838,14.898,10.746c1.221,0.733,2.442,1.221,3.908,1.954
	c0.245,0,0.488,0.244,0.733,0.244c0,0.488,0,0.733,0.245,1.222c0.245,1.954,0.732,3.907,1.221,5.861
	c0.488,2.198,1.221,4.152,1.954,5.861c0.733,1.466,1.221,2.931,1.954,4.396c0.245,0.488,0.488,0.978,0.732,1.221
	c0.978,1.954,1.954,3.664,2.931,5.373c1.221,1.709,2.442,3.419,3.664,5.129c1.221,1.465,2.687,3.175,4.152,4.64
	c1.466,1.466,2.931,2.687,4.641,4.152c0,0,0.245,0.245,0.488,0.245c1.465,1.221,2.931,2.442,4.396,3.419
	c1.709,1.221,3.419,2.198,5.373,3.175c1.71,0.978,3.664,1.954,5.617,2.687c1.466,0.733,3.175,1.222,4.885,1.71
	c0.245,0.245,0.488,0.245,0.978,0.488c0.977,0.244,2.198,0.487,3.175,0.732c-0.733,13.188-0.978,25.645,0.978,30.04
	c2.198,4.885,12.944-10.013,23.69-27.109c-1.466,16.853-2.442,36.635,0,42.496c2.687,6.105,17.34-12.944,30.04-33.948
	c173.16-40.054,331.178,79.62,347.786,248.628c-3.175-26.377-35.658-41.031-50.556-37.367
	c-7.327,18.073-19.783,41.274-39.811,55.685c1.71-16.119,0.978-32.727-2.442-48.847c-5.373,22.47-15.875,43.474-30.284,61.547
	c-23.202,1.709-46.404-9.525-58.616-26.377c-0.977-0.733-1.221-2.198-1.953-3.175c-0.733-1.71-1.466-3.42-1.954-5.129
	c-0.732-1.71-1.222-3.42-1.466-5.129c-0.244-1.71-0.244-3.42-0.244-5.373c0-1.222,0-2.442,0-3.664
	c0.244-1.71,0.732-3.419,1.221-5.129c0.488-1.709,0.978-3.419,1.71-5.129c0.978-1.709,1.71-3.419,2.931-5.129
	c4.152-11.723,4.152-21.248-3.419-26.865c-1.466-0.978-2.931-1.71-4.641-2.442c-0.978-0.244-2.198-0.732-3.175-0.978
	c-0.733-0.244-1.222-0.488-1.954-0.732c-1.71-0.488-3.419-0.978-5.129-1.221c-1.71-0.488-3.419-0.733-5.129-0.733
	c-1.709-0.245-3.663-0.487-5.373-0.487c-1.221,0-2.442,0.244-3.664,0.244c-1.954,0-3.664,0.245-5.373,0.732
	c-1.709,0.245-3.419,0.488-5.129,0.978c-1.709,0.488-3.419,0.978-5.129,1.71c-1.709,0.732-3.175,1.465-4.884,2.197
	c-1.465,0.733-2.931,1.71-4.641,2.442c-56.906,37.124-22.958,124.07,15.875,149.226c-14.654,2.687-29.552,5.862-33.704,9.037
	c-0.245,0.244-0.488,0.487-0.488,0.487c10.502,6.351,21.492,11.724,32.971,16.364c15.631,5.129,32.238,9.769,39.565,11.723v0.244
	c20.271,4.152,40.787,5.618,61.547,4.396c108.194-7.571,196.851-89.877,212.97-198.315c0.488,2.198,0.978,4.151,1.465,6.35
	c0.733,4.396,1.71,9.036,2.198,13.677v0.245c0.488,2.198,0.732,4.396,0.978,6.35v0.978c0.245,2.198,0.488,4.396,0.488,6.35
	c0.244,2.688,0.487,5.373,0.487,8.061v3.907c0,1.222,0.245,2.687,0.245,3.908c0,1.465-0.245,2.931-0.245,4.396v3.42
	c0,1.709-0.244,3.175-0.244,4.885c0,0.977,0,1.953-0.245,3.175c0,1.71-0.244,3.419-0.244,5.373
	c-0.245,0.732-0.245,1.465-0.245,2.198c-0.244,1.953-0.488,3.663-0.732,5.617c0,0.732,0,1.465-0.245,2.198
	c-0.244,2.442-0.732,4.64-0.977,7.082v0.245v0.244c-0.488,2.198-0.978,4.641-1.466,6.839v0.732
	c-0.488,2.198-0.978,4.396-1.465,6.595c0,0.245-0.245,0.732-0.245,0.977c-0.488,2.198-0.978,4.396-1.709,6.595v0.732
	c-0.733,2.442-1.466,4.641-1.954,6.839c-0.245,0.244-0.245,0.488-0.245,0.488c-0.732,2.442-1.465,4.885-2.197,7.326
	c-0.978,2.442-1.71,4.641-2.687,7.083c-0.978,2.442-1.71,4.885-2.687,7.083c-0.978,2.442-1.954,4.641-2.931,7.083h-0.245
	c-0.978,2.197-1.954,4.64-3.176,6.838c-0.244,0.733-0.487,1.222-0.732,1.71c-0.244,0.245-0.244,0.488-0.488,0.732
	c-15.875,31.994-39.321,60.081-68.629,82.062c-1.954,1.222-3.907,2.687-5.861,4.152c-0.488,0.488-1.222,0.732-1.71,1.221
	c-1.709,1.222-3.419,2.442-5.373,3.664l0.733,1.465h0.244c3.419-0.487,6.839-0.977,10.258-1.465h0.244
	c6.351-0.978,12.7-2.198,19.051-3.419c1.709-0.245,3.663-0.733,5.373-1.222c1.221-0.245,2.197-0.488,3.419-0.732
	c1.709-0.245,3.419-0.733,5.129-0.978c1.465-0.488,2.931-0.732,4.396-1.221c24.423-5.862,48.113-13.922,70.826-23.446
	c-38.832,52.998-90.854,95.738-151.667,123.825c28.087-1.954,56.173-6.595,83.282-14.41
	c98.426-29.063,181.221-95.25,230.799-184.395c-10.013,56.418-32.482,110.148-65.698,157.041
	c23.69-15.631,45.428-33.704,65.21-54.22c54.708-57.15,90.61-129.687,102.821-207.597c8.305,38.589,10.747,78.398,7.083,117.72
	c176.335-245.941,14.654-500.919-52.998-568.083c-0.245-0.488-0.488-0.733-0.488-1.221c-0.245,0.245-0.245,0.245-0.245,0.488
	c0-0.245,0-0.245-0.244-0.488c0,2.931-0.245,5.861-0.488,8.792c-0.732,5.617-1.465,10.99-2.442,16.363
	c-1.221,5.373-2.687,10.746-4.152,16.12c-1.709,5.128-3.663,10.501-5.861,15.63c-2.197,4.885-4.641,10.014-7.326,14.898
	c-2.687,4.64-5.618,9.525-8.793,13.921c-3.175,4.641-6.594,9.037-10.014,13.188c-3.663,4.396-7.57,8.304-11.479,12.212
	c-2.442,2.198-4.641,4.152-7.083,6.105c-1.953,1.71-3.663,3.175-5.617,4.885c-4.396,3.419-8.792,6.594-13.677,9.525
	c-4.641,2.931-9.525,5.862-14.41,8.304c-5.129,2.442-10.257,4.64-15.386,6.838c-5.129,1.954-10.502,3.664-15.876,5.129
	c-5.373,1.465-10.99,2.687-16.363,3.664c-5.617,0.977-11.234,1.465-16.607,1.954c-3.908,0.245-7.815,0.488-11.723,0.488
	c-5.618,0-11.235-0.488-16.608-0.978c-5.617-0.488-11.234-1.221-16.607-2.442c-5.617-0.977-10.99-2.442-16.363-4.152h-0.245
	c5.373-0.488,10.746-0.977,16.119-1.954c5.617-0.978,10.99-2.198,16.364-3.664c5.373-1.465,10.746-3.175,15.875-5.129
	c5.373-1.954,10.502-4.396,15.386-6.838c5.129-2.442,9.77-5.129,14.654-8.06c4.641-3.175,9.281-6.35,13.677-9.77
	c4.396-3.419,8.548-7.083,12.456-10.99c4.152-3.664,7.815-7.815,11.479-11.968c3.664-4.396,7.083-8.792,10.258-13.188
	c0.488-0.733,0.978-1.709,1.466-2.442c2.442-3.908,4.885-7.815,7.082-11.723c2.688-4.885,5.13-9.77,7.327-14.898
	c2.198-5.128,4.152-10.258,5.862-15.63c1.709-5.129,2.931-10.502,4.151-15.875c0.978-5.618,1.954-10.991,2.442-16.364
	c0.488-5.617,0.978-11.234,0.978-16.607c0-3.908-0.245-7.815-0.488-11.723c-0.488-5.618-1.221-10.991-1.954-16.364
	c-0.977-5.617-2.197-10.99-3.663-16.363c-1.71-5.129-3.419-10.502-5.373-15.631s-4.396-10.258-6.839-15.143
	c-2.687-4.885-5.373-9.769-8.304-14.41c-3.175-4.64-6.35-9.037-9.77-13.433c-3.663-4.152-7.326-8.304-11.234-12.456
	c-1.954-1.954-4.152-4.152-6.35-6.106c-10.99-8.548-22.47-16.608-33.948-23.935c-1.71-0.978-3.175-1.71-4.885-2.442
	c-8.06-5.129-15.631-7.815-23.202-10.258V29.946z"/>
</svg>
