<?xml version="1.0" encoding="utf-8"?>
<!-- Generator: Adobe Illustrator 16.0.0, SVG Export Plug-In . SVG Version: 6.00 Build 0)  -->
<!DOCTYPE svg PUBLIC "-//W3C//DTD SVG 1.1//EN" "http://www.w3.org/Graphics/SVG/1.1/DTD/svg11.dtd">
<svg version="1.1" id="Layer_1" xmlns="http://www.w3.org/2000/svg" xmlns:xlink="http://www.w3.org/1999/xlink" x="0px" y="0px"
	 width="48px" height="48px" viewBox="173 15.717 48 48" enable-background="new 173 15.717 48 48" xml:space="preserve">
<g>
	<path fill="#FFFFFF" d="M211.034,33.954H221v1.84h-3.953v9.676h-1.977v-9.676h-4.036V33.954z"/>
	<path fill="#FFFFFF" d="M194.645,33.954v1.84h-7.988v2.958h6.424v1.839h-6.424v3.04h7.988v1.839h-9.965v-9.676h-0.001v-1.84
		H194.645z"/>
	<path fill="#FFFFFF" d="M199.621,33.959h-2.587l9.266,11.516h2.595l-4.635-5.754l4.626-5.753l-2.586,0.004l-3.335,4.141
		L199.621,33.959z"/>
	<path fill="#FFFFFF" d="M202.275,42.185l-1.296-1.611l-3.953,4.91h2.595L202.275,42.185z"/>
	<path fill="#FFFFFF" d="M184.749,45.47l-9.278-11.521H173v11.517h1.977v-9.055l7.289,9.06H184.749z"/>
</g>
</svg>
