<?xml version="1.0" encoding="utf-8"?>
<!-- Generator: Adobe Illustrator 25.2.3, SVG Export Plug-In . SVG Version: 6.00 Build 0)  -->
<svg version="1.1" baseProfile="basic" id="Layer_1"
	 xmlns="http://www.w3.org/2000/svg" xmlns:xlink="http://www.w3.org/1999/xlink" x="0px" y="0px" viewBox="0 0 68 68"
	 xml:space="preserve">
<rect x="-443" y="-113" display="none" fill="#2B2B60" width="762" height="265"/>
<g>
	<path d="M25.6,27.8h-4.5v8.7h4.5c3.4,0,5.1-1.6,5.1-4.4C30.7,29.4,29,27.8,25.6,27.8z"/>
	<path d="M60,0H8C3.6,0,0,3.6,0,8v52c0,4.4,3.6,8,8,8h52c4.4,0,8-3.6,8-8V8C68,3.6,64.4,0,60,0z M25.9,41.3h-4.8v6.9h-5.5V23h10.4
		c6.4,0,10.4,3.5,10.4,9.1C36.3,37.8,32.3,41.3,25.9,41.3z M45.7,48.5c-3.1,0-6.3-0.9-8-2.1l1.8-4c1.6,1.1,4.1,1.9,6.4,1.9
		c2.5,0,3.4-0.7,3.4-1.8c0-3.2-11.1,0.1-11.1-7.7c0-3.7,3.1-6.3,8.5-6.3c2.5,0,5.3,0.6,7.1,1.7l-1.8,4c-1.8-1.1-3.6-1.4-5.3-1.4
		c-2.4,0-3.4,0.8-3.4,1.8c0,3.3,11.1,0.1,11.1,7.7C54.4,45.9,51.2,48.5,45.7,48.5z"/>
</g>
</svg>
