<?xml version="1.0" encoding="utf-8"?>
<!-- Generator: Adobe Illustrator 16.0.0, SVG Export Plug-In . SVG Version: 6.00 Build 0)  -->
<svg version="1.2" baseProfile="tiny" id="Layer_1" xmlns="http://www.w3.org/2000/svg" xmlns:xlink="http://www.w3.org/1999/xlink"
	 x="0px" y="0px" width="68px" height="68px" viewBox="0 0 68 68" xml:space="preserve">
<g>
	<path fill="#FFFFFF" d="M68,34.01c0-4.5-5.64-8.77-14.29-11.42c2-8.82,1.11-15.83-2.8-18.07c-0.9-0.52-1.95-0.77-3.09-0.78V3.72
		c-3.81,0-8.8,2.72-13.85,7.43c-5.04-4.69-10.04-7.37-13.85-7.37v0.01c-1.16,0-2.22,0.25-3.13,0.78c-3.89,2.25-4.77,9.24-2.76,18.03
		C5.61,25.26,0,29.52,0,34.01c0,4.5,5.64,8.77,14.29,11.42c-2,8.82-1.11,15.83,2.8,18.07c0.9,0.53,1.95,0.78,3.12,0.78
		c3.81,0,8.8-2.72,13.85-7.43c5.04,4.68,10.04,7.37,13.85,7.37c1.16,0,2.22-0.25,3.13-0.78c3.89-2.25,4.77-9.25,2.76-18.03
		C62.39,42.77,68,38.5,68,34.01z M47.8,6.81v0.01c0.64,0,1.15,0.13,1.58,0.36c1.88,1.08,2.7,5.2,2.07,10.49
		c-0.15,1.3-0.4,2.68-0.71,4.08c-2.72-0.67-5.68-1.18-8.8-1.51c-1.87-2.56-3.81-4.89-5.77-6.93C40.69,9.12,44.92,6.82,47.8,6.81z
		 M21.72,41.1c0.65,1.11,1.32,2.19,2,3.24c-1.97-0.29-3.87-0.65-5.68-1.09c0.51-1.79,1.15-3.63,1.87-5.47
		C20.47,38.89,21.07,40,21.72,41.1z M17.99,24.76c1.82-0.43,3.73-0.8,5.71-1.09c-0.68,1.07-1.36,2.16-2,3.29
		c-0.64,1.11-1.23,2.22-1.8,3.33C19.15,28.42,18.52,26.56,17.99,24.76z M21.53,34.05c0.86-1.86,1.83-3.71,2.87-5.53
		c1.08-1.87,2.19-3.65,3.34-5.29c2.07-0.18,4.16-0.28,6.27-0.28c2.09,0,4.19,0.1,6.24,0.26c1.15,1.65,2.27,3.41,3.36,5.27
		c1.05,1.82,2.01,3.66,2.88,5.52c-0.87,1.86-1.83,3.71-2.87,5.53c-1.08,1.87-2.19,3.65-3.34,5.29C38.2,45,36.11,45.1,34,45.1
		c-2.09,0-4.19-0.1-6.24-0.26c-1.15-1.65-2.27-3.41-3.35-5.27C23.35,37.75,22.4,35.91,21.53,34.05z M46.28,41.06
		c0.64-1.11,1.23-2.23,1.8-3.34c0.75,1.86,1.39,3.71,1.91,5.52c-1.81,0.44-3.73,0.82-5.71,1.11C44.96,43.28,45.64,42.18,46.28,41.06
		z M46.27,26.91c-0.64-1.11-1.32-2.19-2-3.24c1.97,0.29,3.87,0.65,5.68,1.09c-0.51,1.79-1.15,3.63-1.87,5.48
		C47.51,29.13,46.92,28.02,46.27,26.91z M37.81,19.94c-1.25-0.06-2.52-0.1-3.81-0.1c-1.3,0-2.59,0.03-3.85,0.1
		c1.25-1.62,2.54-3.1,3.81-4.44C35.25,16.83,36.54,18.32,37.81,19.94z M18.53,7.24c0.42-0.25,0.96-0.36,1.59-0.36V6.87
		c2.87,0,7.13,2.29,11.64,6.46c-1.94,2.04-3.88,4.35-5.72,6.92c-3.13,0.33-6.1,0.85-8.81,1.53c-0.32-1.39-0.55-2.73-0.72-4.02
		C15.86,12.45,16.66,8.34,18.53,7.24z M15.04,42.43c-1.37-0.43-2.67-0.9-3.88-1.41c-4.91-2.09-8.08-4.84-8.08-7.01
		c0-2.18,3.17-4.93,8.08-7.01c1.19-0.51,2.5-0.97,3.84-1.4c0.79,2.72,1.83,5.54,3.12,8.44C16.84,36.92,15.81,39.73,15.04,42.43z
		 M20.18,61.2c-0.62-0.01-1.15-0.14-1.57-0.37c-1.88-1.08-2.7-5.2-2.07-10.49c0.15-1.3,0.4-2.67,0.71-4.08
		c2.72,0.67,5.68,1.18,8.8,1.51c1.87,2.56,3.81,4.89,5.77,6.93C27.31,58.9,23.06,61.2,20.18,61.2z M34.03,52.51
		c-1.29-1.33-2.58-2.81-3.85-4.44c1.25,0.06,2.52,0.1,3.81,0.1c1.3,0,2.59-0.03,3.85-0.1C36.59,49.7,35.3,51.18,34.03,52.51z
		 M49.47,60.77c-0.42,0.25-0.96,0.36-1.59,0.36c-2.87,0-7.13-2.29-11.64-6.46c1.94-2.04,3.88-4.35,5.72-6.92
		c3.13-0.33,6.1-0.85,8.82-1.52c0.32,1.4,0.57,2.74,0.72,4.03C52.14,55.56,51.34,59.68,49.47,60.77z M56.83,41.02
		c-1.19,0.51-2.49,0.97-3.84,1.4c-0.79-2.72-1.83-5.54-3.12-8.44c1.28-2.88,2.3-5.7,3.08-8.4c1.37,0.43,2.68,0.9,3.89,1.41
		c4.91,2.09,8.08,4.84,8.08,7.01C64.91,36.18,61.73,38.94,56.83,41.02z"/>
	<circle fill="#FFFFFF" cx="33.99" cy="34.01" r="6.33"/>
</g>
</svg>
