<?xml version="1.0" encoding="utf-8"?>
<!-- Generator: Adobe Illustrator 25.2.3, SVG Export Plug-In . SVG Version: 6.00 Build 0)  -->
<svg version="1.1" baseProfile="basic" id="Layer_1"
	 xmlns="http://www.w3.org/2000/svg" xmlns:xlink="http://www.w3.org/1999/xlink" x="0px" y="0px" viewBox="0 0 68 68"
	 xml:space="preserve">
<rect x="-290" y="-22" display="none" fill="#2B2B60" width="762" height="265"/>
<g>
	<path fill="#FFFFFF" d="M58.5,37.8c-2.4,0-4.4,0.6-6.2,1.4C51.7,38,51.1,36.8,51,36c-0.1-1-0.3-1.5-0.1-2.7
		c0.2-1.1,0.8-2.8,0.8-2.9c0-0.1-0.1-0.7-1.5-0.7c-1.4,0-2.5,0.3-2.7,0.6c-0.1,0.4-0.4,1.2-0.6,2c-0.2,1.2-2.7,5.7-4.2,8
		c-0.5-0.9-0.9-1.7-1-2.3c-0.1-1-0.3-1.5-0.1-2.7c0.1-1.2,0.8-2.8,0.8-2.9c0-0.1-0.2-0.7-1.5-0.7c-1.4,0-2.5,0.3-2.7,0.6
		c-0.1,0.4-0.3,1.2-0.6,2c-0.3,0.8-3.6,8.2-4.5,10.1c-0.4,1-0.8,1.8-1.1,2.3c0,0,0,0.1,0,0.1v0c-0.2,0.5-0.1,0.7-0.1,0.7v0
		c0,0-0.6,0.7-0.7,0.7c-0.1,0-0.2-0.9,0-2.1c0.5-2.5,1.7-6.5,1.7-6.7c0-0.1,0.2-0.8-0.8-1.1c-1-0.3-1.3,0.2-1.4,0.2
		c-0.1,0-0.1,0.1-0.1,0.2c0.1-0.4,0.9-4.5-2.1-4.5c-2,0-4.7,2.1-6,4.1c-0.8,0.5-2.7,1.4-4.6,2.5c-0.7,0.4-1.5,0.8-2.2,1.2l-0.1-0.2
		c-3.8-4-10.8-6.9-10.5-12.4c0.1-2,0.8-7.2,13.5-13.5c10.4-5.2,18.7-3.8,20.2-0.6c2.1,4.5-4.5,12.9-15.3,14.1
		c-4.1,0.5-6.3-1.1-6.8-1.7c-0.6-0.6-0.6-0.6-0.9-0.5c-0.3,0.2-0.1,0.7,0,1.1c0.3,0.8,1.7,2.3,3.9,3.1c2,0.7,6.8,1,12.6-1.2
		c6.5-2.5,11.7-9.6,10.2-15.5c-1.5-6-11.5-8-20.9-4.6c-5.6,2-11.6,5.1-16,9.2c-5.2,4.8-6,9.1-5.7,10.8c1.2,6.3,9.8,10.3,13.3,13.3
		c-0.2,0.1-0.3,0.2-0.5,0.3c-1.7,0.8-8.3,4.3-10,7.9c-1.9,4.1,0.3,7.1,1.7,7.5c4.4,1.2,9-1,11.4-4.6c2.4-3.7,2.1-8.4,1-10.6l0-0.1
		l1.3-0.8c0.9-0.5,1.7-1,2.5-1.4c-0.4,1.2-0.7,2.5-0.9,4.5c-0.2,2.3,0.8,5.4,2,6.6c0.6,0.5,1.2,0.5,1.6,0.5c1.5,0,2.1-1.2,2.8-2.7
		c0.9-1.7,1.6-3.5,1.7-3.8c-0.1,0.4-0.9,5.5,1.7,5.5c1,0,2.9-1.8,3-1.9c-0.1,0-0.5,0-0.5-0.1C32.6,50.2,33,50,33,50v0
		c0,0,1-2.3,2.3-4.9c1.7-3.4,3.4-7.6,3.4-7.6s0.2,1,0.6,2.7c0.3,1,0.9,2.1,1.4,3.2c-0.4,0.6-0.6,0.9-0.6,0.9l0,0
		c-0.3,0.4-0.7,0.9-1.1,1.3c-1.4,1.6-3,3.5-3.2,4c-0.2,0.6-0.2,1.1,0.3,1.5c0.4,0.3,1,0.3,1.7,0.3c1.2-0.1,2.1-0.4,2.5-0.6
		c0.7-0.2,1.4-0.6,2.2-1.1c1.3-1,2.1-2.4,2.1-4.2c0-1-0.4-2-0.8-3c0.1-0.2,0.2-0.4,0.4-0.5c2.1-3.1,3.7-6.4,3.7-6.4s0.2,1,0.6,2.7
		c0.2,0.9,0.8,1.8,1.2,2.7c-2,1.6-3.2,3.5-3.6,4.7c-0.8,2.3-0.2,3.3,1,3.5c0.5,0.1,1.3-0.1,1.8-0.4c0.7-0.2,1.5-0.6,2.3-1.2
		c1.3-1,2.6-2.3,2.5-4.2c0-0.8-0.3-1.7-0.6-2.5c1.7-0.7,3.8-1.1,6.6-0.8c5.9,0.7,7.1,4.4,6.8,5.9c-0.2,1.5-1.5,2.4-1.9,2.7
		c-0.4,0.2-0.5,0.3-0.5,0.5c0.1,0.3,0.2,0.3,0.6,0.2c0.5-0.1,3.1-1.3,3.2-4.1C68.2,41.7,64.7,37.7,58.5,37.8z M13,53.1
		c-2,2.1-4.7,3-5.9,2.3c-1.3-0.7-0.8-3.9,1.6-6.1c1.5-1.4,3.4-2.7,4.6-3.4c0.3-0.2,0.7-0.4,1.2-0.7c0.1,0,0.1-0.1,0.1-0.1
		c0.1-0.1,0.2-0.1,0.3-0.2C15.9,48.1,15,50.9,13,53.1z M27.2,43.4c-0.7,1.7-2.1,5.9-3,5.7c-0.8-0.2-1.2-3.4-0.2-6.6
		c0.5-1.6,1.7-3.5,2.3-4.3c1.1-1.2,2.2-1.6,2.5-1.1C29.3,37.8,27.7,42.4,27.2,43.4z M42,45.4c0,1.9-1.8,3.2-2.7,3.7
		c-0.3,0.1-0.6,0.3-0.7,0.2c-0.1-0.1,0.1-0.3,0.1-0.3s1.5-1.6,2.1-2.3c0.3-0.4,0.7-0.9,1.2-1.5V45.4z M48.1,47
		c-0.2-0.2-0.2-0.7,0.5-2.2c0.3-0.6,0.9-1.6,2-2.6c0.1,0.4,0.2,0.8,0.2,1.1C50.8,45.7,49.1,46.6,48.1,47z"/>
</g>
</svg>
