<?xml version="1.0" encoding="utf-8"?>
<!-- Generator: Adobe Illustrator 16.0.0, SVG Export Plug-In . SVG Version: 6.00 Build 0)  -->
<svg version="1.2" baseProfile="tiny" id="Layer_1" xmlns="http://www.w3.org/2000/svg" xmlns:xlink="http://www.w3.org/1999/xlink"
	 x="0px" y="0px" width="68px" height="68px" viewBox="0 0 68 68" xml:space="preserve">
<path fill="#FFFFFF" d="M62.77,52.41L35.21,68V55.86l17.17-9.45L62.77,52.41L62.77,52.41z M64.66,50.7V18.1l-10.08,5.83v20.96
	L64.66,50.7L64.66,50.7z M5.23,52.41L32.79,68V55.86l-17.18-9.45L5.23,52.41z M3.34,50.7V18.1l10.08,5.83v20.96L3.34,50.7z
	 M4.52,15.99L32.79,0v11.73L14.68,21.7l-0.15,0.08L4.52,15.99z M63.47,15.99L35.21,0v11.73l18.11,9.96l0.14,0.08L63.47,15.99z"/>
<path fill="#FFFFFF" d="M32.79,53.63l-16.95-9.32V25.85l16.95,9.78V53.63z M35.21,53.63l16.94-9.31V25.85l-16.94,9.78V53.63z
	 M16.99,23.72L34,14.37l17.01,9.35L34,33.54L16.99,23.72z"/>
</svg>
