<?xml version="1.0" encoding="utf-8"?>
<!-- Generator: Adobe Illustrator 25.2.3, SVG Export Plug-In . SVG Version: 6.00 Build 0)  -->
<svg version="1.1" baseProfile="basic" id="Layer_1"
	 xmlns="http://www.w3.org/2000/svg" xmlns:xlink="http://www.w3.org/1999/xlink" x="0px" y="0px" viewBox="0 0 68 68"
	 xml:space="preserve">
<rect x="-277" y="-191" display="none" fill="#2B2B60" width="762" height="265"/>
<g>
	<g>
		<g>
			<path fill-rule="evenodd" clip-rule="evenodd" fill="#FFFFFF" d="M20.8,29.5c0.9,0.1,1.8,0.1,2.5,0.1c0.8,0,1.5,0,2.2,0
				c0.3,0,0.5-0.1,0.5-0.5c0-1.3,0.1-2.6,0-3.9c-0.1-1.7-1-3-2.6-3.6s-3.1-0.3-4.4,0.9c-1.3,1.2-1.4,2.7-1,4.3
				C18.3,28.4,19.3,29.2,20.8,29.5z"/>
			<path fill-rule="evenodd" clip-rule="evenodd" fill="#FFFFFF" d="M48.5,34.1c-0.3-0.1-0.6-0.2-0.9-0.4c0.1-0.3,0.3-0.5,0.5-0.7
				c1.8-2.4,2.8-5.2,2.6-8.2c-0.2-2.2-2-3.8-4.2-3.7c-2.2,0.1-3.9,1.8-3.9,4c0,0.2,0,0.4,0,0.5c-0.2,2.4-1.5,3.7-3.5,3.8
				c-0.4,0-0.7,0.1-1.1,0.1c-2.6,0-5.2,0-7.7,0c-1.1,0-2.2,0.1-3.3,0.5c-5,1.5-7.9,5-8.9,10.1c-0.2,1-0.4,2.1,0,3.1
				c0.5,1.5,1.4,2.6,2.9,3c1.6,0.4,3,0,4.2-1.3c0.7-0.8,1-1.8,1-2.9c0.1-2.8,1.7-4.2,4.2-4.1c3.9,0,7.7,0,11.6,0
				c0.7,0,0.7,0,0.7,0.7c0,1.3,0,2.5,0,3.8c0.1,2,1.9,3.7,4,3.8s4.1-1.5,4.2-3.6c0.1-1.8,0.1-3.6,0-5.4
				C50.5,35.7,49.7,34.7,48.5,34.1z"/>
			<path fill-rule="evenodd" clip-rule="evenodd" fill="#FFFFFF" d="M67.7,7.7c0-0.9-0.1-1.8-0.2-2.7c-0.5-2.3-1.7-3.9-4-4.6
				C62.4,0.1,61.4,0,60.3,0C51.5,0,42.7,0,34,0S16.5,0,7.8,0C7.2,0,6.5,0,5.9,0.1C3.2,0.4,1.4,1.8,0.6,4.4c-0.3,1-0.3,2-0.3,3
				c0,17.4,0,34.8,0,52.1c0,0.8,0,1.6,0.1,2.3c0.2,2.2,1.4,3.8,3.1,5.1c0.2,0.2,0.5,0.3,0.8,0.4C5.5,67.9,7,68,8.4,68
				c17.1,0,34.3,0,51.4,0c0.8,0,1.5-0.2,2.3-0.2c0.3,0,0.7-0.1,1-0.2c1.8-0.5,3-1.8,3.8-3.4c0.8-1.4,0.9-3,0.9-4.6
				c0-11.2,0-22.3,0-33.5C67.7,20,67.7,13.9,67.7,7.7z M57,35.3c1.4,2.2,2,4.5,1.9,7.1c-0.2,5.4-4,10.2-9.2,11.5
				c-7.3,1.8-12.9-2.6-14.8-7.9c-0.3-0.9-0.5-1.8-0.6-2.8c-0.2,1.2-0.3,2.2-0.7,3.2c-2,4.6-5.3,7.4-10.4,7.9c-6,0.7-11.5-3-13.1-8.7
				c-0.6-2.1-0.5-4.2-0.3-6.3c0.2-2.3,0.9-4.4,1.9-6.4c0.1-0.3,0.1-0.5,0-0.8c-1.6-2.4-2.2-5-2-7.9c0.1-1.5,0.5-3,1.2-4.3
				c2-4,6.5-7.4,12.4-6.8c5.2,0.5,10.1,5,10.9,10.1c0,0.3,0.1,0.5,0.2,0.9c0.1-0.7,0.2-1.2,0.3-1.8c1-4.6,5.5-9.5,11.9-9.5
				c6.5-0.1,11.3,5,12.2,9.8c0.4,2,0.3,4,0,6s-0.9,3.9-1.8,5.7C56.7,34.7,56.7,35,57,35.3z"/>
		</g>
	</g>
</g>
</svg>
