<?xml version="1.0" encoding="utf-8"?>
<!-- Generator: Adobe Illustrator 25.3.1, SVG Export Plug-In . SVG Version: 6.00 Build 0)  -->
<svg version="1.1" id="Layer_1" xmlns="http://www.w3.org/2000/svg" xmlns:xlink="http://www.w3.org/1999/xlink" x="0px" y="0px"
	 width="67.8px" height="59.8px" viewBox="0 0 67.8 59.8" style="enable-background:new 0 0 67.8 59.8;" xml:space="preserve">
<style type="text/css">
	.st0{fill:none;stroke:#094C3F;stroke-width:2;stroke-linecap:round;stroke-linejoin:round;stroke-miterlimit:10;}
</style>
<g>
	<path class="st0" d="M24,23.8c0-1,0.2-1.8,0.9-2.6c3.6-3.7,14.5-14.9,16-16.7c1.8-2.1,5.7-4.9,8.2-2.9c2.5,1.9,2.1,4.4,0.6,6.8
		C48.2,10.8,41,22.8,41,22.8h22c1.3-0.1,3.8,1.4,3.8,4.6S64,32,62.7,32.1c0,0,3.4,1.1,3.4,5c0,3.9-4.2,4.4-4.4,4.4
		c0,0,3.2,0.8,3.2,4.8c0,4-4.1,4.5-5.4,4.3c0,0,2.9,0.7,2.9,4c0,3.3-3.6,4.2-5.4,4.2H28c-2.2,0-4-1.8-4-4V23.8z"/>
</g>
<path class="st0" d="M15,58.8H5c-2.2,0-4-1.8-4-4v-28c0-2.2,1.8-4,4-4h10c2.2,0,4,1.8,4,4v28C19,57,17.2,58.8,15,58.8z"/>
<line class="st0" x1="10" y1="29.8" x2="10" y2="51.8"/>
<line class="st0" x1="14" y1="33.8" x2="14" y2="47.8"/>
<line class="st0" x1="6" y1="33.8" x2="6" y2="47.8"/>
</svg>
