<?xml version="1.0" encoding="utf-8"?>
<!-- Generator: Adobe Illustrator 25.3.1, SVG Export Plug-In . SVG Version: 6.00 Build 0)  -->
<svg version="1.1" id="Isolation_Mode" xmlns="http://www.w3.org/2000/svg" xmlns:xlink="http://www.w3.org/1999/xlink" x="0px"
	 y="0px" viewBox="0 0 1600 1000" style="enable-background:new 0 0 1600 1000;" xml:space="preserve">
<style type="text/css">
	.st0{fill:#F2F2F2;enable-background:new    ;}
</style>
<path class="st0" d="M1403.7-95.4c-88,11.2-175.7,30.4-263,3.2c-87.3-27.1-186.8-23.6-261.3,33.9c-39,30.1-69.3,71.4-86.5,117.5
	c-33.1,88.6,22.7,180.6-7,270.7c-30.4,92-132.1,179.2-74.8,282.3c24.2,43.5,72.4,72.5,122.1,73.5c61.2,1.3,119.5-31.3,180.8-12
	c59.1,18.5,100.2,69.4,152.2,100.5c93.7,56.2,192.4,17.7,281.7-25.9c35-17.2,68.3-38,103-55.9c9.3-4.8,117.1-46.9,117.1-43.9v-777.6
	C1579.9-117.8,1491.9-106.6,1403.7-95.4z"/>
<path class="st0" d="M-302.7,1017.3c88-11.2,183.2-24.7,270.6,2.4c87.3,27.1,186.3-25.1,260.9-82.6c39-30.1,69.3-71.4,86.5-117.5
	c33.1-88.6-22.7-180.6,7-270.7c30.4-92,132.1-179.2,74.8-282.3c-24.2-43.5-72.4-72.5-122.1-73.5c-61.2-1.3-119.5,31.3-180.8,12
	C35.1,186.7-6.1,135.8-58,104.7c-93.7-56.2-192.4-17.7-281.7,25.9c-35,17.2-68.3,38-103,55.9c-9.3,4.8-117.1,46.9-117.1,43.9V1008
	C-471.8,996.8-390.8,1028.5-302.7,1017.3z"/>
</svg>
