<?xml version="1.0" encoding="utf-8"?>
<!-- Generator: Adobe Illustrator 24.3.0, SVG Export Plug-In . SVG Version: 6.00 Build 0)  -->
<svg version="1.1" id="Layer_1" xmlns="http://www.w3.org/2000/svg" xmlns:xlink="http://www.w3.org/1999/xlink" x="0px" y="0px"
	 width="76px" height="76px" viewBox="0 0 76 76" style="enable-background:new 0 0 76 76;" xml:space="preserve">
<style type="text/css">
	.st0{fill:#1C2238;}
	.st1{fill:#33384C;}
	.st2{fill:#CA4941;}
	.st3{fill:none;stroke:#CA4941;stroke-width:2;stroke-miterlimit:10;}
</style>
<circle class="st0" cx="39.3" cy="-22.6" r="10.4"/>
<circle class="st1" cx="10.1" cy="-22.6" r="10.4"/>
<circle class="st2" cx="65.9" cy="-22.6" r="10.4"/>
<rect x="1" y="1" class="st3" width="74" height="48"/>
<line class="st3" x1="35" y1="75" x2="35" y2="49"/>
<line class="st3" x1="50" y1="75" x2="26" y2="75"/>
<line class="st3" x1="41" y1="49" x2="41" y2="75"/>
<line class="st3" x1="2" y1="43" x2="75" y2="43"/>
<rect x="7" y="7" class="st3" width="62" height="30"/>
<line class="st3" x1="10" y1="11" x2="12" y2="11"/>
<line class="st3" x1="14" y1="11" x2="16" y2="11"/>
<line class="st3" x1="18" y1="11" x2="20" y2="11"/>
<line class="st3" x1="7" y1="15" x2="69" y2="15"/>
<line class="st3" x1="10" y1="19" x2="20" y2="19"/>
<line class="st3" x1="10" y1="27" x2="20" y2="27"/>
<line class="st3" x1="15" y1="23" x2="25" y2="23"/>
<line class="st3" x1="22" y1="19" x2="30" y2="19"/>
<line class="st3" x1="27" y1="23" x2="35" y2="23"/>
<line class="st3" x1="57" y1="27" x2="62" y2="27"/>
<line class="st3" x1="27" y1="27" x2="35" y2="27"/>
<line class="st3" x1="37" y1="27" x2="45" y2="27"/>
<line class="st3" x1="32" y1="19" x2="37" y2="19"/>
<line class="st3" x1="39" y1="19" x2="44" y2="19"/>
<line class="st3" x1="46" y1="19" x2="49" y2="19"/>
<line class="st3" x1="57" y1="23" x2="60" y2="23"/>
<line class="st3" x1="10" y1="32" x2="20" y2="32"/>
<line class="st3" x1="22" y1="32" x2="30" y2="32"/>
<line class="st3" x1="32" y1="32" x2="37" y2="32"/>
<line class="st3" x1="39" y1="32" x2="44" y2="32"/>
<line class="st3" x1="46" y1="32" x2="49" y2="32"/>
<line class="st3" x1="51" y1="32" x2="54" y2="32"/>
<line class="st3" x1="37" y1="23" x2="40" y2="23"/>
<line class="st3" x1="42" y1="23" x2="55" y2="23"/>
<line class="st3" x1="47" y1="27" x2="50" y2="27"/>
<line class="st3" x1="52" y1="27" x2="55" y2="27"/>
<line class="st3" x1="10" y1="23" x2="13" y2="23"/>
<line class="st3" x1="22" y1="27" x2="25" y2="27"/>
</svg>
