<?xml version="1.0" encoding="utf-8"?>
<!-- Generator: Adobe Illustrator 24.3.0, SVG Export Plug-In . SVG Version: 6.00 Build 0)  -->
<svg version="1.1" id="Layer_1" xmlns="http://www.w3.org/2000/svg" xmlns:xlink="http://www.w3.org/1999/xlink" x="0px" y="0px"
	 width="76px" height="76px" viewBox="0 0 76 76" style="enable-background:new 0 0 76 76;" xml:space="preserve">
<style type="text/css">
	.st0{fill:none;stroke:#CA4941;stroke-width:2;stroke-miterlimit:10;}
</style>
<rect x="33" y="0.9" class="st0" width="10" height="11"/>
<rect x="27" y="55" class="st0" width="22" height="4"/>
<rect x="31" y="59" class="st0" width="14" height="16"/>
<rect x="65" y="34.1" class="st0" width="10" height="11"/>
<rect x="1" y="34.1" class="st0" width="10" height="11"/>
<path class="st0" d="M43,5.9c14.7,0,27.5,13.8,27.5,28.1"/>
<path class="st0" d="M6.3,34C6.3,19.6,18.9,5.9,33,5.9"/>
<path class="st0" d="M75.5,39.6c0,0.4,0,0.9,0,1.3"/>
<g>
	<g>
		<circle class="st0" cx="67.9" cy="6.6" r="3"/>
	</g>
	<g>
		<circle class="st0" cx="8.9" cy="6.6" r="3"/>
	</g>
	<line class="st0" x1="64.3" y1="5.9" x2="43" y2="5.9"/>
	<line class="st0" x1="33" y1="5.9" x2="11.9" y2="5.9"/>
</g>
<path class="st0" d="M38,17"/>
<polygon class="st0" points="51,45 43.7,55 32.3,55 25,45 38,20 "/>
<g>
	<circle class="st0" cx="38" cy="45.5" r="3.5"/>
</g>
<line class="st0" x1="38" y1="20" x2="38" y2="42"/>
<line class="st0" x1="34" y1="67" x2="42" y2="67"/>
<line class="st0" x1="34" y1="63" x2="42" y2="63"/>
<line class="st0" x1="34" y1="71" x2="42" y2="71"/>
</svg>
