<?xml version="1.0" encoding="utf-8"?>
<!-- Generator: Adobe Illustrator 25.2.3, SVG Export Plug-In . SVG Version: 6.00 Build 0)  -->
<svg version="1.1" id="Layer_1" xmlns="http://www.w3.org/2000/svg" xmlns:xlink="http://www.w3.org/1999/xlink" x="0px" y="0px"
	 width="76px" height="76px" viewBox="0 0 76 76" style="enable-background:new 0 0 76 76;" xml:space="preserve">
<style type="text/css">
	.st0{fill:#1C2238;}
	.st1{fill:#33384C;}
	.st2{fill:#CA4941;}
	.st3{fill:none;stroke:#CA4941;stroke-width:2;stroke-miterlimit:10;}
</style>
<circle class="st0" cx="39.3" cy="-22.6" r="10.4"/>
<circle class="st1" cx="10.1" cy="-22.6" r="10.4"/>
<circle class="st2" cx="65.9" cy="-22.6" r="10.4"/>
<path class="st3" d="M75,17.4v40c0,0.3,0,0.7-0.1,1c-0.5,2.3-2.5,4-4.9,4h-9c0.2-0.3,0.4-0.6,0.6-1c0.2-0.3,0.4-0.6,0.6-1
	c0.2-0.3,0.4-0.7,0.6-1c0.2-0.3,0.4-0.7,0.5-1c0.2-0.3,0.3-0.6,0.4-1c0.1-0.2,0.2-0.5,0.3-0.7c0.1-0.2,0.1-0.4,0.2-0.5c0,0,0,0,0,0
	c0.1-0.2,0.2-0.5,0.3-0.7c0.1-0.3,0.2-0.7,0.3-1c0.1-0.2,0.1-0.5,0.2-0.7c0,0,0-0.1,0-0.1c0-0.2,0.1-0.3,0.1-0.5
	c0.1-0.2,0.1-0.5,0.2-0.7c0,0,0,0,0-0.1c0.1-0.2,0.1-0.5,0.1-0.7c0-0.2,0.1-0.3,0.1-0.5c0-0.2,0.1-0.5,0.1-0.7
	c0-0.3,0.1-0.6,0.1-0.9c0-0.3,0.1-0.6,0.1-0.9c0-0.2,0-0.5,0.1-0.8v0c0-0.2,0-0.4,0-0.5c0-0.3,0-0.6,0-0.8c0-0.4,0-0.9,0-1.3v-0.2
	c0-0.4,0-0.7-0.1-1.1c0,0,0,0,0,0c0-0.1,0-0.3,0-0.4c0-0.3-0.1-0.7-0.1-1c0-0.2-0.1-0.5-0.1-0.7c0-0.2-0.1-0.4-0.1-0.6v0
	c0-0.2-0.1-0.5-0.1-0.7c-0.1-0.7-0.3-1.3-0.5-2c-0.1-0.2-0.1-0.5-0.2-0.7c0,0,0-0.1,0-0.1c0-0.2-0.1-0.3-0.2-0.5c0,0,0,0,0-0.1
	c-0.1-0.2-0.1-0.3-0.2-0.5c0,0,0,0,0-0.1c0-0.1,0-0.1-0.1-0.2c-0.1-0.3-0.2-0.6-0.3-0.9c-0.1-0.3-0.3-0.6-0.4-1
	c-0.1-0.2-0.2-0.4-0.3-0.7c0-0.1-0.1-0.2-0.1-0.3c0,0,0-0.1-0.1-0.1c-0.1-0.1-0.1-0.2-0.2-0.4s-0.1-0.2-0.2-0.4
	c-0.2-0.3-0.3-0.6-0.5-0.9c-0.1-0.2-0.3-0.4-0.4-0.6c-0.1-0.2-0.3-0.5-0.5-0.7c-0.2-0.3-0.4-0.6-0.7-1c0,0,0,0,0-0.1l-0.1-0.2
	c-0.2-0.3-0.4-0.6-0.7-0.8c0-0.1-0.1-0.1-0.1-0.2c-0.1-0.1-0.2-0.3-0.4-0.4c-0.1-0.1-0.2-0.3-0.4-0.4c0,0,0,0,0,0l0,0
	c-0.3-0.3-0.6-0.6-0.9-0.9c-0.2-0.2-0.4-0.4-0.6-0.6c-0.2-0.2-0.4-0.4-0.6-0.5c0,0,0,0,0,0c-0.4-0.4-0.8-0.7-1.3-1
	c-0.4-0.3-0.9-0.7-1.3-1c-0.2-0.1-0.3-0.2-0.5-0.3c-0.3-0.2-0.5-0.3-0.8-0.5c0,0-0.1,0-0.1-0.1c-0.3-0.2-0.5-0.3-0.8-0.5
	c-0.2-0.1-0.5-0.3-0.7-0.4c-0.1,0-0.2-0.1-0.3-0.1c0,0,0,0,0,0c-0.2-0.1-0.4-0.2-0.6-0.3c-0.1,0-0.1-0.1-0.2-0.1
	c-0.3-0.1-0.5-0.3-0.8-0.4c-0.3-0.1-0.6-0.2-0.8-0.3c-0.2-0.1-0.4-0.2-0.7-0.3c-0.3-0.1-0.7-0.2-1-0.3c-0.3-0.1-0.7-0.2-1-0.3
	c-0.2,0-0.4-0.1-0.6-0.1c0,0,0,0-0.1,0c0,0,0,0,0,0C44.3,19.1,44,19,43.6,19c-0.4-0.1-0.8-0.2-1.2-0.2c0,0,0,0-0.1,0
	c-0.3,0-0.6-0.1-1-0.1c-0.3,0-0.6-0.1-1-0.1c0,0-0.1,0-0.1,0c-0.3,0-0.5,0-0.8-0.1c-0.1,0-0.2,0-0.3,0c-0.1,0-0.1,0-0.2,0
	c-0.4,0-0.7,0-1.1,0s-0.7,0-1.1,0c-0.1,0-0.1,0-0.2,0c-0.1,0-0.2,0-0.3,0c-0.3,0-0.5,0-0.8,0.1c0,0-0.1,0-0.1,0
	c-0.3,0-0.6,0.1-1,0.1c-0.3,0-0.6,0.1-1,0.1c0,0,0,0-0.1,0c-0.4,0.1-0.8,0.1-1.2,0.2c-0.4,0.1-0.7,0.1-1.1,0.2c0,0,0,0,0,0
	c0,0,0,0-0.1,0c-0.2,0-0.4,0.1-0.6,0.1c-0.3,0.1-0.7,0.2-1,0.3c-0.4,0.1-0.7,0.2-1,0.3c-0.2,0.1-0.4,0.2-0.7,0.3
	c-0.3,0.1-0.6,0.2-0.8,0.3c-0.3,0.1-0.6,0.2-0.8,0.4c-0.1,0-0.1,0-0.2,0.1c-0.2,0.1-0.4,0.2-0.6,0.3c0,0,0,0,0,0
	c-0.1,0-0.2,0.1-0.3,0.1c-0.2,0.1-0.5,0.2-0.7,0.4c-0.3,0.2-0.5,0.3-0.8,0.5c0,0-0.1,0-0.1,0.1c-0.3,0.2-0.5,0.3-0.8,0.5
	c-0.2,0.1-0.3,0.2-0.5,0.3c-0.5,0.3-0.9,0.6-1.3,1c-0.4,0.3-0.8,0.7-1.3,1c0,0,0,0,0,0c-0.2,0.2-0.4,0.3-0.6,0.5
	c-0.2,0.2-0.4,0.4-0.6,0.6c-0.3,0.3-0.6,0.6-0.9,0.9l0,0c0,0,0,0,0,0c-0.1,0.1-0.2,0.3-0.4,0.4c-0.1,0.1-0.3,0.3-0.4,0.4
	c0,0-0.1,0.1-0.1,0.2c-0.2,0.3-0.5,0.6-0.7,0.8l-0.1,0.2c0,0,0,0,0,0.1c-0.2,0.3-0.5,0.6-0.7,1c-0.2,0.2-0.3,0.5-0.5,0.7
	c-0.2,0.2-0.3,0.4-0.4,0.6c-0.2,0.3-0.4,0.6-0.5,0.9c-0.1,0.1-0.1,0.2-0.2,0.4s-0.1,0.2-0.2,0.4c0,0,0,0.1-0.1,0.1
	c0,0.1-0.1,0.2-0.1,0.3c-0.1,0.2-0.2,0.4-0.3,0.7c-0.2,0.3-0.3,0.6-0.4,1c-0.1,0.3-0.2,0.6-0.3,0.9c0,0.1-0.1,0.1-0.1,0.2
	c0,0,0,0,0,0.1c-0.1,0.2-0.1,0.3-0.2,0.5c0,0,0,0,0,0.1c-0.1,0.2-0.1,0.3-0.2,0.5c0,0,0,0.1,0,0.1c-0.1,0.2-0.2,0.5-0.2,0.7
	c-0.2,0.7-0.4,1.3-0.5,2c-0.1,0.2-0.1,0.5-0.1,0.7v0c0,0.2-0.1,0.4-0.1,0.6c0,0.2-0.1,0.5-0.1,0.7c0,0.3-0.1,0.7-0.1,1
	c0,0.2,0,0.3,0,0.4c0,0,0,0,0,0c0,0.3-0.1,0.7-0.1,1.1v0.2c0,0.4,0,0.9,0,1.3c0,0.3,0,0.6,0,0.8c0,0.2,0,0.4,0,0.5v0
	c0,0.3,0,0.5,0.1,0.8c0,0.3,0,0.6,0.1,0.9c0,0.3,0.1,0.6,0.1,0.9c0,0.2,0.1,0.5,0.1,0.7c0,0.2,0.1,0.4,0.1,0.5
	c0,0.2,0.1,0.5,0.1,0.7c0,0,0,0,0,0.1c0,0.2,0.1,0.5,0.2,0.7c0,0.2,0.1,0.3,0.1,0.5c0,0,0,0.1,0,0.1c0.1,0.2,0.1,0.5,0.2,0.7
	c0.1,0.3,0.2,0.7,0.3,1c0.1,0.2,0.2,0.5,0.3,0.7c0,0,0,0,0,0c0.1,0.2,0.1,0.4,0.2,0.5c0.1,0.2,0.2,0.5,0.3,0.7
	c0.1,0.3,0.3,0.6,0.4,1c0.2,0.3,0.3,0.7,0.5,1c0.2,0.3,0.4,0.7,0.6,1c0.2,0.3,0.4,0.7,0.6,1c0.2,0.3,0.4,0.6,0.6,1H6
	c-2.8,0-5-2.2-5-5v-40c0-2.8,2.2-5,5-5h16l4-11h24l4,11h16C72.8,12.4,75,14.6,75,17.4z"/>
<path class="st3" d="M66,45.1v-0.2c0-0.4,0-0.7-0.1-1.1c0,0,0,0,0,0c0-0.1,0-0.3,0-0.4c0-0.3-0.1-0.7-0.1-1c0-0.2-0.1-0.5-0.1-0.7
	c0-0.2-0.1-0.4-0.1-0.6v0c0-0.2-0.1-0.5-0.1-0.7c-0.1-0.7-0.3-1.3-0.5-2c-0.1-0.2-0.1-0.5-0.2-0.7c0,0,0-0.1,0-0.1
	c0-0.2-0.1-0.3-0.2-0.5c0,0,0,0,0-0.1c-0.1-0.2-0.1-0.3-0.2-0.5c0,0,0,0,0-0.1c0-0.1,0-0.1-0.1-0.2c-0.1-0.3-0.2-0.6-0.3-0.9
	c-0.1-0.3-0.3-0.6-0.4-1c-0.1-0.2-0.2-0.4-0.3-0.7c0-0.1-0.1-0.2-0.1-0.3c0,0,0-0.1-0.1-0.1c-0.1-0.1-0.1-0.2-0.2-0.4
	s-0.1-0.2-0.2-0.4c-0.2-0.3-0.3-0.6-0.5-0.9c-0.1-0.2-0.3-0.4-0.4-0.6c-0.1-0.2-0.3-0.5-0.5-0.7c-0.2-0.3-0.4-0.6-0.7-1
	c0,0,0,0,0-0.1l-0.1-0.2c-0.2-0.3-0.4-0.6-0.7-0.8c0-0.1-0.1-0.1-0.1-0.2c-0.1-0.1-0.2-0.3-0.4-0.4c-0.1-0.1-0.2-0.3-0.4-0.4
	c0,0,0,0,0,0l0,0c-0.3-0.3-0.6-0.6-0.9-0.9c-0.2-0.2-0.4-0.4-0.6-0.6s-0.4-0.4-0.6-0.5c0,0,0,0,0,0c-0.4-0.4-0.8-0.7-1.3-1
	c-0.4-0.3-0.9-0.6-1.3-1c-0.2-0.1-0.3-0.2-0.5-0.3c-0.3-0.2-0.5-0.3-0.8-0.5c0,0-0.1,0-0.1-0.1c-0.3-0.2-0.5-0.3-0.8-0.5
	c-0.2-0.1-0.5-0.3-0.7-0.4c-0.1,0-0.2-0.1-0.3-0.1c0,0,0,0,0,0c-0.2-0.1-0.4-0.2-0.6-0.3c-0.1,0-0.1-0.1-0.2-0.1
	c-0.3-0.1-0.5-0.3-0.8-0.4c-0.3-0.1-0.6-0.2-0.8-0.3c-0.2-0.1-0.4-0.2-0.7-0.3c-0.3-0.1-0.7-0.2-1-0.3c-0.3-0.1-0.7-0.2-1-0.3
	c-0.2,0-0.4-0.1-0.6-0.1c0,0,0,0-0.1,0c0,0,0,0,0,0C44.3,19.1,44,19,43.6,19c-0.4-0.1-0.8-0.2-1.2-0.2c0,0,0,0-0.1,0
	c-0.3,0-0.6-0.1-1-0.1c-0.3,0-0.6-0.1-1-0.1c0,0-0.1,0-0.1,0c-0.3,0-0.5,0-0.8-0.1c-0.1,0-0.2,0-0.3,0c-0.1,0-0.1,0-0.2,0
	c-0.4,0-0.7,0-1.1,0s-0.7,0-1.1,0c-0.1,0-0.1,0-0.2,0c-0.1,0-0.2,0-0.3,0c-0.3,0-0.5,0-0.8,0.1c0,0-0.1,0-0.1,0
	c-0.3,0-0.6,0.1-1,0.1c-0.3,0-0.6,0.1-1,0.1c0,0,0,0-0.1,0c-0.4,0.1-0.8,0.1-1.2,0.2c-0.4,0.1-0.7,0.1-1.1,0.2c0,0,0,0,0,0
	c0,0,0,0-0.1,0c-0.2,0-0.4,0.1-0.6,0.1c-0.3,0.1-0.7,0.2-1,0.3c-0.4,0.1-0.7,0.2-1,0.3c-0.2,0.1-0.4,0.2-0.7,0.3
	c-0.3,0.1-0.6,0.2-0.8,0.3c-0.3,0.1-0.6,0.2-0.8,0.4c-0.1,0-0.1,0-0.2,0.1c-0.2,0.1-0.4,0.2-0.6,0.3c0,0,0,0,0,0
	c-0.1,0-0.2,0.1-0.3,0.1c-0.2,0.1-0.5,0.2-0.7,0.4c-0.3,0.2-0.5,0.3-0.8,0.5c0,0-0.1,0-0.1,0.1c-0.3,0.2-0.5,0.3-0.8,0.5
	c-0.2,0.1-0.3,0.2-0.5,0.3c-0.5,0.3-0.9,0.6-1.3,1c-0.4,0.3-0.8,0.7-1.3,1c0,0,0,0,0,0c-0.2,0.2-0.4,0.4-0.6,0.5s-0.4,0.4-0.6,0.6
	c-0.3,0.3-0.6,0.6-0.9,0.9l0,0c0,0,0,0,0,0c-0.1,0.1-0.2,0.3-0.4,0.4c-0.1,0.1-0.3,0.3-0.4,0.4c0,0-0.1,0.1-0.1,0.2
	c-0.2,0.3-0.5,0.6-0.7,0.8l-0.1,0.2c0,0,0,0,0,0.1c-0.2,0.3-0.5,0.6-0.7,1c-0.2,0.2-0.3,0.5-0.5,0.7c-0.2,0.2-0.3,0.4-0.4,0.6
	c-0.2,0.3-0.4,0.6-0.5,0.9c-0.1,0.1-0.1,0.2-0.2,0.4s-0.1,0.2-0.2,0.4c0,0,0,0.1-0.1,0.1c0,0.1-0.1,0.2-0.1,0.3
	c-0.1,0.2-0.2,0.4-0.3,0.7c-0.2,0.3-0.3,0.6-0.4,1c-0.1,0.3-0.2,0.6-0.3,0.9c0,0.1-0.1,0.1-0.1,0.2c0,0,0,0,0,0.1
	c-0.1,0.2-0.1,0.3-0.2,0.5c0,0,0,0,0,0.1c-0.1,0.2-0.1,0.3-0.2,0.5c0,0,0,0.1,0,0.1c-0.1,0.2-0.2,0.5-0.2,0.7
	c-0.2,0.7-0.4,1.3-0.5,2c-0.1,0.2-0.1,0.5-0.1,0.7v0c0,0.2-0.1,0.4-0.1,0.6c0,0.2-0.1,0.5-0.1,0.7c0,0.3-0.1,0.7-0.1,1
	c0,0.2,0,0.3,0,0.4c0,0,0,0,0,0c0,0.3-0.1,0.7-0.1,1.1v0.2c0,0.4,0,0.9,0,1.3c0,0.3,0,0.6,0,0.8c0,0.2,0,0.4,0,0.5v0
	c0,0.3,0,0.5,0.1,0.8c0,0.3,0,0.6,0.1,0.9c0,0.3,0.1,0.6,0.1,0.9c0,0.2,0.1,0.5,0.1,0.7c0,0.2,0.1,0.4,0.1,0.5
	c0,0.2,0.1,0.5,0.1,0.7c0,0,0,0,0,0.1c0.1,0.2,0.1,0.5,0.2,0.7c0,0.2,0.1,0.3,0.1,0.5c0,0,0,0.1,0,0.1c0.1,0.2,0.1,0.5,0.2,0.7
	c0.1,0.3,0.2,0.7,0.3,1c0.1,0.2,0.2,0.5,0.3,0.7c0,0,0,0,0,0c0.1,0.2,0.1,0.4,0.2,0.5c0.1,0.2,0.2,0.5,0.3,0.7
	c0.1,0.3,0.3,0.6,0.4,1c0.2,0.3,0.3,0.7,0.5,1c0.2,0.3,0.4,0.7,0.6,1c0.2,0.3,0.4,0.7,0.6,1c0.2,0.3,0.4,0.6,0.6,1
	c5,7.2,13.5,12,23,12s17.9-4.8,23-12c0.2-0.3,0.4-0.6,0.6-1c0.2-0.3,0.4-0.6,0.6-1c0.2-0.3,0.4-0.7,0.6-1c0.2-0.3,0.3-0.7,0.5-1
	c0.2-0.3,0.3-0.6,0.4-1c0.1-0.2,0.2-0.5,0.3-0.7c0.1-0.2,0.1-0.4,0.2-0.5c0,0,0,0,0,0c0.1-0.2,0.2-0.5,0.3-0.7
	c0.1-0.3,0.2-0.7,0.3-1c0.1-0.2,0.1-0.5,0.2-0.7c0,0,0-0.1,0-0.1c0-0.2,0.1-0.3,0.1-0.5c0.1-0.2,0.1-0.5,0.2-0.7c0,0,0,0,0-0.1
	c0-0.2,0.1-0.5,0.1-0.7c0-0.2,0.1-0.3,0.1-0.5c0-0.2,0.1-0.5,0.1-0.7c0-0.3,0.1-0.6,0.1-0.9c0-0.3,0.1-0.6,0.1-0.9
	c0-0.2,0-0.5,0.1-0.8v0c0-0.2,0-0.4,0-0.5c0-0.3,0-0.6,0-0.8C66,45.9,66,45.5,66,45.1z M57.4,54.4c-0.6,1.4-1.3,2.8-2.2,4
	c-1,1.5-2.3,2.8-3.6,4c-3.7,3.1-8.4,5-13.6,5s-9.9-1.9-13.6-5c-1.4-1.2-2.6-2.5-3.6-4c-0.9-1.2-1.6-2.6-2.2-4
	c-0.5-1.3-0.9-2.6-1.2-4c-0.3-1.3-0.4-2.6-0.4-4s0.1-2.7,0.4-4c0.3-1.4,0.7-2.7,1.2-4c0.6-1.4,1.3-2.8,2.2-4c1-1.5,2.3-2.8,3.6-4
	c2.1-1.8,4.5-3.2,7.2-4c2-0.7,4.2-1,6.4-1s4.4,0.3,6.4,1c2.7,0.8,5.1,2.2,7.2,4c1.4,1.2,2.6,2.5,3.6,4c0.9,1.2,1.6,2.6,2.2,4
	c0.5,1.3,0.9,2.6,1.2,4c0.3,1.3,0.4,2.6,0.4,4s-0.1,2.7-0.4,4C58.3,51.8,57.9,53.1,57.4,54.4z"/>
<path class="st3" d="M59,46.4c0,1.4-0.1,2.7-0.4,4c-0.3,1.4-0.7,2.7-1.2,4c-0.6,1.4-1.3,2.8-2.2,4c-1,1.5-2.3,2.8-3.6,4
	c-3.7,3.1-8.4,5-13.6,5s-9.9-1.9-13.6-5c-1.4-1.2-2.6-2.5-3.6-4c-0.9-1.2-1.6-2.6-2.2-4c-0.5-1.3-0.9-2.6-1.2-4
	c-0.3-1.3-0.4-2.6-0.4-4s0.1-2.7,0.4-4c0.3-1.4,0.7-2.7,1.2-4c0.6-1.4,1.3-2.8,2.2-4c1-1.5,2.3-2.8,3.6-4c2.1-1.8,4.5-3.2,7.2-4
	c2-0.7,4.2-1,6.4-1s4.4,0.3,6.4,1c2.7,0.8,5.1,2.2,7.2,4c1.4,1.2,2.6,2.5,3.6,4c0.9,1.2,1.6,2.6,2.2,4c0.5,1.3,0.9,2.6,1.2,4
	C58.9,43.7,59,45,59,46.4z"/>
<rect x="60" y="6.4" class="st3" width="6" height="6"/>
<polyline class="st3" points="61,30.4 75,30.4 76,30.4 "/>
<line class="st3" x1="15" y1="30.4" x2="2" y2="30.4"/>
<polyline class="st3" points="63.3,34.4 75,34.4 76,34.4 "/>
<line class="st3" x1="12.7" y1="34.4" x2="2" y2="34.4"/>
<polyline class="st3" points="64.8,38.4 75,38.4 76,38.4 "/>
<line class="st3" x1="11.2" y1="38.4" x2="2" y2="38.4"/>
<polyline class="st3" points="65.7,42.4 75,42.4 76,42.4 "/>
<line class="st3" x1="10.3" y1="42.4" x2="2" y2="42.4"/>
<polyline class="st3" points="66,46.4 75,46.4 76,46.4 "/>
<line class="st3" x1="10" y1="46.4" x2="2" y2="46.4"/>
<polyline class="st3" points="65.7,50.4 75,50.4 76,50.4 "/>
<line class="st3" x1="10.3" y1="50.4" x2="2" y2="50.4"/>
<polyline class="st3" points="64.8,54.4 75,54.4 76,54.4 "/>
<line class="st3" x1="11.2" y1="54.4" x2="2" y2="54.4"/>
<polyline class="st3" points="63.3,58.4 74.9,58.4 76,58.4 "/>
<line class="st3" x1="12.7" y1="58.4" x2="2" y2="58.4"/>
<path class="st3" d="M61,22.4"/>
<line class="st3" x1="27" y1="12.4" x2="49" y2="12.4"/>
<line class="st3" x1="45" y1="7.4" x2="31" y2="7.4"/>
</svg>
