<?xml version="1.0" encoding="utf-8"?>
<!-- Generator: Adobe Illustrator 24.2.0, SVG Export Plug-In . SVG Version: 6.00 Build 0)  -->
<svg version="1.2" baseProfile="tiny" id="Layer_1" xmlns="http://www.w3.org/2000/svg" xmlns:xlink="http://www.w3.org/1999/xlink"
	 x="0px" y="0px" viewBox="0 0 16 16" overflow="visible" xml:space="preserve">
<path fill-rule="evenodd" fill="#FFFFFF" d="M8,0C5.8,0,5.6,0,4.7,0c-0.9,0-1.4,0.2-1.9,0.4c-0.5,0.2-1,0.5-1.4,0.9
	C0.9,1.7,0.6,2.2,0.4,2.8C0.2,3.3,0.1,3.9,0,4.7C0,5.6,0,5.8,0,8c0,2.2,0,2.4,0,3.3c0,0.9,0.2,1.4,0.4,1.9c0.2,0.5,0.5,1,0.9,1.4
	c0.4,0.4,0.9,0.7,1.4,0.9c0.5,0.2,1.1,0.3,1.9,0.4c0.9,0,1.1,0,3.3,0c2.2,0,2.4,0,3.3,0c0.9,0,1.4-0.2,1.9-0.4
	c0.5-0.2,1-0.5,1.4-0.9c0.4-0.4,0.7-0.9,0.9-1.4c0.2-0.5,0.3-1.1,0.4-1.9c0-0.9,0-1.1,0-3.3c0-2.2,0-2.4,0-3.3
	c0-0.9-0.2-1.4-0.4-1.9c-0.2-0.5-0.5-1-0.9-1.4c-0.4-0.4-0.9-0.7-1.4-0.9c-0.5-0.2-1.1-0.3-1.9-0.4C10.4,0,10.2,0,8,0z M8,1.4
	c2.1,0,2.4,0,3.2,0c0.8,0,1.2,0.2,1.5,0.3c0.4,0.1,0.6,0.3,0.9,0.6c0.3,0.3,0.5,0.5,0.6,0.9c0.1,0.3,0.2,0.7,0.3,1.5
	c0,0.8,0,1.1,0,3.2s0,2.4,0,3.2c0,0.8-0.2,1.2-0.3,1.5c-0.1,0.3-0.3,0.7-0.6,0.9c-0.3,0.3-0.5,0.5-0.9,0.6c-0.3,0.1-0.7,0.2-1.5,0.3
	c-0.8,0-1.1,0-3.2,0c-2.1,0-2.4,0-3.2,0c-0.8,0-1.2-0.2-1.5-0.3c-0.3-0.1-0.7-0.3-0.9-0.6c-0.3-0.3-0.5-0.6-0.6-0.9
	c-0.1-0.3-0.2-0.7-0.3-1.5c0-0.8,0-1.1,0-3.2s0-2.4,0-3.2c0-0.8,0.2-1.2,0.3-1.5c0.1-0.4,0.3-0.6,0.6-0.9c0.3-0.3,0.5-0.5,0.9-0.6
	C3.6,1.7,4,1.5,4.8,1.5C5.6,1.4,5.9,1.4,8,1.4z"/>
<path fill-rule="evenodd" fill="#FFFFFF" d="M8,10.7c-0.4,0-0.7-0.1-1-0.2c-0.3-0.1-0.6-0.3-0.9-0.6C5.9,9.6,5.7,9.3,5.5,9
	C5.4,8.7,5.3,8.4,5.3,8c0-0.4,0.1-0.7,0.2-1c0.1-0.3,0.3-0.6,0.6-0.9S6.7,5.7,7,5.5c0.3-0.1,0.7-0.2,1-0.2c0.7,0,1.4,0.3,1.9,0.8
	c0.5,0.5,0.8,1.2,0.8,1.9c0,0.7-0.3,1.4-0.8,1.9C9.4,10.4,8.7,10.7,8,10.7z M8,3.9c-1.1,0-2.1,0.4-2.9,1.2S3.9,6.9,3.9,8
	s0.4,2.1,1.2,2.9c0.8,0.8,1.8,1.2,2.9,1.2s2.1-0.4,2.9-1.2c0.8-0.8,1.2-1.8,1.2-2.9s-0.4-2.1-1.2-2.9C10.1,4.3,9.1,3.9,8,3.9z
	 M13.3,3.8c0,0.3-0.1,0.5-0.3,0.7c-0.2,0.2-0.4,0.3-0.7,0.3s-0.5-0.1-0.7-0.3c-0.2-0.2-0.3-0.4-0.3-0.7c0-0.3,0.1-0.5,0.3-0.7
	c0.2-0.2,0.4-0.3,0.7-0.3s0.5,0.1,0.7,0.3C13.2,3.3,13.3,3.6,13.3,3.8z"/>
</svg>
