<?xml version="1.0" encoding="utf-8"?>
<!-- Generator: Adobe Illustrator 24.2.0, SVG Export Plug-In . SVG Version: 6.00 Build 0)  -->
<svg version="1.2" baseProfile="tiny" id="Layer_1" xmlns="http://www.w3.org/2000/svg" xmlns:xlink="http://www.w3.org/1999/xlink"
	 x="0px" y="0px" viewBox="0 0 16 16" overflow="visible" xml:space="preserve">
<path fill="#FFFFFF" d="M16,16h-3.3v-5.2c0-1.2,0-2.8-1.7-2.8c-1.7,0-2,1.4-2,2.7V16H5.7V5.3h3.2v1.5h0C9.5,5.7,10.7,5,12,5
	c3.4,0,4,2.2,4,5.1V16z M1.9,3.9C0.9,3.9,0,3,0,1.9C0,0.8,0.9,0,1.9,0c1,0,1.9,0.9,1.9,1.9C3.9,3,3,3.9,1.9,3.9z M3.6,16H0.3V5.3
	h3.3V16z"/>
</svg>
